<?xml version="1.0" encoding="UTF-8" standalone="no"?>
<!-- Created with Inkscape (http://www.inkscape.org/) -->

<svg
   version="1.1"
   id="svg518"
   width="640"
   height="360"
   viewBox="0 0 640 360"
   sodipodi:docname="bannermeterchat.png.svg"
   inkscape:version="1.1.2 (b8e25be8, 2022-02-05)"
   inkscape:export-filename="/Users/xunorus/xunserver/HACKATHONS/meterdid/design/banner.png"
   inkscape:export-xdpi="96"
   inkscape:export-ydpi="96"
   xmlns:inkscape="http://www.inkscape.org/namespaces/inkscape"
   xmlns:sodipodi="http://sodipodi.sourceforge.net/DTD/sodipodi-0.dtd"
   xmlns="http://www.w3.org/2000/svg"
   xmlns:svg="http://www.w3.org/2000/svg">
  <defs
     id="defs522" />
  <sodipodi:namedview
     id="namedview520"
     pagecolor="#ffffff"
     bordercolor="#666666"
     borderopacity="1.0"
     inkscape:pageshadow="2"
     inkscape:pageopacity="0.0"
     inkscape:pagecheckerboard="0"
     showgrid="false"
     inkscape:zoom="0.20109879"
     inkscape:cx="437.59587"
     inkscape:cy="474.89097"
     inkscape:window-width="1306"
     inkscape:window-height="819"
     inkscape:window-x="0"
     inkscape:window-y="1045"
     inkscape:window-maximized="0"
     inkscape:current-layer="g524" />
  <g
     inkscape:groupmode="layer"
     inkscape:label="Image"
     id="g524">
    <path
       d="m 620.96492,174.84745 c 0,63.80398 -56.48346,115.50242 -126.17597,115.50242 -18.28566,0 -35.63484,-3.55393 -51.30826,-9.93987 -5.8652,4.8311 -15.42699,11.43917 -26.7631,16.99216 -11.829,5.77513 -26.07308,10.7173 -40.21861,10.7173 -3.20368,0 -6.06235,-2.16566 -7.29453,-5.49746 -1.23219,-3.33179 -0.54217,-7.10784 1.67579,-9.66223 v 0 0 0 0 l 0.14795,-0.16665 c 0.14794,-0.16666 0.34501,-0.38871 0.64074,-0.7774 0.54216,-0.66636 1.38003,-1.72144 2.41506,-3.16523 2.02081,-2.77651 4.73161,-6.88571 7.49172,-11.99448 4.92872,-9.21796 9.61107,-21.32351 10.54749,-34.92837 -14.78624,-18.88021 -23.51011,-42.03622 -23.51011,-67.08025 0,-63.80398 56.48346,-115.502416 126.17597,-115.502416 69.69251,0 126.17594,51.698436 126.17594,115.502416 z"
       id="path2660"
       style="fill:#d17c78;fill-opacity:1;stroke-width:0.523157"
       sodipodi:nodetypes="csccsssccccsccccsscc" />
    <text
       xml:space="preserve"
       style="font-weight:200;font-size:47.7494px;line-height:1.25;font-family:Montserrat;-inkscape-font-specification:'Montserrat Ultra-Light';fill:#d17c78;fill-opacity:0.980392;stroke-width:0.620118"
       x="37.026905"
       y="274.32281"
       id="text781"><tspan
         sodipodi:role="line"
         id="tspan779"
         style="font-style:normal;font-variant:normal;font-weight:normal;font-stretch:normal;font-family:'Stinger Fit Trial';-inkscape-font-specification:'Stinger Fit Trial';fill:#d17c78;fill-opacity:0.980392;stroke-width:0.620118"
         x="37.026905"
         y="274.32281">METERCHAT</tspan></text>
  </g>
</svg>
