<?xml version="1.0" encoding="UTF-8" standalone="no"?>
<!-- Created with Inkscape (http://www.inkscape.org/) -->

<svg
   width="841mm"
   height="594mm"
   viewBox="0 0 841 594"
   version="1.1"
   id="svg5"
   inkscape:version="1.1.2 (b8e25be8, 2022-02-05)"
   sodipodi:docname="iusnaturalisBANNER.svg"
   inkscape:export-filename="/Users/xunorus/iusnaturalis.png"
   inkscape:export-xdpi="96"
   inkscape:export-ydpi="96"
   xmlns:inkscape="http://www.inkscape.org/namespaces/inkscape"
   xmlns:sodipodi="http://sodipodi.sourceforge.net/DTD/sodipodi-0.dtd"
   xmlns="http://www.w3.org/2000/svg"
   xmlns:svg="http://www.w3.org/2000/svg">
  <sodipodi:namedview
     id="namedview7"
     pagecolor="#ffffff"
     bordercolor="#666666"
     borderopacity="1.0"
     inkscape:pageshadow="2"
     inkscape:pageopacity="0.0"
     inkscape:pagecheckerboard="0"
     inkscape:document-units="mm"
     showgrid="true"
     inkscape:zoom="0.17408146"
     inkscape:cx="1128.7819"
     inkscape:cy="427.96056"
     inkscape:window-width="1440"
     inkscape:window-height="819"
     inkscape:window-x="0"
     inkscape:window-y="25"
     inkscape:window-maximized="1"
     inkscape:current-layer="layer1">
    <inkscape:grid
       type="xygrid"
       id="grid824" />
  </sodipodi:namedview>
  <defs
     id="defs2" />
  <g
     inkscape:label="Layer 1"
     inkscape:groupmode="layer"
     id="layer1">
    <path
       style="fill:#6f42c1;fill-opacity:1;stroke:#6f42c1;stroke-width:6.44678;stroke-miterlimit:4;stroke-dasharray:none;stroke-opacity:1"
       d="m 398.34961,514.00583 c -29.65949,-5.35576 -52.77683,-16.97932 -73.5989,-37.00612 -20.67556,-19.88591 -33.92095,-43.77667 -40.08185,-72.2959 -1.78321,-8.25477 -1.87067,-9.56418 -1.84983,-27.69357 0.0221,-18.19943 0.1047,-19.39841 1.92391,-27.49891 4.96258,-22.09821 15.08353,-43.41446 28.17611,-59.34317 5.00085,-6.08406 17.6795,-18.46649 23.15336,-22.61231 16.5589,-12.54141 36.30188,-21.54216 57.07264,-26.01916 8.2058,-1.7687 9.65325,-1.86758 27.34756,-1.86758 17.6943,0 19.14175,0.0987 27.34752,1.86758 20.35339,4.38704 39.06955,12.78383 55.53042,24.91308 7.17332,5.28572 20.07048,17.86157 25.74372,25.10233 13.29898,16.97358 22.54943,36.85899 27.19335,58.4566 1.75538,8.16376 1.86372,9.72388 1.87488,27.00154 0.0127,21.16591 -0.81523,26.92388 -6.27148,43.56341 -13.54655,41.31183 -46.27997,74.19205 -87.62137,88.01443 -15.35479,5.13376 -22.18156,6.20935 -41.37516,6.51883 -14.69613,0.23692 -17.96662,0.0901 -24.56488,-1.10108 z m 37.90713,-1.43059 c 7.91567,-2.65786 17.03941,-9.48949 21.83832,-16.35219 l 1.55781,-2.22767 -1.93492,-0.36907 c -12.99664,-2.47876 -20.62962,-6.15312 -27.95506,-13.45698 -2.89357,-2.88503 -5.79017,-6.02403 -6.43688,-6.9755 l -1.1758,-1.72991 -2.15896,2.76786 c -8.74438,11.21062 -18.7661,16.93114 -33.93095,19.3683 -2.29988,0.36958 -2.51978,0.57133 -1.89525,1.73824 1.53393,2.86618 8.53615,9.67554 12.81897,12.4659 8.06494,5.2545 11.50428,6.13831 24.04942,6.17972 9.30163,0.0285 11.55811,-0.17809 15.2233,-1.40874 z m -37.46942,-1.83506 c -5.32934,-3.1527 -11.58813,-8.72167 -14.95171,-13.30376 -2.23023,-3.03815 -2.85508,-3.45474 -5.75734,-3.83855 -4.95723,-0.65547 -12.44335,-2.97679 -17.38125,-5.38957 -5.00278,-2.44443 -14.89054,-11.32948 -17.03078,-15.30364 -1.26355,-2.34628 -1.52375,-2.47866 -4.87262,-2.47866 -7.39878,0 -17.44657,-3.572 -24.824,-8.82508 l -3.41963,-2.43488 2.37244,3.03509 c 3.99007,5.1046 15.93542,17.13427 21.42007,21.57139 17.34399,14.03124 37.30199,23.27233 60.89326,28.19521 8.27931,1.72767 8.44834,1.66927 3.55156,-1.22755 z m 51.64177,0.11071 c 18.9562,-4.25154 36.43111,-12.2765 52.24949,-23.99438 5.73824,-4.25075 20.23655,-17.91158 22.77022,-21.45486 l 1.36622,-1.91063 -2.36596,1.39596 c -3.90501,2.30399 -12.31309,4.89485 -17.3042,5.33205 l -4.6876,0.41048 -3.41944,4.35118 c -8.22177,10.46202 -18.71537,16.46669 -32.06562,18.34879 l -5.65343,0.79698 -2.623,3.71722 c -2.83249,4.01411 -9.00151,9.48696 -13.98721,12.40874 -5.01052,2.93637 -4.80166,2.95826 5.72053,0.59831 z M 378.3558,487.37121 c -4.05147,-10.12041 -4.06583,-23.75686 -0.0354,-33.89846 0.3024,-0.76114 -1.96968,1.00793 -5.04927,3.9313 -6.8305,6.48407 -14.54636,10.51918 -23.39639,12.23544 -3.21194,0.62285 -5.84088,1.34534 -5.84215,1.60548 -0.001,0.26032 2.45067,3.06263 5.44872,6.22773 6.11281,6.45345 11.92636,10.2717 18.87845,12.39906 1.28291,0.39252 2.74617,0.77902 4.19115,1.12061 3.55201,0.83974 6.99359,1.40866 7.37431,1.13205 0.14234,-0.10312 -0.56393,-2.24222 -1.56914,-4.75321 z m 15.52449,3.01845 c 9.43904,-2.44946 19.91755,-9.7334 25.48406,-17.71477 l 1.5685,-2.24892 h -2.70432 c -10.38042,0 -25.4175,-7.77343 -32.70605,-16.90748 -1.69209,-2.1205 -3.37646,-3.75546 -3.74306,-3.63327 -0.36664,0.1221 -1.58641,2.84774 -2.71062,6.0567 -1.82161,5.19975 -2.04537,6.73779 -2.05683,14.13806 -0.0127,8.58614 0.75289,12.56868 3.69926,19.22941 l 1.42714,3.22627 3.26185,-0.39603 c 1.794,-0.21794 5.61004,-1.00527 8.48007,-1.75006 z m 78.76989,0.3686 c 7.45769,-1.65273 14.87703,-6.0021 21.36411,-12.52401 6.07673,-6.10943 6.91445,-7.80841 3.85001,-7.80841 -3.5311,0 -10.96199,-2.20619 -16.47846,-4.89242 -6.05949,-2.95066 -11.43738,-7.28349 -15.77318,-12.7081 -1.54061,-1.92749 -2.55638,-2.88174 -2.25731,-2.12059 5.35958,13.63901 5.66726,23.86402 1.09505,36.39214 l -1.9415,5.31989 2.86478,-0.34064 c 1.57562,-0.18694 4.85006,-0.78038 7.2765,-1.31811 z m -10.27919,-2.02858 c 2.80595,-6.54597 3.5899,-11.30326 3.30145,-20.03379 -0.223,-6.75139 -0.61491,-9.25453 -2.09618,-13.3909 -1.00204,-2.79798 -1.97369,-5.23906 -2.15928,-5.42467 -0.18567,-0.18568 -3.24176,2.59212 -6.79152,6.17266 -4.75609,4.7974 -7.76477,7.18543 -11.43596,9.07696 -5.05668,2.60537 -14.01963,5.2959 -17.64218,5.2959 -1.8429,0 -1.9296,0.11482 -1.17621,1.55693 0.44736,0.85632 3.33862,4.05491 6.42508,7.10803 7.91068,7.82521 18.02745,12.54893 27.26031,12.72844 2.87763,0.056 3.00542,-0.0348 4.31449,-3.08956 z M 340.53404,467.5905 c -1.66997,-3.12036 -3.39825,-9.22429 -4.13469,-14.60285 -1.16729,-8.52552 0.26602,-17.17542 4.46575,-26.94738 0.41335,-0.96178 -0.18663,-1.21445 -3.8818,-1.63436 -12.37695,-1.40649 -24.55691,-8.01936 -31.89085,-17.31451 -1.60956,-2.04 -3.12394,-3.72648 -3.36529,-3.74774 -0.81387,-0.0718 -3.88113,9.26288 -4.75166,14.46057 -3.04815,18.19968 7.30975,38.21491 23.98337,46.3446 5.37727,2.62189 13.18131,4.80109 17.38679,4.85509 2.80102,0.0348 2.9222,-0.0399 2.18838,-1.41342 z m 11.37791,0.0867 c 8.56298,-2.19005 14.436,-5.64733 21.3538,-12.57028 3.33011,-3.33258 6.05471,-6.33797 6.05471,-6.67854 0,-0.34067 -2.56891,-1.1232 -5.70873,-1.739 -3.69434,-0.72455 -8.02834,-2.26654 -12.28244,-4.36999 -5.56246,-2.75031 -7.51079,-4.20361 -12.66524,-9.44755 -3.35036,-3.40846 -6.25085,-6.03788 -6.44554,-5.84322 -0.19485,0.19453 -1.17005,2.64327 -2.16745,5.44128 -1.40114,3.93051 -1.88083,6.792 -2.10965,12.5843 -0.33561,8.49567 0.50914,13.89618 3.11256,19.89923 2.07672,4.78851 2.43425,4.87818 10.85798,2.72377 z m 66.69799,-4.34418 c -3.46951,-9.29015 -3.51892,-23.08779 -0.1145,-32.00359 0.29069,-0.76114 -1.89406,0.87066 -4.85481,3.62619 -3.4183,3.18135 -7.19141,5.89671 -10.33708,7.43915 -5.08749,2.49466 -14.37577,5.19595 -17.86594,5.19595 -1.08087,0 -1.96522,0.26285 -1.96522,0.58432 0,1.10099 7.13887,8.75596 10.88383,11.67066 2.05882,1.60238 5.35651,3.70045 7.32821,4.66239 4.26134,2.07894 12.94069,4.44212 16.51105,4.49554 l 2.54654,0.0399 -2.13198,-5.70879 z m 13.57038,4.34418 c 8.11359,-2.07511 14.47101,-5.70986 20.55577,-11.75239 2.89119,-2.87111 5.61145,-5.89222 6.04503,-6.71356 0.7483,-1.41749 0.60583,-1.51843 -2.80554,-1.98762 -9.81846,-1.35037 -19.28325,-6.14207 -27.8003,-14.07445 -1.91644,-1.78486 -2.54995,-2.1112 -2.18923,-1.12775 3.6959,10.07622 2.90761,24.04945 -2.02023,35.80938 -0.68627,1.6378 1.3598,1.5995 8.2145,-0.15373 z m 69.45361,0.49962 c 0.38302,-0.47583 1.53266,-3.20036 2.5547,-6.05477 3.5721,-9.97598 3.07634,-23.49821 -1.20161,-32.77429 l -1.55215,-3.36557 -3.27738,4.1716 c -6.46301,8.22636 -16.71064,14.28135 -28.04566,16.57133 l -6.31804,1.27642 2.98964,3.80911 c 4.00057,5.09717 8.77826,9.09834 14.4056,12.06437 7.63399,4.02367 18.78049,6.36897 20.4449,4.3018 z m 14.5512,-1.55246 c 11.61343,-3.6687 16.97577,-9.16964 26.06705,-26.74077 l 4.5247,-8.74511 v -6.19455 c 0,-6.19592 -1.47316,-13.6653 -3.75309,-19.02903 l -1.09646,-2.57959 -6.39782,6.41802 c -8.92376,8.95195 -17.20993,13.09031 -29.34282,14.6547 l -3.56985,0.46033 1.69749,3.8384 c 2.92242,6.60803 3.88145,12.19115 3.54094,20.61394 -0.28943,7.15693 -1.38216,11.85747 -4.32884,18.61904 -0.53941,1.23777 -0.33298,1.29138 3.32002,0.86199 2.14239,-0.25179 6.34477,-1.23157 9.33868,-2.17734 z m -91.46285,-5.36724 c 1.60093,-4.8926 1.87074,-6.89585 1.88748,-14.01239 0.019,-7.21754 -0.22712,-9.05026 -1.86799,-14.01236 -1.03811,-3.13978 -2.16295,-5.70875 -2.49964,-5.70875 -0.69886,0 -3.16395,6.27723 -4.16037,10.59418 -1.12718,4.8835 -0.83165,14.97215 0.59303,20.24525 1.66975,6.17993 2.65557,8.6028 3.50051,8.6028 0.37344,0 1.51957,-2.56894 2.54698,-5.70873 z m -45.03575,-16.26128 c -3.60312,-9.20557 -4.10195,-11.64795 -4.1338,-20.24009 -0.0316,-8.22212 0.32966,-10.48597 2.83084,-17.79252 0.23281,-0.68011 -1.02874,0.38302 -2.80351,2.36207 -6.28224,7.00618 -16.91172,12.69086 -27.6087,14.76531 -3.58779,0.69576 -3.92283,0.902 -3.13986,1.93296 8.33049,10.96857 16.58187,16.48671 28.60724,19.13125 5.97294,1.31349 6.81573,1.29204 6.24779,-0.15911 z m 11.2536,0.12716 c 2.93346,-0.596 7.96869,-2.34958 11.18939,-3.89679 4.80119,-2.30643 6.98185,-3.93911 12.10828,-9.06554 3.61214,-3.61213 5.88374,-6.37538 5.37931,-6.5435 -0.48019,-0.16006 -3.43785,0.21983 -6.57251,0.84408 -10.34385,2.06008 -20.79579,8.51739 -27.51162,16.99677 -2.54468,3.21295 -2.41218,3.25376 5.40715,1.66498 z m 67.18783,-0.4733 c -0.4497,-0.85632 -2.92672,-3.61106 -5.50451,-6.1217 -6.87178,-6.69269 -14.51584,-10.41949 -26.1784,-12.76293 l -2.35112,-0.47228 1.62724,2.32632 c 5.42803,7.75992 17.2503,15.43454 26.94798,17.49361 6.45399,1.37065 6.42293,1.37327 5.45881,-0.46267 z m 15.59683,-0.2714 c 9.1283,-2.31715 17.83001,-8.23559 24.44295,-16.62485 l 2.25057,-2.85495 -4.6691,-0.81308 c -12.70124,-2.21182 -22.7284,-8.0069 -30.43452,-17.58929 l -2.16361,-2.6904 1.64362,4.52805 c 3.76793,10.38064 3.76011,20.98646 -0.0221,31.94877 -0.94736,2.74475 -1.72248,5.2359 -1.72248,5.53596 0,0.66283 5.10406,-0.0253 10.67611,-1.44005 z m -90.30817,-5.27177 c 2.15938,-6.4915 3.04243,-15.01092 2.15128,-20.75451 -0.76848,-4.95305 -2.9835,-12.06023 -4.10967,-13.18637 -0.39416,-0.394 -1.37954,1.59169 -2.55508,5.14942 -1.66533,5.04001 -1.91234,6.86792 -1.90459,14.09463 0.009,7.25999 0.2521,9.01952 1.9447,13.99923 1.06471,3.13261 2.18363,5.54251 2.48653,5.35525 0.30303,-0.18694 1.19697,-2.28312 1.98683,-4.65765 z m 74.89999,0.35364 c -1.63553,-4.26204 -1.79454,-5.57916 -1.817,-15.05034 -0.0221,-9.11659 0.1648,-10.88177 1.53232,-14.50736 0.85629,-2.27033 1.55692,-4.25918 1.55692,-4.41974 0,-0.16069 -1.94618,1.69695 -4.32482,4.12782 -7.11233,7.26846 -15.31576,11.98586 -24.03224,13.81972 l -3.79216,0.79784 4.9182,1.24899 c 9.11387,2.3145 18.65957,8.23174 24.55128,15.21891 1.59299,1.88924 2.96468,3.4349 3.04815,3.4349 0.0835,0 -0.6548,-2.10183 -1.64065,-4.67074 z m -61.44393,-8.08572 c 4.82823,-3.00011 13.96772,-6.55677 17.16824,-6.68108 0.88435,-0.0348 -0.43799,-0.60868 -2.93855,-1.27632 -9.32608,-2.48986 -18.37716,-7.89454 -24.35437,-14.54266 l -3.13444,-3.48624 1.7234,4.95568 c 1.48291,4.26406 1.72334,6.17079 1.7228,13.66264 -5.1e-4,7.33808 -0.26697,9.53744 -1.69497,13.98917 l -1.69433,5.28211 4.13273,-4.41788 c 2.27299,-2.42982 6.35426,-5.7983 9.06949,-7.48542 z m 66.86389,7.41697 c 2.20572,-7.14128 2.84875,-13.15996 2.0667,-19.34445 -0.71769,-5.67557 -3.16826,-14.06629 -4.10815,-14.06629 -0.30176,0 -1.28847,2.25756 -2.19249,5.01679 -2.38529,7.28014 -2.36916,20.0225 0.0351,27.68857 0.92331,2.94415 1.9228,5.35291 2.22112,5.35291 0.29828,0 1.18829,-2.09137 1.97781,-4.64753 z M 295.09724,427.69667 c -0.47163,-6.94532 0.65109,-13.93878 3.34099,-20.81075 l 2.15593,-5.50786 -2.25013,-5.78332 c -4.13352,-10.62413 -4.11688,-24.38958 0.0424,-34.96497 l 2.22393,-5.65467 -2.22472,-5.34392 c -1.62664,-3.90735 -2.39614,-7.1308 -2.86242,-11.99058 -0.58296,-6.07606 -0.52805,-7.93247 0.45252,-15.29618 l 0.32248,-2.42191 -0.9949,1.76528 c -1.52899,2.71299 -6.5584,17.633 -8.06235,23.91752 -2.31101,9.65697 -3.4671,20.2237 -3.47384,31.7506 -0.009,16.98497 2.42441,31.04718 8.02733,46.37148 1.38956,3.80059 2.69319,7.45506 2.89692,8.12108 0.67897,2.2197 0.77317,1.25621 0.40593,-4.1518 z m 255.39822,-7.61166 c 8.87657,-27.10428 9.11823,-56.46871 0.68659,-83.42786 -0.97415,-3.1147 -2.00536,-5.91186 -2.2916,-6.2159 -0.28626,-0.30366 -0.69914,2.18709 -0.91765,5.53577 -0.29291,4.48899 -1.03027,7.83492 -2.80681,12.73632 l -2.40958,6.64782 1.69914,4.07769 c 2.4148,5.7953 3.67936,12.19384 3.69324,18.68759 0.0158,7.10443 -0.80963,11.43416 -3.42054,17.95457 l -2.07514,5.18238 1.97626,4.99949 c 2.38244,6.02703 3.53148,11.15456 3.53148,15.75907 0,1.88419 0.13032,3.4258 0.28911,3.4258 0.1591,0 1.07951,-2.41322 2.04547,-5.36274 z m -210.32689,0.69197 c -3.03005,-7.06957 -3.26849,-8.26717 -3.54751,-17.81821 -0.29607,-10.1305 0.11577,-12.80088 3.10765,-20.14994 l 1.44223,-3.54268 -3.24123,0.32467 c -12.75988,1.27796 -25.36424,8.13355 -32.31607,17.57698 l -3.08396,4.18925 3.13498,4.07418 c 7.89701,10.26272 20.64835,16.88176 34.39589,17.85433 1.14724,0.0813 1.15369,-0.069 0.10787,-2.50852 z m 78.67949,0.63888 c -2.44219,-3.42975 -10.82028,-10.8979 -14.68585,-13.09084 -6.23188,-3.5353 -19.99795,-7.06118 -19.99795,-5.12196 0,0.42243 2.41325,3.19818 5.36274,6.16776 7.46705,7.51788 15.77884,11.75239 26.12184,13.30799 1.90291,0.28626 3.71459,0.55927 4.02594,0.60669 0.31125,0.05 -0.0607,-0.79385 -0.82672,-1.86964 z m 80.45224,1.09103 c -1.59609,-2.73715 -6.45137,-7.81043 -10.17118,-10.62796 -5.17805,-3.92197 -11.38161,-6.85033 -17.53564,-8.27757 -7.7789,-1.80403 -8.02186,-1.38036 -2.57897,4.49715 7.385,7.97457 14.20404,11.84296 24.9332,14.14436 6.02864,1.29315 5.95045,1.28926 5.35259,0.2638 z m 13.91613,-0.99585 c 9.06177,-2.2406 20.37193,-9.96611 25.56861,-17.46494 l 1.91818,-2.76793 -2.55185,-3.47635 c -5.25273,-7.15567 -13.97608,-13.33804 -22.85904,-16.20068 -3.34014,-1.07641 -12.10945,-2.54932 -12.10945,-2.03389 0,0.13855 0.74849,2.03336 1.6633,4.21026 2.54474,6.05531 3.39822,11.69859 3.03104,20.04141 -0.30587,6.94984 -1.28021,11.08086 -4.3122,18.28303 -0.42098,1.00005 -0.0901,1.10475 2.50729,0.79382 1.64578,-0.19707 4.86059,-0.82014 7.14412,-1.38473 z m -161.2011,0.10439 c 5.75177,-1.48478 11.67878,-4.39559 16.72233,-8.21254 4.46954,-3.38249 10.48873,-10.24469 9.32612,-10.6322 -1.60991,-0.53659 -10.64941,2.20353 -16.04252,4.86297 -4.43999,2.18942 -7.19628,4.19418 -11.24449,8.1784 -7.24999,7.13533 -7.07618,7.94977 1.23856,5.80337 z m 81.28768,-0.36807 c 6.26496,-1.73611 11.59635,-4.49756 16.58708,-8.59141 3.62742,-2.97559 9.21253,-9.37568 8.66208,-9.9261 -0.5409,-0.54096 -11.15877,2.16827 -14.78913,3.77349 -5.1894,2.29467 -11.84438,7.19521 -15.59737,11.48543 -1.7464,1.99641 -3.17528,3.8687 -3.17528,4.16069 0,0.90731 2.93086,0.58926 8.31262,-0.9021 z m -86.53953,-3.50025 c 6.66298,-7.5695 14.97705,-12.84966 23.81193,-15.12256 2.71656,-0.69886 4.47216,-1.41452 3.90128,-1.59033 -0.57088,-0.17555 -2.90625,-0.85945 -5.18975,-1.51912 -7.83916,-2.2648 -13.36119,-5.71047 -20.30363,-12.6691 -3.55533,-3.56365 -6.57413,-6.36948 -6.70844,-6.23523 -0.13443,0.13411 -1.19554,3.08389 -2.35833,6.55461 -1.8232,5.44185 -2.11187,7.29639 -2.09729,13.47399 0.009,3.94 0.32641,8.56481 0.70459,10.27743 0.88963,4.02837 3.46774,11.0715 4.05273,11.0715 0.24957,0 2.13363,-1.90851 4.18691,-4.24119 z m 157.40548,-1.69035 c 1.83613,-4.97665 2.02883,-6.32101 2.0759,-14.48154 0.0449,-7.7492 -0.17682,-9.66666 -1.59786,-13.83937 -2.79029,-8.19264 -2.18519,-8.08617 -8.59688,-1.51302 -6.40282,6.56403 -12.82144,10.68398 -20.20002,12.96583 -2.66408,0.82387 -5.31086,1.65745 -5.88172,1.85237 -0.57088,0.19484 0.77232,0.78132 2.98486,1.30324 8.57373,2.02219 19.40414,8.91981 24.86703,15.8372 1.6174,2.04803 3.25208,3.64209 3.63266,3.54245 0.38059,-0.0996 1.60279,-2.64988 2.71603,-5.66716 z m -79.4977,-0.46935 c 1.69079,-4.97494 1.94359,-6.77609 1.96662,-14.01238 0.0285,-8.4518 -1.50964,-15.9915 -3.93488,-19.3082 -0.85604,-1.17071 -1.06673,-0.92883 -2.42628,2.78539 -0.81884,2.23706 -1.79827,5.46861 -2.17649,7.18122 -1.04155,4.71645 -0.85483,14.85496 0.35994,19.54291 1.34098,5.17494 3.05055,9.51979 3.74581,9.51979 0.28879,0 1.39823,-2.56894 2.46528,-5.70873 z m -7.03433,-0.58404 c -1.80776,-4.83234 -2.06404,-19.07862 -0.45435,-25.25431 l 1.27882,-4.90631 -5.5581,4.73499 c -6.20056,5.2823 -13.4576,9.20089 -19.31503,10.42945 -2.13856,0.4484 -3.88828,0.99189 -3.88828,1.2074 0,0.21541 1.79049,0.80612 3.97884,1.3126 7.36852,1.70534 15.26094,6.33775 21.23632,12.46448 1.87994,1.92761 3.51807,3.40476 3.64023,3.28264 0.12209,-0.1221 -0.29101,-1.59406 -0.91845,-3.27094 z m 18.86906,-6.23016 c 3.96043,-2.72482 9.86562,-5.31827 14.72134,-6.46532 2.12506,-0.50199 3.39664,-1.06344 2.82576,-1.24766 -0.57088,-0.1841 -3.21767,-0.99433 -5.88175,-1.80011 -6.22527,-1.88298 -12.48877,-5.60896 -18.2098,-10.83249 -2.5573,-2.3349 -4.31129,-3.54619 -4.00807,-2.76787 3.12514,8.02132 3.12653,23.07735 0.003,31.13856 -0.3197,0.82517 1.08508,-0.0911 3.47913,-2.26961 2.2085,-2.00941 5.3902,-4.59944 7.07052,-5.7555 z M 377.1342,397.59625 c -6.07992,-8.60733 -18.2421,-15.88563 -29.26191,-17.51129 l -3.42346,-0.50506 2.22393,2.80795 c 3.60945,4.55728 9.26178,9.35828 14.01828,11.90678 4.52764,2.42594 13.52726,5.44638 16.42766,5.51341 l 1.60405,0.0348 z m 19.67417,-0.14519 c 2.62471,-0.91282 6.48116,-2.69366 8.56991,-3.95749 4.07734,-2.46708 10.77416,-8.5736 13.19807,-12.0347 l 1.48832,-2.12518 -4.53309,0.60735 c -5.58862,0.74877 -12.10831,3.06672 -17.29796,6.14989 -3.94816,2.34558 -14.06936,11.85339 -14.06936,13.2167 0,1.11121 7.11398,0.0667 12.64411,-1.85657 z m 60.77977,0.42396 c -2.37697,-3.33815 -10.11101,-10.18741 -14.01299,-12.40992 -6.46392,-3.68173 -18.58476,-6.96329 -18.58476,-5.03156 0,0.44689 2.41325,3.2181 5.36277,6.15824 4.11903,4.10603 6.72685,6.01779 11.24449,8.24324 5.55298,2.73551 12.21143,4.82403 15.78941,4.95265 l 1.60406,0.0572 z m 15.41834,0.60573 c 8.01525,-2.04999 14.40857,-5.73403 20.64725,-11.8977 2.95752,-2.92198 5.37732,-5.64841 5.37732,-6.05873 0,-1.11801 -2.55717,-0.90763 -8.31752,0.68425 -9.92429,2.74253 -18.00929,8.04615 -24.22019,15.88809 l -2.177,2.74867 h 1.67735 c 0.92259,0 4.07832,-0.61406 7.01279,-1.36458 z m -168.09487,-2.84697 c 6.01776,-7.89104 16.61448,-14.36907 27.70097,-16.9344 1.95482,-0.45236 1.85056,-0.5333 -1.78777,-1.38849 -8.91848,-2.0963 -17.27747,-7.17752 -24.31882,-14.78283 -2.49154,-2.69107 -4.68466,-4.89286 -4.87363,-4.89286 -0.46324,0 -3.00472,6.52058 -4.04558,10.3795 -1.05877,3.92539 -1.04042,16.64412 0.0285,20.75907 1.08916,4.18722 3.55991,10.37953 4.14145,10.37953 0.25811,0 1.67722,-1.58378 3.15346,-3.51952 z m 239.55182,-3.05416 c 1.70955,-4.89979 1.9335,-6.52944 1.94947,-14.18538 0.0158,-7.67958 -0.19675,-9.27039 -1.89573,-14.18535 -1.05256,-3.04465 -2.16671,-5.93461 -2.47594,-6.42214 -0.39792,-0.62731 -1.50695,0.31631 -3.79462,3.22788 -5.75149,7.32078 -15.50893,13.57429 -24.90204,15.95968 -4.97086,1.26237 -4.95334,1.46298 0.21794,2.48925 7.19018,1.42699 17.66106,8.07178 23.96572,15.2085 2.18535,2.47376 4.2052,4.26048 4.48861,3.97052 0.28342,-0.28974 1.38444,-3.01829 2.44672,-6.06296 z m -86.10292,1.21097 c -1.73643,-4.36458 -1.85799,-5.37397 -1.85422,-15.39635 0.003,-9.89235 0.14423,-11.08915 1.80722,-15.4068 l 1.80314,-4.68127 -4.10201,4.47659 c -6.57564,7.17619 -15.86953,12.7049 -24.45053,14.54515 l -4.15184,0.89039 2.7679,0.51404 c 9.7798,1.81646 23.57258,10.5791 28.50785,18.1113 1.72062,2.62597 1.64259,1.89883 -0.32751,-3.05305 z m 22.33336,-10.34006 c 5.05038,-2.60066 6.83524,-3.23987 13.1474,-4.70851 1.88681,-0.43888 1.62597,-0.59831 -2.86333,-1.74836 -8.7546,-2.24285 -18.09065,-7.92165 -24.10617,-14.66301 -1.79504,-2.01163 -3.03575,-3.03471 -2.75714,-2.27356 2.47866,6.77166 3.21172,10.89502 3.25996,18.33715 0.0459,7.0751 -0.17303,8.61001 -1.97386,13.83939 l -2.02545,5.88172 5.89143,-5.90712 c 4.4064,-4.41813 7.28678,-6.62568 11.42716,-8.7577 z m -97.73828,11.03203 c 2.2055,-6.35546 2.69553,-9.42089 2.6756,-16.73743 -0.0158,-5.98379 -0.3598,-8.45935 -1.81159,-13.05501 -0.98531,-3.11903 -2.06691,-5.67098 -2.4036,-5.67098 -0.95795,0 -3.22538,6.74452 -4.17188,12.40944 -0.52461,3.14001 -0.67793,7.1463 -0.39356,10.28451 0.47128,5.20085 3.47258,16.05628 4.43923,16.05628 0.2888,0 1.03846,-1.47905 1.6658,-3.28681 z m 12.75078,-8.42618 c 4.72885,-3.10448 11.69739,-6.08953 17.17457,-7.35693 1.92511,-0.4454 1.77433,-0.5508 -2.0759,-1.44919 -7.14678,-1.66767 -15.04762,-6.08492 -21.14743,-11.82322 -3.02133,-2.84223 -5.48933,-5.05753 -5.48443,-4.92285 0.006,0.13475 0.64917,2.26889 1.43166,4.74265 2.21015,6.98701 2.05958,20.17486 -0.30809,26.983 l -1.75462,5.04541 3.473,-3.89653 c 1.91012,-2.14315 5.82117,-5.43822 8.69121,-7.32234 z m 67.9658,6.69623 c 2.14261,-6.48755 2.92144,-13.4243 2.16931,-19.3212 -0.76842,-6.02466 -3.30231,-14.60671 -4.15677,-14.07863 -0.33225,0.20561 -1.32899,2.47183 -2.21495,5.03659 -2.31424,6.69955 -2.33101,20.36327 -0.0338,27.67127 0.86726,2.7592 1.85388,5.01676 2.19246,5.01676 0.33861,0 1.25839,-1.94612 2.04395,-4.32479 z m -86.56824,-0.91386 c -1.27016,-3.458 -1.50758,-5.57129 -1.51043,-13.44451 -0.003,-8.1303 0.21636,-9.9733 1.69126,-14.21357 l 1.69462,-4.87201 -3.70118,3.99775 c -6.32842,6.83544 -15.59804,12.18913 -24.30785,14.03906 l -3.78525,0.804 4.77092,1.19839 c 9.12177,2.29131 20.07146,8.97959 24.4845,14.95554 0.88986,1.20499 1.74222,2.06653 1.89418,1.91455 0.15183,-0.15215 -0.40191,-2.12259 -1.23077,-4.3792 z m -38.16464,-20.19116 c -2.12446,-5.23846 -2.17491,-5.61946 -2.17491,-16.4343 0,-10.81478 0.0506,-11.19585 2.17491,-16.43421 l 2.17487,-5.36281 h -2.03829 c -4.00737,0 -12.09335,2.24586 -17.66989,4.9077 -6.04626,2.88607 -12.56978,8.31375 -16.52069,13.74545 l -2.2431,3.08389 1.98661,2.88741 c 6.93801,10.08406 22.33927,18.66092 33.9645,18.91457 l 2.52086,0.0547 z m 16.68887,2.86637 c 6.31614,-2.10105 12.17341,-5.9193 17.81058,-11.61031 6.16855,-6.22751 6.05291,-6.83179 -1.00755,-5.26611 -8.44445,1.87254 -18.70379,7.98682 -23.94782,14.27208 -1.5468,1.85392 -3.01396,3.71102 -3.26036,4.12682 -0.56744,0.95757 5.7116,0.0399 10.40515,-1.52248 z m 63.09803,0.59346 c -9.88302,-11.31784 -17.62266,-15.95898 -30.30897,-18.17507 -2.41819,-0.42243 -4.554,-0.61073 -4.74625,-0.41845 -0.19232,0.19264 2.40901,3.12628 5.78059,6.52007 4.97557,5.00828 7.23797,6.71331 12.0119,9.05241 5.61804,2.75272 12.55365,4.75077 16.90086,4.86891 l 2.02356,0.0547 z m 16.79218,-0.63322 c 6.57172,-2.04402 14.44099,-7.17199 19.20011,-12.51164 1.91753,-2.15141 3.48641,-4.20317 3.48641,-4.55953 0,-0.91127 -5.73033,-0.0348 -10.82702,1.65476 -7.6742,2.54502 -17.17828,9.53273 -21.80705,16.03328 l -1.39187,1.95469 3.00061,-0.45584 c 1.65033,-0.25052 5.40282,-1.20275 8.33881,-2.11598 z m 62.17547,-0.17271 c -3.18771,-4.0248 -9.47906,-9.56987 -13.47495,-11.87658 -5.94472,-3.43171 -20.62374,-7.46632 -19.37367,-5.32494 2.96755,5.08334 11.68198,12.59629 18.00205,15.52013 3.80619,1.76078 12.74232,4.28999 15.37696,4.35221 1.59792,0.0399 1.59229,0.009 -0.53039,-2.67082 z m 13.42683,1.66302 c 6.03554,-1.27848 13.26567,-4.70178 18.84249,-8.92146 4.64721,-3.51633 10.86039,-11.12628 10.13711,-12.41608 -5.10669,-9.10713 -17.5049,-17.7341 -28.9796,-20.16475 -6.64059,-1.40664 -8.22516,-1.37207 -7.56884,0.16512 3.9518,9.25532 4.06877,9.84699 4.06877,20.58607 0,10.73903 -0.11704,11.33072 -4.06877,20.58604 -0.65632,1.53716 0.92825,1.57173 7.56884,0.16512 z m -164.41036,-4.2893 c 5.83399,-7.15846 16.77036,-13.82068 25.61131,-15.60193 l 4.41864,-0.89026 -4.41864,-0.91083 c -9.34272,-1.92593 -20.05033,-8.52742 -26.10568,-16.09474 -1.76604,-2.20701 -3.47261,-3.75116 -3.79234,-3.4314 -0.31976,0.3197 -1.38067,2.7203 -2.35761,5.33456 -2.36447,6.32737 -3.00589,19.12154 -1.29369,25.80493 1.45438,5.67699 3.75236,10.85738 4.45227,10.03683 0.30113,-0.35313 1.86973,-2.26429 3.48574,-4.24716 z m 157.56338,-1.93053 c 3.4921,-10.30516 2.95519,-22.8405 -1.41835,-33.11394 l -1.13556,-2.66737 -5.18412,5.58024 c -3.07824,3.31341 -7.20824,6.83793 -10.16697,8.67643 -4.8878,3.03721 -14.03805,6.59763 -17.21431,6.69828 -0.88434,0.0285 0.5718,0.60672 3.23589,1.28604 9.87248,2.51731 16.85936,6.77783 24.28387,14.80804 2.62834,2.8428 4.99139,4.96602 5.25124,4.71835 0.26001,-0.24799 1.31659,-2.94139 2.34831,-5.98607 z m -79.53518,-0.51935 c 1.62917,-4.93594 1.88425,-6.83281 1.88425,-14.01239 0,-7.17955 -0.25495,-9.07639 -1.88425,-14.01233 -1.03631,-3.13985 -2.15969,-5.70879 -2.49638,-5.70879 -0.69886,0 -3.16395,6.27727 -4.16037,10.59422 -0.86255,3.73692 -0.86255,14.51688 0,18.25386 0.99642,4.31692 3.46151,10.59415 4.16037,10.59415 0.33669,0 1.46007,-2.56893 2.49638,-5.70872 z m -7.09547,-0.58404 c -1.66286,-4.469 -2.07287,-17.73258 -0.72525,-23.4619 0.58189,-2.47376 1.2929,-5.12054 1.58005,-5.88172 0.29828,-0.79059 -1.38067,0.36857 -3.91602,2.70432 -7.5044,6.9129 -15.55679,11.20941 -23.47094,12.52341 l -3.08694,0.51259 5.16284,1.30681 c 8.49819,2.15112 16.53312,6.85755 22.76072,13.33194 1.30603,1.3578 2.47705,2.36624 2.60228,2.24105 0.12526,-0.12526 -0.28278,-1.59963 -0.90674,-3.2765 z m 14.61303,-2.5809 c 4.85889,-4.32811 13.4163,-8.66106 19.56375,-9.90591 l 4.34042,-0.87891 -4.92225,-1.15663 c -6.93383,-1.62939 -14.24693,-5.56395 -20.04112,-10.78255 -2.73108,-2.45971 -5.05592,-4.37474 -5.16632,-4.25549 -0.11039,0.11925 0.37098,2.39645 1.06962,5.06054 2.04189,7.78608 1.54313,19.14419 -1.15477,26.2948 -0.4819,1.27737 -0.41886,1.30454 0.81837,0.35313 0.73729,-0.5669 3.20881,-2.69496 5.4923,-4.72901 z m -40.31614,-13.30505 c 8.51927,-1.65767 17.62602,-7.14232 24.33511,-14.65634 4.51433,-5.05585 4.21772,-5.34408 -3.79851,-3.69134 -9.93761,2.04886 -20.2752,8.59916 -27.02912,17.12675 l -2.17006,2.73987 2.69236,-0.4404 c 1.48079,-0.2423 4.1674,-0.72756 5.97022,-1.07835 z m 66.21153,-0.0642 c -2.48992,-4.65246 -11.85602,-12.35035 -18.71919,-15.38512 -3.9171,-1.7321 -14.26522,-4.29743 -14.87507,-3.68768 -0.66011,0.66018 8.80043,10.0847 12.76428,12.71576 5.58258,3.70548 14.23802,6.89629 21.08076,7.77134 0.29891,0.0399 0.18599,-0.59824 -0.25084,-1.4143 z m 14.93074,-0.37059 c 9.28345,-2.26778 18.29183,-8.21633 24.70482,-16.31341 l 2.2092,-2.78934 -3.42346,0.5042 c -6.1818,0.91047 -14.33455,4.04742 -19.50299,7.50428 -4.37812,2.92826 -10.42834,8.87894 -12.14339,11.94351 -0.61681,1.10219 0.75033,0.95985 8.15582,-0.84924 z m -96.52012,-1.5933 c -3.32774,-4.20162 -9.402,-9.34946 -13.79454,-11.69065 -4.049,-2.15811 -16.038,-5.94372 -17.39312,-5.49202 -1.23561,0.412 4.61198,7.16016 9.23847,10.66143 6.77897,5.13028 16.0893,9.06142 21.82485,9.21525 l 2.30706,0.062 z m 167.95509,-4.50977 c 1.69857,-4.91336 1.91373,-6.52203 1.91373,-14.30764 v -8.7719 l -4.31651,-8.52733 c -2.37409,-4.69001 -5.49537,-10.07679 -6.93621,-11.97059 -5.9409,-7.8086 -16.60695,-13.36894 -29.13668,-15.18929 -2.71178,-0.39404 -2.97148,-0.31221 -2.52212,0.79306 5.63265,13.85553 6.00071,27.35979 1.06613,39.11756 l -1.96026,4.67078 h 2.59001 c 3.8315,0 12.47479,2.38648 17.10065,4.72157 5.92103,2.98894 12.1344,7.89455 15.91574,12.56599 2.21046,2.73076 3.49156,3.81888 3.84368,3.26476 0.29037,-0.45736 1.38928,-3.32227 2.44184,-6.36697 z M 308.1586,346.3576 c 5.24877,-5.22492 7.56766,-6.97584 12.34453,-9.32111 5.95789,-2.92514 13.7471,-5.00455 18.74617,-5.00455 h 2.74042 l -1.13177,-2.18857 c -2.07657,-4.01566 -3.70299,-9.62706 -4.47776,-15.44925 -0.94183,-7.07744 -0.0316,-14.13319 2.8434,-22.01457 l 1.96908,-5.39994 -3.25208,0.43841 c -11.3737,1.53402 -20.64478,5.76632 -27.65387,12.62415 -5.64138,5.5197 -9.08309,10.99072 -11.56482,18.38368 -1.53102,4.56076 -1.81754,6.64002 -1.82551,13.2471 -0.006,4.31047 0.35364,9.18545 0.79737,10.83338 0.94264,3.5007 3.42798,10.28448 3.76785,10.28448 0.12874,0 3.14245,-2.89502 6.69699,-6.4334 z m 150.15108,1.07066 c -1.65859,-4.30553 -1.79963,-5.50961 -1.80339,-15.39632 -0.006,-10.03437 0.11735,-11.03763 1.88098,-15.56929 1.03678,-2.66408 1.41196,-4.22097 0.83374,-3.45983 -6.59823,8.68587 -17.16818,15.63922 -28.00289,18.42151 l -3.11385,0.79958 4.05599,0.94343 c 8.51094,1.97978 18.11602,7.90274 24.36077,15.02229 1.87757,2.14052 3.453,3.8959 3.50092,3.90067 0.0478,0.006 -0.72262,-2.0931 -1.71227,-4.66204 z m -80.98123,-1.03795 c -1.52021,-4.36288 -1.74899,-6.18927 -1.75542,-14.01239 -0.006,-8.91658 0.70149,-12.47539 4.12182,-20.69492 0.51413,-1.23555 0.30113,-1.29065 -3.33609,-0.86318 -11.04234,1.2978 -22.17764,7.80237 -29.7442,17.37483 l -2.7121,3.43108 5.42654,1.17478 c 10.85992,2.35107 17.34089,5.82608 24.45573,13.11286 2.85437,2.92337 5.21271,5.35534 5.24077,5.40447 0.0285,0.05 -0.73562,-2.16833 -1.69705,-4.92753 z m 6.53787,-0.82922 c 1.66583,-5.34287 1.79748,-6.60832 1.53001,-14.70435 -0.22806,-6.90537 -0.64654,-9.88808 -1.89769,-13.5291 -0.88277,-2.56893 -1.85904,-4.6708 -2.16953,-4.6708 -0.95365,0 -3.94578,10.51055 -4.44141,15.60145 -0.2578,2.64637 -0.13475,7.19296 0.27329,10.10342 0.78392,5.59251 3.21921,13.04536 4.26267,13.04536 0.34092,0 1.44008,-2.63068 2.44257,-5.84598 z m 80.91655,-2.47417 c 1.34196,-5.17874 1.33295,-16.50968 -0.019,-21.80808 -1.32459,-5.19744 -2.41245,-7.93004 -3.15693,-7.93004 -1.42344,0 -3.62194,9.52315 -3.92595,17.00579 -0.31938,7.86064 0.46963,12.84792 2.96983,18.77249 l 1.10817,2.62597 0.9943,-2.3385 c 0.54685,-1.28619 1.45944,-4.13361 2.02795,-6.32763 z m 11.52108,-3.16904 c 5.49885,-3.65563 14.16131,-6.93327 20.11265,-7.61002 l 3.95919,-0.45037 -2.22928,-3.11717 c -5.57179,-7.79089 -15.27195,-14.27113 -25.14003,-16.79497 -4.91462,-1.25696 -9.95779,-1.79276 -9.95779,-1.05794 0,0.1686 0.91294,3.04898 2.02873,6.40066 3.46999,10.42354 3.45769,19.70824 -0.0399,29.87338 -0.71341,2.07359 -1.29714,3.93016 -1.29714,4.12577 0,0.19548 1.72388,-1.54943 3.83087,-3.87765 2.10696,-2.32832 6.03655,-5.69959 8.73246,-7.49185 z m -76.3246,-2.59551 c 2.69293,-1.41512 7.16452,-3.15393 9.93688,-3.86405 4.52784,-1.15979 4.82944,-1.33794 2.96471,-1.75146 -9.06183,-2.00963 -18.02318,-6.92488 -24.58076,-13.4824 l -4.58983,-4.5899 1.67054,4.80366 c 2.28119,6.55951 2.39279,19.88474 0.22395,26.74112 -0.78252,2.47382 -1.42676,4.60802 -1.43169,4.7427 -0.006,0.13475 2.44782,-2.06625 5.45048,-4.89096 3.18047,-2.99191 7.5033,-6.20983 10.35569,-7.70871 z m 18.79046,-8.04498 c -2.61275,-4.88198 -13.41292,-13.24742 -20.55109,-15.91812 -4.30433,-1.61047 -13.0942,-3.27732 -13.76181,-2.60967 -0.73112,0.73112 5.27278,7.34646 9.72866,10.71937 6.85384,5.18802 16.38641,9.02379 22.69854,9.13352 2.40154,0.0399 2.55827,-0.0683 1.8857,-1.3251 z m 16.80047,-0.81366 c 2.36361,-0.76962 6.01007,-2.36124 8.10327,-3.53691 4.39416,-2.46797 16.03506,-13.70111 14.6831,-14.16881 -1.8515,-0.64054 -11.50279,2.11895 -16.95448,4.84759 -4.25941,2.13192 -7.02237,4.18524 -11.04597,8.20881 -2.9512,2.9512 -5.36581,5.7314 -5.36581,6.17829 0,1.05395 4.7601,0.36607 10.57989,-1.52897 z m -74.24099,-14.32541 c 5.74672,-2.78618 12.58275,-4.94135 15.67383,-4.94135 2.54088,0 2.39424,-0.93711 -0.77937,-4.98057 -6.94763,-8.85202 -18.17175,-14.9129 -30.92998,-16.70181 l -2.54215,-0.35661 -1.69879,4.27276 c -2.44994,6.16197 -3.25047,10.69844 -3.25047,18.41926 0,6.77739 1.41016,13.36211 3.89676,18.19598 l 0.97529,1.89589 6.38658,-6.47604 c 5.3146,-5.38906 7.3738,-6.95469 12.2683,-9.32767 z m 142.93491,9.56427 c 3.47846,-10.02931 2.91593,-23.55028 -1.36919,-32.91027 l -1.72369,-3.76498 -2.97303,0.42044 c -12.39239,1.75307 -19.55559,5.30246 -28.16421,13.95536 -6.72488,6.75939 -7.08633,7.75717 -2.81968,7.78311 3.16269,0.019 11.99036,2.83012 16.92804,5.39023 3.51997,1.82506 6.56761,4.26181 11.08279,8.86142 3.42523,3.48931 6.45725,6.13815 6.73782,5.88636 0.28057,-0.25178 1.31609,-2.78159 2.30115,-5.62183 z m -79.11179,-1.68674 c 1.21018,-3.89116 1.50663,-6.51824 1.48547,-13.16486 -0.0222,-7.23623 -0.27583,-9.03742 -1.96662,-14.01233 -1.06705,-3.13985 -2.17645,-5.70879 -2.46528,-5.70879 -0.73809,0 -2.62208,4.92139 -3.80613,9.9423 -1.15173,4.88378 -1.30356,14.57422 -0.29955,19.1204 0.37821,1.71262 1.35765,4.94423 2.17649,7.18129 1.35951,3.71415 1.57024,3.95603 2.42628,2.78533 0.51562,-0.70513 1.61784,-3.46961 2.44937,-6.14334 z m -7.86659,-0.86743 c -2.41824,-8.72091 -1.49685,-21.73691 2.13923,-30.21955 0.79657,-1.85834 1.33506,-3.49203 1.19661,-3.63051 -0.13823,-0.13855 -2.98707,0.22553 -6.33028,0.80834 -6.97217,1.21581 -14.77825,4.56104 -20.20599,8.65897 -3.60553,2.72226 -10.6131,10.49714 -10.6131,11.7753 0,0.3606 1.1677,0.66059 2.59488,0.66622 8.228,0.0348 18.85932,4.65448 26.83076,11.66478 3.03534,2.66936 5.5548,4.87115 5.59884,4.89285 0.044,0.019 -0.50089,-2.05572 -1.21095,-4.6164 z m 22.74694,-6.6186 c 4.88466,-2.56682 13.65363,-5.33285 16.90646,-5.33285 1.03179,0 2.03915,-0.2638 2.23858,-0.58666 0.19928,-0.32271 -1.31295,-2.61807 -3.36086,-5.10084 -4.19703,-5.08828 -11.98033,-10.66317 -18.16096,-13.00813 -3.66455,-1.39032 -13.37008,-3.51095 -13.9434,-3.04657 -0.1319,0.1066 0.54273,2.16226 1.49923,4.56753 4.01575,10.0984 4.25359,21.20321 0.70082,32.72387 -0.24957,0.80922 1.58011,-0.48826 4.49908,-3.19097 2.70581,-2.50517 7.03528,-5.66656 9.62105,-7.02538 z m -55.91468,-9.89023 c 2.76549,-4.06029 10.12819,-10.33815 15.33119,-13.07224 5.24375,-2.75553 11.41688,-4.75077 17.12912,-5.5364 1.96253,-0.26981 3.56823,-0.7471 3.56823,-1.06034 0,-1.45792 -10.64558,-11.6699 -14.6179,-14.02258 -5.16088,-3.05659 -13.16942,-5.74573 -19.1143,-6.41834 -4.12713,-0.46685 -4.22421,-0.43891 -5.23148,1.50973 -0.56446,1.09195 -1.73656,4.32084 -2.60465,7.17519 -1.84556,6.06837 -2.2139,18.31168 -0.70749,23.51567 1.42243,4.91373 3.58167,10.39123 4.09426,10.38605 0.25811,-0.003 1.22695,-1.11716 2.15302,-2.47674 z m 79.98912,-5.32623 c 3.00225,-9.50382 2.25623,-22.1673 -1.87112,-31.76158 l -1.49015,-3.46388 -3.86538,0.46833 c -11.55673,1.40048 -22.88868,7.77789 -30.07607,16.9263 l -3.23513,4.11773 2.61345,0.40899 c 13.05152,2.04307 23.9933,7.99349 31.10747,16.91713 3.95028,4.95498 4.14237,4.85316 6.81693,-3.61328 z m 13.44796,-6.36252 c 5.24029,-3.18334 11.61758,-5.53146 17.84022,-6.56894 l 5.01394,-0.83595 -3.28402,-4.18153 c -4.09076,-5.20873 -9.69247,-9.56765 -16.23693,-12.6346 -4.56013,-2.13704 -13.5556,-4.51081 -17.09394,-4.51081 -1.38425,0 -1.38441,0.009 -0.0395,3.14719 2.67936,6.25069 3.67527,11.5038 3.66692,19.34179 -0.006,6.56619 -0.28405,8.42598 -2.01763,13.54023 l -2.00954,5.92856 5.07452,-5.39459 c 2.79102,-2.96699 6.87968,-6.49113 9.08597,-7.83135 z m -100.42492,6.84511 c -1.27502,-3.47425 -1.50172,-5.55556 -1.5009,-13.77993 6.9e-4,-9.18472 0.11482,-9.99069 2.19205,-15.52873 1.20509,-3.21266 2.19104,-5.95636 2.19104,-6.09709 0,-0.5713 -6.90588,0.79635 -11.91188,2.359 -8.33182,2.60079 -16.69293,8.71044 -22.28635,16.28503 l -1.88599,2.55401 2.6458,0.42146 c 5.07901,0.80906 14.0115,3.96723 18.31368,6.4749 2.38437,1.38988 6.37365,4.55396 8.86506,7.03135 2.49137,2.4774 4.60843,4.47467 4.70455,4.43835 0.0962,-0.0348 -0.50104,-1.90759 -1.32706,-4.15841 z m -57.49805,-8.49775 c 5.42753,-2.73699 12.19113,-4.74049 17.90501,-5.30378 l 4.76295,-0.46931 2.42188,-3.51412 c 3.2585,-4.72796 11.30411,-11.47457 16.99022,-14.247 5.04403,-2.45939 13.71974,-4.92873 17.31647,-4.92873 1.82089,0 2.53655,-0.45583 3.71896,-2.36912 2.24329,-3.62969 12.51243,-12.99326 16.3408,-14.8998 1.8771,-0.9348 5.28126,-2.41445 7.56476,-3.28811 l 4.1518,-1.58849 -4.1518,0.38954 c -37.25208,3.49364 -74.2524,24.63241 -96.63175,55.20686 l -3.46511,4.73404 4.54548,-3.85608 c 2.50004,-2.12085 6.33869,-4.76035 8.53033,-5.86555 z m 207.79461,0.42645 c -4.53005,-5.75301 -15.77865,-16.89678 -21.82203,-21.61867 -13.03135,-10.18181 -27.07907,-17.69966 -42.55608,-22.77452 -9.3184,-3.05549 -22.30714,-5.96228 -26.50294,-5.93116 -2.01523,0.0158 -1.86267,0.16101 1.70104,1.62671 8.2386,3.38869 15.80105,9.27107 20.96786,16.30967 2.38931,3.2549 2.47993,3.30228 7.13995,3.73541 5.42885,0.50455 11.83796,2.46408 17.64152,5.39371 4.25887,2.14985 14.06685,10.97657 16.41045,14.7686 1.29129,2.08937 1.73912,2.27419 7.43791,3.0701 6.82041,0.95258 13.38777,3.32338 18.51935,6.68547 1.90288,1.24678 3.56415,2.28947 3.69169,2.31715 0.12748,0.0285 -1.05541,-1.58441 -2.62872,-3.58247 z m -96.95904,-16.29952 c 5.81602,-5.6571 14.50859,-10.07878 23.13986,-11.77065 l 6.12822,-1.20094 -2.72181,-3.44336 c -9.5017,-12.02056 -23.27034,-18.30248 -38.19061,-17.42439 -9.50628,0.55946 -17.01486,3.44079 -25.40817,9.75016 -3.67325,2.76126 -9.94296,9.72537 -9.94296,11.0442 0,0.25052 0.88435,0.45489 1.96522,0.45489 3.49017,0 12.77846,2.70132 17.86594,5.19595 5.35607,2.62632 14.25927,10.3443 16.94411,14.68845 l 1.55199,2.51121 2.0913,-2.72121 c 1.15018,-1.49664 4.1098,-4.6845 6.57691,-7.08421 z"
       id="path232"
       sodipodi:nodetypes="cssscsssssssscssscsscssscsssscsssssssscssssssscsscsscsssssssssssssscscsssscscccssssscsccsssscsssssssssssssssssssssssssssssssssssssccssssssssssssscsscssssscsscsscssssssccsssssssssssssssssssssssscssssscsscssssssssscsssscsscscsssssssscssscssssssssssscsscssscsscssssssssscscscssssssscsscssssssssssssssssssscsssssssssssssssssssssssssssscssssscsssssssscsssssssscssssssscsssscssccsscsssccsssscsssssssssscsssssscssssssssssssscsssssssssscscsscsssssssscccssscsssssssssscsscsssssssssscscsscssssssscssscsscssssssssssssscsssssscsscsssscsscscsssssscssssssscscsssssccsscsssssssssscsssssscssssssssssscssssssssssscsssscsssscccsscssscscssssssssscssscssscssssscssscsscsssssscssssssssssssccssscscccscsssssssccsssscsscssscsssccssssssssssscssscsssscsscssssscssssssssscsssssssssccscscssssssssssssssscsscssssscsssscscssscsssscssssssscsssssscsscsscssssssssssscsscssssssscss"
       inkscape:export-filename="/Users/xunorus/xunserver/iurisnaturalis/design/solologo.png"
       inkscape:export-xdpi="96"
       inkscape:export-ydpi="96" />
    <text
       xml:space="preserve"
       style="font-weight:200;font-size:105.074px;line-height:1.25;font-family:Montserrat;-inkscape-font-specification:'Montserrat Ultra-Light';stroke-width:1.3646;stroke:#6f42c1;stroke-opacity:1;fill:#6f42c1;fill-opacity:1"
       x="15.531695"
       y="186.62944"
       id="text995"
       inkscape:export-filename="/Users/xunorus/xunserver/iusdappv2/design/iusnaturalis.png"
       inkscape:export-xdpi="96"
       inkscape:export-ydpi="96"><tspan
         sodipodi:role="line"
         id="tspan993"
         style="font-style:normal;font-variant:normal;font-weight:normal;font-stretch:normal;font-size:105.074px;font-family:Montserrat;-inkscape-font-specification:'Montserrat, @wght=300';font-variant-ligatures:normal;font-variant-caps:normal;font-variant-numeric:normal;font-variant-east-asian:normal;font-variation-settings:'wght' 300;stroke-width:1.3646;stroke:#6f42c1;stroke-opacity:1;fill:#6f42c1;fill-opacity:1"
         x="15.531695"
         y="186.62944">IUS NATURALIS</tspan></text>
  </g>
</svg>
