<?xml version="1.0" encoding="UTF-8" standalone="no"?>
<!-- Created with Inkscape (http://www.inkscape.org/) -->

<svg
   width="2600"
   height="1400"
   viewBox="0 0 687.91665 370.41668"
   version="1.1"
   id="svg5"
   inkscape:version="1.1.2 (b8e25be8, 2022-02-05)"
   sodipodi:docname="iusnaturalisBANNER.svg"
   inkscape:export-filename="/Users/xunorus/iusnaturalis.png"
   inkscape:export-xdpi="96"
   inkscape:export-ydpi="96"
   xmlns:inkscape="http://www.inkscape.org/namespaces/inkscape"
   xmlns:sodipodi="http://sodipodi.sourceforge.net/DTD/sodipodi-0.dtd"
   xmlns="http://www.w3.org/2000/svg"
   xmlns:svg="http://www.w3.org/2000/svg">
  <sodipodi:namedview
     id="namedview7"
     pagecolor="#ffffff"
     bordercolor="#666666"
     borderopacity="1.0"
     inkscape:pageshadow="2"
     inkscape:pageopacity="0.0"
     inkscape:pagecheckerboard="0"
     inkscape:document-units="mm"
     showgrid="true"
     inkscape:zoom="0.11224971"
     inkscape:cx="-654.79012"
     inkscape:cy="494.43336"
     inkscape:window-width="1280"
     inkscape:window-height="719"
     inkscape:window-x="0"
     inkscape:window-y="1145"
     inkscape:window-maximized="1"
     inkscape:current-layer="layer1"
     units="px">
    <inkscape:grid
       type="xygrid"
       id="grid824" />
  </sodipodi:namedview>
  <defs
     id="defs2" />
  <g
     inkscape:label="Layer 1"
     inkscape:groupmode="layer"
     id="layer1">
    <path
       style="fill:#6f42c1;fill-opacity:1;stroke:#6f42c1;stroke-width:2.989;stroke-miterlimit:4;stroke-dasharray:none;stroke-opacity:1"
       d="m 566.03587,251.68325 c -13.75137,-2.48316 -24.46953,-7.87232 -34.1235,-17.15758 -9.58605,-9.21993 -15.72717,-20.29668 -18.58362,-33.51938 -0.82677,-3.82725 -0.86732,-4.43435 -0.85765,-12.83989 0.0103,-8.43801 0.0486,-8.9939 0.892,-12.74963 2.30086,-10.24565 6.99335,-20.12875 13.06362,-27.51396 2.3186,-2.82083 8.19695,-8.56183 10.73486,-10.48401 7.67739,-5.81472 16.83105,-9.98784 26.46124,-12.06356 3.80455,-0.82004 4.47565,-0.86589 12.67946,-0.86589 8.20382,0 8.87492,0.0458 12.67945,0.86589 9.43668,2.03401 18.11427,5.92711 25.74621,11.55074 3.32585,2.45068 9.30551,8.28136 11.93586,11.63848 6.16596,7.86965 10.45485,17.08936 12.60796,27.10291 0.81387,3.78505 0.8641,4.50839 0.86928,12.51903 0.006,9.8134 -0.37798,12.48303 -2.90772,20.19781 -6.28075,19.15387 -21.45732,34.39851 -40.62491,40.80714 -7.11912,2.38023 -10.28429,2.87892 -19.18324,3.0224 -6.81374,0.10985 -8.33007,0.0418 -11.3893,-0.5105 z m 17.57532,-0.66329 c 3.67003,-1.23229 7.90018,-4.39971 10.12515,-7.58155 l 0.72227,-1.03284 -0.89711,-0.17112 c -6.02578,-1.14925 -9.56475,-2.85284 -12.96113,-6.23921 -1.34158,-1.33762 -2.68456,-2.79299 -2.9844,-3.23413 l -0.54515,-0.80206 -1.00099,1.2833 c -4.05425,5.1977 -8.70074,7.84997 -15.7318,8.97995 -1.06632,0.17134 -1.16827,0.26489 -0.87871,0.80591 0.71119,1.32888 3.95772,4.48599 5.9434,5.77971 3.73925,2.43621 5.33387,2.84598 11.15032,2.86518 4.31262,0.0132 5.35882,-0.0826 7.05815,-0.65315 z m -17.37238,-0.8508 c -2.4709,-1.46173 -5.37274,-4.04373 -6.93223,-6.16818 -1.03403,-1.40861 -1.32374,-1.60176 -2.66934,-1.77971 -2.29838,-0.3039 -5.76926,-1.38017 -8.05867,-2.49883 -2.3195,-1.13334 -6.90387,-5.25282 -7.89618,-7.0954 -0.58583,-1.08784 -0.70648,-1.14922 -2.25915,-1.14922 -3.43038,0 -8.08895,-1.65612 -11.50944,-4.09167 l -1.58548,-1.12891 1.09996,1.4072 c 1.84996,2.3667 7.38833,7.94416 9.93124,10.00139 8.04139,6.50546 17.29475,10.79002 28.23264,13.07247 3.83863,0.80102 3.917,0.77394 1.64665,-0.56914 z m 23.94327,0.0513 c 8.78888,-1.97119 16.89097,-5.69189 24.22503,-11.12479 2.66049,-1.97083 9.38251,-8.30456 10.55722,-9.94737 l 0.63344,-0.88584 -1.09696,0.64722 c -1.81052,1.06823 -5.70886,2.26946 -8.02294,2.47216 l -2.17337,0.19032 -1.58539,2.01739 c -3.81196,4.85063 -8.67723,7.63464 -14.86696,8.50726 l -2.62116,0.36951 -1.21613,1.72346 c -1.31326,1.86111 -4.17348,4.39855 -6.48506,5.75321 -2.32308,1.36142 -2.22624,1.37157 2.65228,0.27739 z m -33.41617,-10.88615 c -1.87843,-4.69224 -1.88509,-11.01467 -0.0164,-15.71674 0.14021,-0.3529 -0.91322,0.46732 -2.34105,1.82272 -3.16691,3.00628 -6.7443,4.87712 -10.84754,5.67285 -1.48919,0.28879 -2.70807,0.62376 -2.70867,0.74437 -4.5e-4,0.1207 1.13624,1.41997 2.52626,2.88744 2.83415,2.99209 5.52956,4.76238 8.75284,5.74872 0.5948,0.18198 1.27323,0.36118 1.94319,0.51956 1.64686,0.38933 3.24251,0.65311 3.41903,0.52486 0.066,-0.0478 -0.26146,-1.03959 -0.72752,-2.20378 z m 7.1978,1.39947 c 4.37633,-1.13566 9.2346,-4.5128 11.81547,-8.2133 l 0.72722,-1.04269 h -1.25384 c -4.81279,0 -11.78461,-3.60408 -15.16388,-7.83901 -0.78452,-0.98315 -1.56547,-1.74119 -1.73544,-1.68454 -0.16999,0.0566 -0.73552,1.32033 -1.25675,2.80815 -0.84457,2.41081 -0.94832,3.12391 -0.95364,6.55498 -0.006,3.9809 0.34908,5.82737 1.71513,8.91556 l 0.66169,1.49583 1.51233,-0.18362 c 0.83177,-0.10104 2.60104,-0.46608 3.93171,-0.8114 z m 36.52099,0.17091 c 3.45769,-0.76628 6.89761,-2.78283 9.90529,-5.80666 2.81743,-2.83258 3.20582,-3.6203 1.78503,-3.6203 -1.63717,0 -5.08244,-1.02288 -7.6401,-2.26833 -2.80944,-1.36805 -5.30285,-3.37693 -7.31311,-5.892 -0.71429,-0.89367 -1.18524,-1.33609 -1.04658,-0.98319 2.48492,6.32361 2.62757,11.06434 0.50771,16.8729 l -0.90016,2.46652 1.32823,-0.15793 c 0.73052,-0.0867 2.24869,-0.36182 3.37369,-0.61113 z m -4.76586,-0.94054 c 1.30096,-3.03499 1.66443,-5.24066 1.53069,-9.28849 -0.10339,-3.13023 -0.2851,-4.29079 -0.97188,-6.20859 -0.46458,-1.29726 -0.91508,-2.42904 -1.00113,-2.51509 -0.0861,-0.0861 -1.50301,1.20181 -3.14883,2.8619 -2.20512,2.22427 -3.60007,3.33146 -5.30218,4.20845 -2.34449,1.20796 -6.50009,2.4554 -8.17965,2.4554 -0.85445,0 -0.89465,0.0532 -0.54534,0.72185 0.20741,0.39703 1.54792,1.88003 2.97893,3.29559 3.66772,3.62809 8.35828,5.8182 12.63902,5.90143 1.33418,0.0259 1.39343,-0.0162 2.00037,-1.43245 z m -56.48867,-9.801 c -0.77427,-1.44673 -1.57557,-4.27677 -1.91701,-6.77049 -0.54121,-3.95278 0.12334,-7.96324 2.07051,-12.49392 0.19164,-0.44592 -0.0865,-0.56308 -1.79977,-0.75776 -5.73846,-0.65211 -11.3856,-3.71811 -14.78592,-8.02773 -0.74626,-0.94582 -1.44839,-1.72775 -1.56029,-1.7376 -0.37734,-0.0333 -1.79945,4.29465 -2.20307,6.70452 -1.41325,8.43812 3.38911,17.71802 11.11969,21.48728 2.49312,1.21562 6.1114,2.22598 8.06123,2.25102 1.29868,0.0161 1.35486,-0.0185 1.01463,-0.65532 z m 5.27527,0.0402 c 3.97016,-1.0154 6.69313,-2.61834 9.90051,-5.82811 1.54398,-1.54512 2.80722,-2.93854 2.80722,-3.09645 0,-0.15795 -1.19106,-0.52076 -2.64681,-0.80627 -1.71284,-0.33593 -3.72227,-1.05086 -5.69465,-2.0261 -2.57899,-1.27516 -3.48231,-1.94897 -5.87213,-4.38028 -1.55336,-1.58031 -2.89815,-2.79941 -2.98842,-2.70916 -0.0903,0.0902 -0.54248,1.22553 -1.00492,2.5228 -0.64963,1.82235 -0.87203,3.14906 -0.97812,5.8346 -0.1556,3.93895 0.23606,6.44285 1.44311,9.22611 0.96286,2.22016 1.12862,2.26173 5.03421,1.26286 z m 30.92396,-2.01414 c -1.60861,-4.3073 -1.63151,-10.70446 -0.0531,-14.8382 0.13478,-0.35289 -0.87817,0.40367 -2.25089,1.68126 -1.58487,1.475 -3.33424,2.73396 -4.7927,3.44909 -2.35877,1.15663 -6.6652,2.40906 -8.28339,2.40906 -0.50114,0 -0.91116,0.12187 -0.91116,0.27092 0,0.51046 3.30987,4.05962 5.0462,5.411 0.95455,0.74293 2.4835,1.71568 3.39766,2.16168 1.97573,0.96388 5.99984,2.05955 7.65521,2.08432 l 1.18068,0.0185 -0.98848,-2.64684 z m 6.29179,2.01414 c 3.7618,-0.96211 6.70936,-2.64733 9.53051,-5.4489 1.34047,-1.33117 2.6017,-2.73188 2.80273,-3.11268 0.34694,-0.65721 0.28088,-0.70401 -1.30077,-0.92155 -4.55224,-0.62609 -8.94051,-2.84772 -12.88937,-6.5255 -0.88854,-0.82753 -1.18227,-0.97883 -1.01502,-0.52287 1.71357,4.67176 1.34809,11.15033 -0.93666,16.60272 -0.31818,0.75935 0.63046,0.74159 3.80858,-0.0713 z m 32.20158,0.23164 c 0.17758,-0.22061 0.71061,-1.48382 1.18446,-2.80724 1.65618,-4.62528 1.42633,-10.89475 -0.55711,-15.19552 l -0.71964,-1.56042 -1.51953,1.93413 c -2.99652,3.81408 -7.74775,6.62142 -13.00313,7.68315 l -2.92931,0.5918 1.38612,1.76607 c 1.85483,2.36326 4.06997,4.21836 6.67904,5.59354 3.53943,1.86554 8.70741,2.95292 9.4791,1.99449 z m 6.74654,-0.71978 c 5.38447,-1.70096 7.87067,-4.25143 12.08577,-12.39813 l 2.09784,-4.0546 v -2.87205 c 0,-2.87269 -0.68302,-6.3358 -1.74009,-8.82265 l -0.50837,-1.19601 -2.96629,2.97567 c -4.13743,4.15049 -7.97924,6.06921 -13.60455,6.79452 l -1.65513,0.21343 0.78703,1.77964 c 1.35495,3.06376 1.79959,5.65233 1.64172,9.55748 -0.13419,3.31825 -0.64082,5.49762 -2.00703,8.63256 -0.25009,0.57389 -0.15438,0.59874 1.5393,0.39966 0.9933,-0.11675 2.9417,-0.57101 4.3298,-1.00951 z m -42.40597,-2.48848 c 0.74226,-2.26841 0.86735,-3.1972 0.87511,-6.49672 0.009,-3.34636 -0.1053,-4.19608 -0.86608,-6.49672 -0.48131,-1.45573 -1.00283,-2.64681 -1.15893,-2.64681 -0.32403,0 -1.46694,2.91039 -1.92892,4.9119 -0.52261,2.26419 -0.38559,6.94171 0.27495,9.38654 0.77416,2.86527 1.23123,3.98862 1.62298,3.98862 0.17314,0 0.70454,-1.19107 1.18089,-2.64681 z m -20.88045,-7.5394 c -1.67055,-4.26809 -1.90183,-5.40047 -1.9166,-9.38415 -0.0147,-3.81212 0.15285,-4.86173 1.3125,-8.24935 0.10794,-0.31533 -0.47697,0.17758 -1.29983,1.09515 -2.9127,3.24836 -7.84097,5.88402 -12.80054,6.84582 -1.66344,0.32258 -1.81878,0.4182 -1.45577,0.8962 3.86237,5.08548 7.68804,7.64392 13.2635,8.87004 2.76931,0.60898 3.16006,0.59904 2.89674,-0.0738 z m 5.21764,0.0589 c 1.36007,-0.27632 3.69461,-1.08936 5.18786,-1.80671 2.22603,-1.06935 3.23708,-1.82634 5.61391,-4.20316 1.67473,-1.67474 2.72794,-2.95589 2.49407,-3.03384 -0.22264,-0.0742 -1.59394,0.10192 -3.04729,0.39135 -4.79584,0.95514 -9.6418,3.94902 -12.75553,7.88041 -1.17982,1.48966 -1.11839,1.50858 2.50698,0.77195 z m 31.15107,-0.21944 c -0.20851,-0.39702 -1.35695,-1.67423 -2.55212,-2.83827 -3.18604,-3.10301 -6.73015,-4.83091 -12.13739,-5.91743 l -1.09008,-0.21896 0.75446,1.07858 c 2.51665,3.59781 7.99795,7.15609 12.49419,8.11076 2.99234,0.63549 2.97794,0.6367 2.53094,-0.21451 z m 7.23133,-0.12583 c 4.23226,-1.07433 8.26673,-3.81836 11.33277,-7.70797 l 1.04346,-1.32367 -2.16479,-0.37698 c -5.88883,-1.02549 -10.53783,-3.71233 -14.11071,-8.15513 l -1.00314,-1.24738 0.76205,2.09939 c 1.74697,4.8129 1.74335,9.7302 -0.0103,14.81278 -0.43923,1.27258 -0.7986,2.42758 -0.7986,2.5667 0,0.30732 2.36645,-0.0118 4.94988,-0.66766 z m -41.87061,-2.44421 c 1.00118,-3.00973 1.41059,-6.95969 0.99742,-9.62265 -0.3563,-2.29644 -1.38327,-5.59163 -1.90541,-6.11375 -0.18275,-0.18268 -0.63962,0.73797 -1.18465,2.38748 -0.77211,2.33676 -0.88663,3.18426 -0.88304,6.53486 0.004,3.36603 0.11688,4.18182 0.90164,6.49062 0.49365,1.45241 1.01243,2.56974 1.15286,2.48292 0.1405,-0.0867 0.55496,-1.05855 0.92118,-2.15948 z m 34.72674,0.16396 c -0.7583,-1.97606 -0.83202,-2.58673 -0.84244,-6.97796 -0.0103,-4.22683 0.0764,-5.04524 0.71045,-6.72622 0.39702,-1.05262 0.72186,-1.97473 0.72186,-2.04917 0,-0.0745 -0.90233,0.78678 -2.00517,1.91383 -3.29758,3.36995 -7.10103,5.55714 -11.14234,6.4074 l -1.75821,0.3699 2.28029,0.57909 c 4.22556,1.0731 8.65135,3.81658 11.38299,7.05612 0.73858,0.87593 1.37454,1.59256 1.41324,1.59256 0.0387,0 -0.30359,-0.97449 -0.76067,-2.16555 z m -28.48796,-3.74887 c 2.23857,-1.39098 6.47602,-3.03999 7.95991,-3.09763 0.41003,-0.0161 -0.20306,-0.28221 -1.36243,-0.59175 -4.32396,-1.15441 -8.52041,-3.66024 -11.2917,-6.74259 l -1.45325,-1.61636 0.79904,2.29766 c 0.68753,1.97699 0.79901,2.86103 0.79876,6.33457 -2.4e-4,3.40223 -0.12378,4.42195 -0.78586,6.48595 l -0.78556,2.44901 1.9161,-2.04831 c 1.05386,-1.12657 2.9461,-2.68834 4.20499,-3.47055 z m 31.00088,3.43881 c 1.02266,-3.31099 1.3208,-6.1015 0.95821,-8.96889 -0.33275,-2.63143 -1.46894,-6.52171 -1.90471,-6.52171 -0.13991,0 -0.59739,1.04669 -1.01653,2.32599 -1.10592,3.37537 -1.09844,9.28326 0.0163,12.83757 0.42809,1.36503 0.89149,2.48183 1.02981,2.48183 0.13829,0 0.55094,-0.96965 0.91699,-2.15479 z m -78.1882,-5.14398 c -0.21866,-3.22014 0.30188,-6.4626 1.54902,-9.64873 l 0.99959,-2.55368 -1.04326,-2.68139 c -1.91647,-4.92578 -1.90876,-11.30802 0.0196,-16.2112 l 1.03111,-2.62175 -1.03148,-2.47766 c -0.75417,-1.81161 -1.11094,-3.30613 -1.32713,-5.55933 -0.27029,-2.81711 -0.24482,-3.67782 0.20981,-7.09194 l 0.14951,-1.1229 -0.46127,0.81845 c -0.70891,1.25786 -3.04075,8.17539 -3.73805,11.08916 -1.07148,4.47737 -1.60748,9.37655 -1.61061,14.7209 -0.004,7.87493 1.12406,14.39476 3.7218,21.49974 0.64426,1.76211 1.24868,3.45647 1.34314,3.76527 0.31479,1.02914 0.35847,0.58243 0.1882,-1.92494 z M 636.577,208.13758 c 4.11555,-12.56667 4.2276,-26.18123 0.31834,-38.68062 -0.45166,-1.4441 -0.92977,-2.74098 -1.06248,-2.88195 -0.13273,-0.14078 -0.32415,1.01403 -0.42547,2.56662 -0.1358,2.08128 -0.47767,3.63259 -1.30135,5.90508 l -1.11718,3.08221 0.78779,1.89058 c 1.1196,2.68694 1.7059,5.65357 1.71234,8.66435 0.007,3.29391 -0.37538,5.30135 -1.58591,8.32448 l -0.96211,2.40277 0.91627,2.31797 c 1.1046,2.79438 1.63734,5.17171 1.63734,7.30656 0,0.87359 0.0604,1.58834 0.13405,1.58834 0.0738,0 0.5005,-1.11887 0.94836,-2.48639 z m -97.51628,0.32083 c -1.40485,-3.27775 -1.5154,-3.833 -1.64477,-8.26126 -0.13727,-4.69692 0.0537,-5.93502 1.44084,-9.34235 l 0.66868,-1.64254 -1.50278,0.15053 c -5.91601,0.59252 -11.75991,3.77106 -14.98307,8.14942 l -1.42985,1.94232 1.45351,1.88895 c 3.66138,4.75823 9.57343,7.82709 15.94736,8.27801 0.53191,0.0377 0.5349,-0.032 0.05,-1.16305 z m 36.47909,0.29621 c -1.13231,-1.59017 -5.01674,-5.05272 -6.80898,-6.06946 -2.88935,-1.63911 -9.27188,-3.27385 -9.27188,-2.37475 0,0.19585 1.11889,1.48281 2.48639,2.85963 3.46204,3.4856 7.31573,5.44889 12.11117,6.17013 0.88227,0.13273 1.72224,0.25931 1.8666,0.28129 0.1443,0.0232 -0.0282,-0.36806 -0.3833,-0.86684 z m 37.30099,0.50585 c -0.74001,-1.26906 -2.99112,-3.62124 -4.71578,-4.92757 -2.40076,-1.81838 -5.27698,-3.17609 -8.13025,-3.83782 -3.60662,-0.83643 -3.71927,-0.63999 -1.19572,2.08506 3.42399,3.69734 6.58559,5.49089 11.56007,6.55791 2.79512,0.59957 2.75887,0.59776 2.48168,0.12232 z m 6.4521,-0.46172 c 4.20141,-1.03883 9.44527,-4.6207 11.85467,-8.09747 l 0.88935,-1.28333 -1.18315,-1.61178 c -2.43538,-3.31766 -6.47989,-6.18407 -10.5984,-7.51131 -1.54863,-0.49907 -5.61444,-1.18197 -5.61444,-0.94299 0,0.0642 0.34703,0.94275 0.77117,1.95205 1.17985,2.80749 1.57556,5.42395 1.40532,9.29203 -0.14181,3.22223 -0.59356,5.13754 -1.99931,8.47677 -0.19519,0.46366 -0.0418,0.51221 1.16247,0.36805 0.76306,-0.0914 2.25358,-0.38026 3.31232,-0.64202 z m -74.73953,0.0484 c 2.66676,-0.68841 5.41477,-2.03798 7.75317,-3.80768 2.07227,-1.56825 4.86301,-4.74986 4.32398,-4.92952 -0.74642,-0.24879 -4.93751,1.02164 -7.43798,2.25467 -2.05856,1.01511 -3.3365,1.9446 -5.21342,3.79185 -3.36139,3.30823 -3.2808,3.68584 0.57425,2.69068 z m 37.68835,-0.17065 c 2.90469,-0.80493 5.37654,-2.08526 7.69046,-3.98334 1.68182,-1.3796 4.27131,-4.34695 4.0161,-4.60215 -0.25079,-0.25081 -5.17367,1.0053 -6.85686,1.74955 -2.40602,1.0639 -5.49155,3.33599 -7.23159,5.32512 -0.8097,0.92562 -1.47219,1.79369 -1.47219,1.92907 0,0.42067 1.35887,0.27321 3.85408,-0.41825 z m -40.12332,-1.62287 c 3.08923,-3.50953 6.94398,-5.95763 11.0402,-7.01144 1.25951,-0.32402 2.07348,-0.65583 1.80879,-0.73734 -0.26468,-0.0814 -1.34745,-0.39848 -2.40618,-0.70433 -3.63456,-1.05005 -6.1948,-2.64761 -9.41361,-5.87392 -1.6484,-1.65225 -3.04803,-2.95315 -3.11031,-2.89091 -0.0623,0.0622 -0.5543,1.42982 -1.09341,3.03899 -0.84532,2.52306 -0.97916,3.38291 -0.97239,6.2471 0.004,1.82675 0.15133,3.971 0.32667,4.76504 0.41247,1.86772 1.60779,5.13321 1.87901,5.13321 0.11571,0 0.98924,-0.88487 1.94123,-1.9664 z m 72.97971,-0.78371 c 0.85131,-2.30738 0.94066,-2.93068 0.96248,-6.71424 0.0208,-3.59286 -0.082,-4.48187 -0.74084,-6.41651 -1.29369,-3.79845 -1.01314,-3.74908 -3.98586,-0.7015 -2.96862,3.04336 -5.94456,4.95354 -9.36557,6.0115 -1.23518,0.38198 -2.46234,0.76846 -2.72701,0.85884 -0.26469,0.0903 0.35807,0.36225 1.3839,0.60423 3.97514,0.93757 8.99657,4.13559 11.52939,7.34278 0.74989,0.94956 1.5078,1.68863 1.68425,1.64243 0.17646,-0.0462 0.74312,-1.22859 1.25926,-2.62753 z m -36.85843,-0.21761 c 0.78392,-2.30659 0.90113,-3.14168 0.91181,-6.49672 0.0132,-3.9186 -0.69993,-7.41432 -1.82438,-8.95208 -0.39689,-0.54279 -0.49458,-0.43064 -1.12492,1.29142 -0.37965,1.03719 -0.83375,2.53547 -1.00911,3.32951 -0.48291,2.18674 -0.39633,6.88738 0.16688,9.06091 0.62174,2.39931 1.41436,4.41377 1.73671,4.41377 0.1339,0 0.64828,-1.19107 1.14301,-2.64681 z m -3.26141,-0.27078 c -0.83815,-2.24048 -0.95697,-8.84564 -0.21065,-11.70895 l 0.59291,-2.27477 -2.57696,2.19534 c -2.87484,2.44909 -6.2395,4.26591 -8.95525,4.83552 -0.99153,0.2079 -1.80277,0.45989 -1.80277,0.5598 0,0.0999 0.83014,0.37376 1.84475,0.60858 3.41636,0.79067 7.07561,2.93844 9.84604,5.77905 0.87162,0.89372 1.63112,1.57859 1.68776,1.52197 0.0566,-0.0566 -0.13492,-0.73907 -0.42583,-1.51654 z m 8.74848,-2.88857 c 1.83622,-1.26333 4.57411,-2.46576 6.82543,-2.99759 0.98527,-0.23274 1.57482,-0.49305 1.31013,-0.57846 -0.26467,-0.0854 -1.49184,-0.46101 -2.72701,-0.83461 -2.8863,-0.87302 -5.79032,-2.60054 -8.44283,-5.02239 -1.18567,-1.08256 -1.99889,-1.64416 -1.8583,-1.2833 1.44894,3.71902 1.44958,10.69962 10e-4,14.43713 -0.14822,0.38258 0.50309,-0.0422 1.61307,-1.05229 1.02395,-0.93164 2.49912,-2.13249 3.27819,-2.66849 z m -27.52722,-5.1821 c -2.81891,-3.99071 -8.4578,-7.36524 -13.56704,-8.11896 l -1.58726,-0.23417 1.03111,1.30189 c 1.67349,2.11294 4.29414,4.33889 6.49946,5.52047 2.09919,1.12477 6.27179,2.52517 7.61654,2.55625 l 0.7437,0.0162 z m 9.12176,-0.0673 c 1.21692,-0.42323 3.00493,-1.2489 3.97336,-1.83486 1.89043,-1.14384 4.99535,-3.97508 6.11918,-5.57979 l 0.69004,-0.98532 -2.10173,0.2816 c -2.59111,0.34715 -5.61391,1.42185 -8.02005,2.85134 -1.83053,1.08751 -6.52314,5.49572 -6.52314,6.12781 0,0.5152 3.29834,0.0309 5.86234,-0.86078 z m 28.18002,0.19656 c -1.10206,-1.5477 -4.68788,-4.72331 -6.497,-5.75375 -2.99694,-1.707 -8.61667,-3.22847 -8.61667,-2.33284 0,0.20719 1.11889,1.49204 2.48641,2.85522 1.90975,1.90372 3.11884,2.79009 5.21341,3.8219 2.57459,1.2683 5.66173,2.23662 7.32062,2.29625 l 0.74371,0.0265 z m 7.14859,0.28084 c 3.7162,-0.95046 6.68041,-2.65853 9.57292,-5.51626 1.37122,-1.35476 2.49314,-2.61884 2.49314,-2.80908 0,-0.51836 -1.1856,-0.42082 -3.85634,0.31725 -4.60131,1.27154 -8.34986,3.73052 -11.22948,7.36637 l -1.00936,1.2744 h 0.7777 c 0.42774,0 1.89088,-0.2847 3.25142,-0.63268 z m -77.93577,-1.31997 c 2.79009,-3.65861 7.70317,-6.6621 12.84332,-7.85149 0.90634,-0.20974 0.858,-0.24726 -0.82888,-0.64376 -4.13498,-0.97193 -8.01055,-3.3278 -11.27522,-6.85394 -1.15518,-1.24769 -2.172,-2.26853 -2.25961,-2.26853 -0.21478,0 -1.39311,3.02321 -1.8757,4.81237 -0.49089,1.81997 -0.48238,7.7169 0.0132,9.62476 0.50498,1.94137 1.65052,4.81239 1.92014,4.81239 0.11968,0 0.77764,-0.73431 1.46208,-1.6318 z m 111.06617,-1.41603 c 0.79262,-2.27175 0.89646,-3.02733 0.90386,-6.57694 0.007,-3.56057 -0.0912,-4.29814 -0.87894,-6.57692 -0.48801,-1.41162 -1.00457,-2.75153 -1.14795,-2.97756 -0.18449,-0.29085 -0.69868,0.14665 -1.75934,1.49657 -2.66663,3.39422 -7.19059,6.29361 -11.54562,7.39957 -2.30469,0.58529 -2.29658,0.6783 0.10104,1.15412 3.33367,0.66162 8.18841,3.74242 11.11151,7.0513 1.01322,1.14693 1.9497,1.97533 2.0811,1.84089 0.13141,-0.13433 0.64189,-1.3994 1.13441,-2.81103 z m -39.92089,0.56145 c -0.80507,-2.0236 -0.86144,-2.4916 -0.85969,-7.13839 10e-4,-4.5865 0.0669,-5.14139 0.83791,-7.14323 l 0.836,-2.17043 -1.90185,2.07553 c -3.04875,3.32718 -7.35778,5.89052 -11.33629,6.74374 l -1.92497,0.41282 1.28332,0.23833 c 4.53432,0.84218 10.92923,4.90491 13.21742,8.39715 0.79775,1.21751 0.76157,0.88037 -0.15185,-1.41552 z m 10.35468,-4.79408 c 2.34157,-1.20578 3.1691,-1.50214 6.09568,-2.18306 0.8748,-0.20349 0.75387,-0.2774 -1.32756,-0.81061 -4.05899,-1.03989 -8.38758,-3.67281 -11.17662,-6.79838 -0.83225,-0.93268 -1.4075,-1.40702 -1.27832,-1.05412 1.14921,3.13962 1.48908,5.05138 1.51145,8.50186 0.0213,3.28031 -0.0802,3.99196 -0.91516,6.41652 l -0.93909,2.72701 2.73151,-2.73879 c 2.04299,-2.04843 3.37846,-3.07194 5.29811,-4.06043 z m -45.31553,5.11491 c 1.02257,-2.94666 1.24976,-4.36792 1.24052,-7.76017 -0.007,-2.77434 -0.16682,-3.92211 -0.83993,-6.05285 -0.45682,-1.44611 -0.9583,-2.6293 -1.11441,-2.6293 -0.44414,0 -1.49542,3.12704 -1.93425,5.75353 -0.24324,1.45584 -0.31432,3.31332 -0.18247,4.76833 0.2185,2.41133 1.61003,7.44435 2.05821,7.44435 0.1339,0 0.48147,-0.68574 0.77233,-1.52389 z m 5.91179,-3.90673 c 2.19249,-1.43936 5.4234,-2.82336 7.96285,-3.41098 0.89256,-0.2065 0.82265,-0.25537 -0.96247,-0.67191 -3.31355,-0.77319 -6.97671,-2.82122 -9.80483,-5.48173 -1.40082,-1.31778 -2.54509,-2.34488 -2.54281,-2.28244 0.003,0.0624 0.30098,1.05195 0.66378,2.19889 1.02471,3.23947 0.9549,9.35391 -0.14285,12.51044 l -0.81351,2.33926 1.61022,-1.80659 c 0.88562,-0.99365 2.69894,-2.52138 4.02961,-3.39494 z m 31.51177,3.10465 c 0.9934,-3.0079 1.3545,-6.22406 1.00578,-8.95811 -0.35627,-2.79328 -1.53108,-6.77228 -1.92725,-6.52744 -0.15404,0.0953 -0.61617,1.14604 -1.02694,2.33518 -1.07298,3.10618 -1.08075,9.44125 -0.0157,12.82954 0.4021,1.27928 0.85954,2.32598 1.01651,2.32598 0.157,0 0.58345,-0.9023 0.94767,-2.00515 z m -40.13663,-0.4237 c -0.5889,-1.60328 -0.69898,-2.58308 -0.7003,-6.23344 -10e-4,-3.76954 0.10032,-4.62403 0.78414,-6.59 l 0.7857,-2.25886 -1.71603,1.85352 c -2.93411,3.16919 -7.23189,5.65139 -11.27012,6.50909 l -1.755,0.37277 2.212,0.55562 c 4.22923,1.06234 9.30596,4.16331 11.35203,6.93401 0.41258,0.55869 0.80776,0.95813 0.87822,0.88766 0.0704,-0.0705 -0.18635,-0.98412 -0.57064,-2.03037 z m -17.69471,-9.36147 c -0.98499,-2.42876 -1.00838,-2.60541 -1.00838,-7.61962 0,-5.01418 0.0234,-5.19086 1.00838,-7.61958 l 1.00836,-2.48642 h -0.94504 c -1.85798,0 -5.60698,1.04127 -8.19249,2.27541 -2.8033,1.3381 -5.82787,3.8546 -7.65968,6.37296 l -1.03999,1.42982 0.92107,1.33873 c 3.21675,4.67539 10.35742,8.65197 15.74736,8.76958 l 1.16877,0.0254 z m 7.73765,1.32898 c 2.92843,-0.97414 5.6441,-2.74444 8.25772,-5.38303 2.86,-2.88733 2.80638,-3.1675 -0.46713,-2.44158 -3.9152,0.86818 -8.67186,3.70302 -11.10321,6.61712 -0.71716,0.85956 -1.3974,1.72059 -1.51164,1.91337 -0.26309,0.44397 2.64814,0.0185 4.82426,-0.70588 z m 29.25487,0.27515 c -4.58218,-5.24742 -8.1706,-7.39925 -14.0525,-8.42672 -1.12117,-0.19586 -2.11142,-0.28316 -2.20056,-0.19401 -0.0892,0.0893 1.11692,1.44947 2.68013,3.02298 2.30687,2.32204 3.35582,3.11256 5.56921,4.19707 2.60476,1.27627 5.8204,2.20265 7.83594,2.25743 l 0.93821,0.0254 z m 7.78555,-0.29359 c 3.04693,-0.94769 6.69544,-3.32523 8.90197,-5.80092 0.88904,-0.99748 1.61644,-1.94876 1.61644,-2.11398 0,-0.42251 -2.65682,-0.0161 -5.01985,0.76721 -3.55808,1.17998 -7.96457,4.41977 -10.11065,7.4337 l -0.64534,0.90627 1.39121,-0.21135 c 0.76517,-0.11615 2.50497,-0.55764 3.86622,-0.98105 z m 28.82713,-0.0801 c -1.47795,-1.86607 -4.39489,-4.437 -6.24754,-5.50648 -2.75622,-1.59109 -9.56203,-3.4617 -8.98244,-2.46887 1.37588,2.35685 5.41625,5.84017 8.34649,7.19578 1.76471,0.81637 5.90787,1.98902 7.1294,2.01787 0.74086,0.0185 0.73826,0.004 -0.24591,-1.2383 z m 6.22523,0.77104 c 2.79833,-0.59276 6.15052,-2.17994 8.73617,-4.13636 2.15464,-1.63032 5.03532,-5.15861 4.69998,-5.75661 -2.36767,-4.22245 -8.11599,-8.22227 -13.43615,-9.34922 -3.07885,-0.65218 -3.81352,-0.63615 -3.50922,0.0766 1.83221,4.29115 1.88645,4.56547 1.88645,9.54456 0,4.97906 -0.0542,5.25339 -1.88645,9.54454 -0.3043,0.71269 0.43037,0.72872 3.50922,0.0766 z m -76.22746,-1.9887 c 2.70488,-3.31896 7.77543,-6.40784 11.87446,-7.2337 l 2.04867,-0.41276 -2.04867,-0.4223 c -4.33167,-0.89294 -9.29616,-3.95367 -12.10367,-7.46219 -0.81881,-1.02327 -1.61005,-1.7392 -1.75829,-1.59094 -0.14826,0.14822 -0.64013,1.26124 -1.09309,2.47332 -1.09626,2.93363 -1.39365,8.86555 -0.5998,11.96424 0.6743,2.63209 1.73975,5.03393 2.06425,4.65349 0.13962,-0.16373 0.86688,-1.04982 1.61614,-1.96916 z m 73.05292,-0.89508 c 1.61908,-4.77789 1.37015,-10.5898 -0.6576,-15.35299 l -0.52649,-1.2367 -2.40358,2.58723 c -1.4272,1.53623 -3.34204,3.17035 -4.71383,4.02275 -2.26619,1.40818 -6.50862,3.05894 -7.98127,3.1056 -0.41002,0.0132 0.26511,0.2813 1.50029,0.59626 4.5773,1.16713 7.81671,3.14249 11.25902,6.86563 1.2186,1.31803 2.31421,2.30245 2.43469,2.18762 0.12055,-0.11498 0.61043,-1.36375 1.08877,-2.7754 z m -36.87581,-0.24079 c 0.75535,-2.2885 0.87362,-3.16797 0.87362,-6.49672 0,-3.32874 -0.11821,-4.20819 -0.87362,-6.4967 -0.48047,-1.45576 -1.00132,-2.64683 -1.15742,-2.64683 -0.32403,0 -1.46694,2.9104 -1.92892,4.91192 -0.39992,1.73259 -0.39992,6.73063 0,8.46325 0.46198,2.0015 1.60489,4.91189 1.92892,4.91189 0.1561,0 0.67695,-1.19107 1.15742,-2.64681 z m -3.28975,-0.27078 c -0.77097,-2.07202 -0.96107,-8.22156 -0.33626,-10.87791 0.26979,-1.14694 0.59944,-2.37409 0.73258,-2.72701 0.13829,-0.36655 -0.64014,0.17089 -1.81563,1.25383 -3.47936,3.20511 -7.21277,5.19715 -10.8821,5.80638 l -1.43124,0.23765 2.39371,0.6059 c 3.94011,0.99735 7.66544,3.17944 10.55281,6.18123 0.60553,0.62954 1.14847,1.09709 1.20653,1.03905 0.058,-0.0581 -0.13111,-0.74165 -0.4204,-1.51912 z m 6.7752,-1.19661 c 2.25278,-2.0067 6.22036,-4.01563 9.07057,-4.59279 l 2.0124,-0.4075 -2.28216,-0.53627 c -3.21481,-0.75545 -6.60547,-2.57967 -9.2919,-4.99923 -1.26624,-1.14043 -2.34413,-2.02832 -2.39532,-1.97302 -0.0512,0.0553 0.17201,1.11109 0.49592,2.34627 0.94671,3.60995 0.71547,8.87604 -0.5354,12.19136 -0.22342,0.59224 -0.1942,0.60484 0.37944,0.16373 0.34184,-0.26284 1.48773,-1.2495 2.54645,-2.19256 z m -18.69223,-6.16877 c 3.94988,-0.76857 8.17215,-3.31148 11.28276,-6.79529 2.09303,-2.34411 1.95551,-2.47774 -1.76114,-1.71146 -4.60749,0.94994 -9.40043,3.98692 -12.53183,7.94067 l -1.00613,1.27032 1.24829,-0.20419 c 0.68656,-0.11234 1.93219,-0.33733 2.76805,-0.49997 z m 30.69841,-0.0298 c -1.15443,-2.15708 -5.49694,-5.72614 -8.67899,-7.13318 -1.81613,-0.80307 -6.61395,-1.99247 -6.8967,-1.70977 -0.30606,0.30609 4.08025,4.67569 5.91804,5.89556 2.58832,1.71802 6.60134,3.19741 9.77393,3.60312 0.13858,0.0185 0.0862,-0.27737 -0.1163,-0.65573 z m 6.92251,-0.17182 c 4.30419,-1.05144 8.48085,-3.80943 11.45418,-7.56357 l 1.02428,-1.29326 -1.58726,0.23377 c -2.86614,0.42213 -6.64609,1.87655 -9.0424,3.47929 -2.02987,1.35767 -4.83501,4.11665 -5.63017,5.53751 -0.28598,0.51102 0.34788,0.44503 3.78137,-0.39374 z m -44.75073,-0.73872 c -1.54288,-1.94805 -4.35916,-4.3348 -6.39572,-5.42027 -1.87729,-1.00059 -7.43589,-2.75576 -8.06418,-2.54633 -0.57288,0.19102 2.13831,3.31974 4.28334,4.94308 3.14301,2.37861 7.45967,4.20125 10.11891,4.27257 l 1.06965,0.0287 z m 77.87095,-2.09092 c 0.78753,-2.27804 0.88729,-3.02388 0.88729,-6.63362 v -4.06701 l -2.00132,-3.95363 c -1.10072,-2.17448 -2.54788,-4.67202 -3.21592,-5.55006 -2.75444,-3.62039 -7.69966,-6.1984 -13.50897,-7.04239 -1.25729,-0.18269 -1.3777,-0.14475 -1.16935,0.3677 2.61152,6.424 2.78217,12.68514 0.49429,18.13652 l -0.90885,2.16557 h 1.20083 c 1.77645,0 5.78384,1.10647 7.92858,2.18912 2.74523,1.3858 5.62601,3.66024 7.3792,5.82611 1.02485,1.2661 1.61882,1.77059 1.78208,1.51368 0.13463,-0.21205 0.64413,-1.54034 1.13214,-2.95199 z m -109.58564,0.065 c 2.43354,-2.42249 3.50868,-3.23429 5.72343,-4.32166 2.76233,-1.35621 6.37373,-2.32031 8.6915,-2.32031 h 1.27058 l -0.52474,-1.01472 c -0.96278,-1.86182 -1.71686,-4.4635 -2.07608,-7.16291 -0.43667,-3.28139 -0.0146,-6.55274 1.31832,-10.20687 l 0.91295,-2.50364 -1.5078,0.20327 c -5.27332,0.71123 -9.57177,2.67351 -12.82148,5.85308 -2.61558,2.55916 -4.2113,5.09575 -5.36193,8.52344 -0.70985,2.11456 -0.84269,3.07858 -0.84639,6.1419 -0.003,1.99851 0.16397,4.25876 0.3697,5.02281 0.43705,1.62307 1.58936,4.76831 1.74693,4.76831 0.0597,0 1.45697,-1.34225 3.10501,-2.98279 z m 69.61627,0.4964 c -0.76899,-1.99623 -0.83438,-2.55449 -0.83613,-7.13837 -0.003,-4.65236 0.0544,-5.11751 0.8721,-7.21857 0.4807,-1.23518 0.65465,-1.95702 0.38656,-1.60412 -3.05921,4.02713 -7.95988,7.25099 -12.9833,8.54097 l -1.44371,0.37072 1.88052,0.43742 c 3.94603,0.9179 8.39934,3.66403 11.29467,6.96495 0.87051,0.99244 1.60095,1.8063 1.62317,1.80851 0.0222,0.003 -0.33504,-0.97044 -0.79388,-2.16151 z m -37.54626,-0.48124 c -0.70483,-2.02281 -0.8109,-2.8696 -0.81389,-6.49672 -0.003,-4.1341 0.32524,-5.78411 1.91105,-9.59503 0.23837,-0.57285 0.13962,-0.5984 -1.54675,-0.4002 -5.11969,0.60171 -10.28248,3.6175 -13.79065,8.05569 l -1.25744,1.59079 2.51597,0.54468 c 5.03511,1.09005 8.03996,2.70121 11.33869,6.07967 1.32341,1.35539 2.41683,2.48295 2.42984,2.50573 0.0132,0.0232 -0.34106,-1.00533 -0.78682,-2.28461 z m 3.03123,-0.38446 c 0.77234,-2.47718 0.83338,-3.06389 0.70937,-6.81755 -0.10574,-3.20161 -0.29976,-4.58452 -0.87984,-6.27265 -0.4093,-1.19106 -0.86193,-2.16557 -1.00589,-2.16557 -0.44215,0 -1.82943,4.87312 -2.05922,7.23347 -0.11953,1.22697 -0.0625,3.33496 0.1267,4.68437 0.36346,2.59292 1.49257,6.04837 1.97635,6.04837 0.15807,0 0.66769,-1.21969 1.13248,-2.71044 z m 37.51627,-1.14713 c 0.62219,-2.40108 0.61801,-7.65457 -0.009,-10.11113 -0.61414,-2.40975 -1.11852,-3.6767 -1.46369,-3.6767 -0.65996,0 -1.67928,4.41533 -1.82023,7.8846 -0.14808,3.64452 0.21774,5.95683 1.37693,8.7037 l 0.5138,1.21751 0.46099,-1.08423 c 0.25355,-0.59633 0.67666,-1.91651 0.94025,-2.93375 z m 5.34165,-1.4693 c 2.54949,-1.6949 6.56577,-3.21455 9.32506,-3.52831 l 1.83564,-0.20882 -1.03358,-1.44525 c -2.58332,-3.61217 -7.08071,-6.61669 -11.65596,-7.78684 -2.27863,-0.58278 -4.61685,-0.8312 -4.61685,-0.49051 0,0.0782 0.42328,1.41364 0.9406,2.96761 1.60883,4.83279 1.60313,9.13756 -0.0185,13.85054 -0.33077,0.9614 -0.60141,1.82219 -0.60141,1.91289 0,0.0906 0.79926,-0.71839 1.77615,-1.79785 0.97688,-1.0795 2.7988,-2.64256 4.04874,-3.47353 z m -35.38726,-1.20338 c 1.24856,-0.65611 3.32177,-1.46229 4.60716,-1.79154 2.09929,-0.53772 2.23913,-0.62032 1.37456,-0.81205 -4.20144,-0.93174 -8.3563,-3.21066 -11.39666,-6.251 l -2.12804,-2.12807 0.77453,2.22718 c 1.05766,3.04126 1.1094,9.21939 0.10384,12.3983 -0.36281,1.14696 -0.66151,2.13647 -0.6638,2.19891 -0.003,0.0624 1.13492,-0.958 2.52707,-2.26765 1.4746,-1.38718 3.47884,-2.87914 4.80133,-3.57408 z m 8.71204,-3.72999 c -1.21137,-2.26349 -6.21878,-6.14206 -9.52834,-7.3803 -1.99566,-0.74668 -6.07101,-1.5195 -6.38054,-1.20995 -0.33898,0.33898 2.44468,3.40612 4.51061,4.96994 3.17772,2.40539 7.59742,4.18381 10.52398,4.23468 1.11346,0.0185 1.18612,-0.0316 0.87429,-0.61437 z m 7.7894,-0.37725 c 1.09587,-0.35682 2.78652,-1.09476 3.75701,-1.63985 2.03732,-1.14426 7.43452,-6.3524 6.80769,-6.56925 -0.85843,-0.29698 -5.33317,0.98243 -7.8608,2.24754 -1.97484,0.98845 -3.25586,1.94045 -5.12136,3.80595 -1.3683,1.3683 -2.48782,2.65731 -2.48782,2.86451 0,0.48865 2.20698,0.16972 4.90528,-0.7089 z m -34.42121,-6.64185 c 2.66442,-1.29179 5.83389,-2.29102 7.26704,-2.29102 1.17806,0 1.11007,-0.43448 -0.36135,-2.30919 -3.22121,-4.10417 -8.42518,-6.91424 -14.34042,-7.74366 l -1.17864,-0.16534 -0.78763,1.98103 c -1.1359,2.85695 -1.50706,4.96024 -1.50706,8.53993 0,3.14229 0.65381,6.19523 1.8067,8.43642 l 0.45219,0.87901 2.96108,-3.00256 c 2.46407,-2.49859 3.4188,-3.22448 5.68809,-4.32469 z m 66.27056,4.43439 c 1.61276,-4.65 1.35195,-10.91889 -0.63481,-15.25857 l -0.79918,-1.7456 -1.37841,0.19494 c -5.74563,0.8128 -9.06679,2.45844 -13.05811,6.47028 -3.11793,3.13393 -3.28551,3.59655 -1.30731,3.60858 1.46635,0.009 5.55922,1.31215 7.84854,2.49913 1.632,0.84617 3.04502,1.97595 5.13844,4.10852 1.58808,1.61779 2.99385,2.8459 3.12393,2.72916 0.13009,-0.11674 0.6102,-1.28966 1.06691,-2.60651 z m -36.67951,-0.78204 c 0.56109,-1.8041 0.69854,-3.02213 0.68873,-6.10378 -0.0103,-3.35502 -0.12789,-4.19012 -0.91181,-6.49669 -0.49473,-1.45577 -1.00909,-2.64684 -1.14301,-2.64684 -0.3422,0 -1.2157,2.28176 -1.76468,4.60967 -0.53399,2.26432 -0.60438,6.75721 -0.13888,8.86501 0.17535,0.79404 0.62946,2.29235 1.00911,3.32954 0.63033,1.72203 0.72803,1.83418 1.12493,1.2914 0.23906,-0.32693 0.75009,-1.60866 1.13562,-2.84831 z m -3.64727,-0.40218 c -1.1212,-4.04337 -0.69401,-10.07813 0.99183,-14.01104 0.36932,-0.8616 0.61899,-1.61904 0.5548,-1.68325 -0.0641,-0.0643 -1.38493,0.10457 -2.93498,0.37478 -3.23259,0.5637 -6.85181,2.11469 -9.36834,4.01466 -1.67167,1.26215 -4.92067,4.86691 -4.92067,5.45952 0,0.16719 0.54139,0.30627 1.20309,0.30888 3.81485,0.0162 8.74397,2.15801 12.43986,5.40828 1.40731,1.23762 2.57543,2.25846 2.59585,2.26853 0.0204,0.009 -0.23223,-0.95312 -0.56144,-2.14036 z m 10.54642,-3.06865 c 2.26473,-1.19009 6.33039,-2.47254 7.83854,-2.47254 0.47838,0 0.94543,-0.1223 1.03789,-0.27199 0.0924,-0.14963 -0.60874,-1.21385 -1.55823,-2.36497 -1.94591,-2.35914 -5.55458,-4.94388 -8.42018,-6.03111 -1.69903,-0.6446 -6.19892,-1.62782 -6.46473,-1.41251 -0.0612,0.0494 0.25163,1.00251 0.6951,2.1177 1.86187,4.68203 1.97214,9.83068 0.32493,15.17214 -0.11571,0.37519 0.7326,-0.22638 2.08596,-1.47947 1.25453,-1.1615 3.26185,-2.62725 4.46072,-3.25725 z m -25.92437,-4.58553 c 1.2822,-1.88252 4.69585,-4.79319 7.10818,-6.06083 2.43122,-1.27758 5.29334,-2.20265 7.94177,-2.5669 0.90991,-0.1251 1.65438,-0.34639 1.65438,-0.49162 0,-0.67596 -4.93573,-5.41065 -6.77747,-6.50145 -2.39279,-1.41717 -6.10589,-2.66396 -8.86218,-2.97581 -1.91351,-0.21645 -1.95852,-0.20349 -2.42553,0.69997 -0.26171,0.50628 -0.80514,2.00332 -1.20762,3.32672 -0.85568,2.81355 -1.02646,8.49006 -0.32803,10.90284 0.6595,2.27821 1.66061,4.81781 1.89827,4.81541 0.11967,-0.001 0.56887,-0.51797 0.99823,-1.14833 z m 37.08628,-2.46946 c 1.39197,-4.40636 1.04608,-10.27768 -0.86753,-14.72599 l -0.6909,-1.60599 -1.79215,0.21714 c -5.35818,0.64931 -10.61214,3.60615 -13.94451,7.84773 l -1.49994,1.90915 1.2117,0.18963 c 6.05123,0.94725 11.12429,3.70611 14.42272,7.84348 1.83151,2.29733 1.92057,2.25013 3.16061,-1.67527 z m 6.23503,-2.94992 c 2.42962,-1.47593 5.38639,-2.56462 8.27147,-3.04564 l 2.32467,-0.38758 -1.52261,-1.93873 c -1.89664,-2.41499 -4.49383,-4.43596 -7.52811,-5.85792 -2.11427,-0.99082 -6.28494,-2.09141 -7.92547,-2.09141 -0.64179,0 -0.64186,0.004 -0.0183,1.45918 1.24227,2.89807 1.70401,5.33363 1.70014,8.96765 -0.003,3.04436 -0.1317,3.90663 -0.93546,6.27781 l -0.9317,2.74873 2.35276,-2.50116 c 1.29403,-1.37562 3.18971,-3.00956 4.21263,-3.63093 z m -46.56116,3.17367 c -0.59115,-1.61081 -0.69626,-2.57579 -0.69588,-6.38895 3.2e-4,-4.25841 0.0532,-4.63209 1.01633,-7.19976 0.55872,-1.48952 1.01585,-2.76162 1.01585,-2.82686 0,-0.26488 -3.20185,0.36922 -5.52284,1.09372 -3.86298,1.20584 -7.73953,4.03852 -10.33288,7.55042 l -0.87442,1.18415 1.2267,0.1954 c 2.35484,0.37512 6.49632,1.83938 8.49098,3.00204 1.1055,0.6444 2.95509,2.1114 4.11021,3.26002 1.15511,1.14863 2.13666,2.07465 2.18123,2.05781 0.0446,-0.0162 -0.23231,-0.88444 -0.61528,-1.92801 z m -26.65849,-3.93991 c 2.51643,-1.26898 5.65232,-2.19789 8.30151,-2.45905 l 2.2083,-0.21759 1.12289,-1.6293 c 1.51077,-2.19207 5.24105,-5.32008 7.87737,-6.60549 2.33862,-1.14028 6.36104,-2.28517 8.02863,-2.28517 0.84424,0 1.17605,-0.21134 1.72427,-1.09842 1.04008,-1.68288 5.80128,-6.02422 7.57627,-6.90817 0.8703,-0.43341 2.44861,-1.11943 3.50734,-1.5245 l 1.92495,-0.73649 -1.92495,0.1806 c -17.27161,1.6198 -34.4265,11.42061 -44.80249,25.5962 l -1.60657,2.19482 2.10747,-1.78783 c 1.15912,-0.98332 2.93888,-2.2071 3.95501,-2.71952 z m 96.34221,0.19772 c -2.10031,-2.66734 -7.31563,-7.83405 -10.1176,-10.02331 -6.04187,-4.72071 -12.55498,-8.2063 -19.73076,-10.55921 -4.32039,-1.41665 -10.34252,-2.76437 -12.28786,-2.74994 -0.93435,0.007 -0.86361,0.0747 0.78867,0.75421 3.81975,1.57114 7.32603,4.29846 9.72157,7.56184 1.10778,1.50911 1.1498,1.53108 3.31038,1.73189 2.51704,0.23394 5.48857,1.14246 8.17934,2.50075 1.97459,0.99676 6.52198,5.0892 7.60857,6.84734 0.59869,0.96872 0.80633,1.05441 3.44852,1.42343 3.16222,0.44165 6.20713,1.54085 8.58634,3.09966 0.88225,0.57806 1.65248,1.06149 1.71162,1.07432 0.0591,0.0132 -0.48933,-0.7346 -1.21879,-1.66098 z m -44.95423,-7.55713 c 2.69655,-2.62287 6.72678,-4.67294 10.7286,-5.45737 l 2.84129,-0.5568 -1.26194,-1.59648 c -4.40538,-5.57324 -10.7891,-8.4858 -17.70675,-8.07867 -4.4075,0.25938 -7.8888,1.59529 -11.78028,4.52057 -1.70307,1.28024 -4.60997,4.50909 -4.60997,5.12055 0,0.11616 0.41002,0.21091 0.91115,0.21091 1.61819,0 5.92463,1.25244 8.2834,2.40906 2.48329,1.21767 6.61119,4.79604 7.85599,6.81017 l 0.71957,1.16431 0.96961,-1.26167 c 0.53327,-0.69391 1.90548,-2.17193 3.04933,-3.28454 z"
       id="path232"
       sodipodi:nodetypes="cssscsssssssscssscsscssscsssscsssssssscssssssscsscsscsssssssssssssscscsssscscccssssscsccsssscsssssssssssssssssssssssssssssssssssssccssssssssssssscsscssssscsscsscssssssccsssssssssssssssssssssssscssssscsscssssssssscsssscsscscsssssssscssscssssssssssscsscssscsscssssssssscscscssssssscsscssssssssssssssssssscsssssssssssssssssssssssssssscssssscsssssssscsssssssscssssssscsssscssccsscsssccsssscsssssssssscsssssscssssssssssssscsssssssssscscsscsssssssscccssscsssssssssscsscsssssssssscscsscssssssscssscsscssssssssssssscsssssscsscsssscsscscsssssscssssssscscsssssccsscsssssssssscsssssscssssssssssscssssssssssscsssscsssscccsscssscscssssssssscssscssscssssscssscsscsssssscssssssssssssccssscscccscsssssssccsssscsscssscsssccssssssssssscssscsssscsscssssscssssssssscsssssssssccscscssssssssssssssscsscssssscsssscscssscsssscssssssscsssssscsscsscssssssssssscsscssssssscss"
       inkscape:export-filename="/Users/xunorus/xunserver/iurisnaturalis/design/solologo.png"
       inkscape:export-xdpi="96"
       inkscape:export-ydpi="96" />
    <text
       xml:space="preserve"
       style="font-weight:200;font-size:78.9922px;line-height:1.25;font-family:Montserrat;-inkscape-font-specification:'Montserrat Ultra-Light';fill:#6f42c1;fill-opacity:1;stroke:#6f42c1;stroke-width:1.02588;stroke-opacity:1"
       x="37.156952"
       y="105.43472"
       id="text995"
       inkscape:export-filename="/Users/xunorus/xunserver/iusdappv2/design/iusnaturalis.png"
       inkscape:export-xdpi="96"
       inkscape:export-ydpi="96"><tspan
         sodipodi:role="line"
         id="tspan993"
         style="font-style:normal;font-variant:normal;font-weight:normal;font-stretch:normal;font-size:78.9922px;font-family:Montserrat;-inkscape-font-specification:'Montserrat, @wght=300';font-variant-ligatures:normal;font-variant-caps:normal;font-variant-numeric:normal;font-variant-east-asian:normal;font-variation-settings:'wght' 300;fill:#6f42c1;fill-opacity:1;stroke:#6f42c1;stroke-width:1.02588;stroke-opacity:1"
         x="37.156952"
         y="105.43472">IUS NATURALIS</tspan></text>
    <text
       xml:space="preserve"
       style="font-weight:200;font-size:43.5402px;line-height:1.25;font-family:Montserrat;-inkscape-font-specification:'Montserrat Ultra-Light';fill:#6f42c1;fill-opacity:1;stroke:#6f42c1;stroke-width:0.565462;stroke-opacity:1"
       x="35.978653"
       y="200.20554"
       id="text914"
       inkscape:export-filename="/Users/xunorus/xunserver/iusdappv2/design/iusnaturalis.png"
       inkscape:export-xdpi="96"
       inkscape:export-ydpi="96"><tspan
         sodipodi:role="line"
         style="font-style:normal;font-variant:normal;font-weight:normal;font-stretch:normal;font-size:43.5402px;font-family:Montserrat;-inkscape-font-specification:'Montserrat, @wght=300';font-variant-ligatures:normal;font-variant-caps:normal;font-variant-numeric:normal;font-variant-east-asian:normal;font-variation-settings:'wght' 300;fill:#6f42c1;fill-opacity:1;stroke:#6f42c1;stroke-width:0.565462;stroke-opacity:1"
         x="35.978653"
         y="200.20554"
         id="tspan938">natural sovereigns</tspan></text>
  </g>
</svg>
