<?xml version="1.0" encoding="UTF-8" standalone="no"?>
<!-- Created with Inkscape (http://www.inkscape.org/) -->

<svg
   width="400"
   height="400"
   viewBox="0 0 105.83333 105.83334"
   version="1.1"
   id="svg5"
   inkscape:version="1.1.2 (b8e25be8, 2022-02-05)"
   sodipodi:docname="logoMETERCHAT.svg"
   inkscape:export-filename="/Users/xunorus/LOGOMETERCHAT.png"
   inkscape:export-xdpi="96"
   inkscape:export-ydpi="96"
   xmlns:inkscape="http://www.inkscape.org/namespaces/inkscape"
   xmlns:sodipodi="http://sodipodi.sourceforge.net/DTD/sodipodi-0.dtd"
   xmlns="http://www.w3.org/2000/svg"
   xmlns:svg="http://www.w3.org/2000/svg">
  <sodipodi:namedview
     id="namedview7"
     pagecolor="#ffffff"
     bordercolor="#666666"
     borderopacity="1.0"
     inkscape:pageshadow="2"
     inkscape:pageopacity="0.0"
     inkscape:pagecheckerboard="0"
     inkscape:document-units="mm"
     showgrid="false"
     units="px"
     inkscape:zoom="1"
     inkscape:cx="199.5"
     inkscape:cy="169.5"
     inkscape:window-width="1312"
     inkscape:window-height="819"
     inkscape:window-x="0"
     inkscape:window-y="1045"
     inkscape:window-maximized="0"
     inkscape:current-layer="layer1" />
  <defs
     id="defs2" />
  <g
     inkscape:label="Layer 1"
     inkscape:groupmode="layer"
     id="layer1">
    <path
       d="m 98.801676,42.111527 c 0,20.593297 -20.53953,37.279424 -45.882371,37.279424 -6.64936,0 -12.95818,-1.147063 -18.65763,-3.20818 -2.13281,1.55928 -5.60984,3.692092 -9.73208,5.48437 -4.30147,1.863973 -9.48116,3.459101 -14.6250097,3.459101 -1.16498,0 -2.2045,-0.698985 -2.65257,-1.774353 -0.44807,-1.075368 -0.19715,-2.294121 0.60938,-3.118567 v 0 0 0 0 l 0.0538,-0.05379 c 0.0538,-0.05379 0.12546,-0.12546 0.233,-0.250914 0.19715,-0.215074 0.50183,-0.555608 0.87821,-1.021603 0.73484,-0.896143 1.7205897,-2.222425 2.7242697,-3.871325 1.79227,-2.975182 3.49495,-6.882355 3.83547,-11.273439 -5.37684,-6.093752 -8.5491697,-13.567559 -8.5491697,-21.650741 0,-20.593296 20.5395297,-37.279421 45.8823697,-37.279421 25.342841,0 45.882361,16.686125 45.882361,37.279421 z"
       id="path2660"
       style="fill:#d17c78;fill-opacity:1;stroke-width:0.179228"
       sodipodi:nodetypes="csccsssccccsccccsscc" />
    <text
       xml:space="preserve"
       style="font-weight:200;font-size:12.6337px;line-height:1.25;font-family:Montserrat;-inkscape-font-specification:'Montserrat Ultra-Light';fill:#d17c78;fill-opacity:0.980392;stroke-width:0.164073"
       x="12.282922"
       y="102.74772"
       id="text781"><tspan
         sodipodi:role="line"
         id="tspan779"
         style="font-style:normal;font-variant:normal;font-weight:normal;font-stretch:normal;font-family:'Stinger Fit Trial';-inkscape-font-specification:'Stinger Fit Trial';fill:#d17c78;fill-opacity:0.980392;stroke-width:0.164073"
         x="12.282922"
         y="102.74772">METERCHAT</tspan></text>
  </g>
</svg>
