<?xml version="1.0" encoding="UTF-8" standalone="no"?>
<!-- Created with Inkscape (http://www.inkscape.org/) -->

<svg
   width="155.22966mm"
   height="156.03932mm"
   viewBox="0 0 155.22966 156.03932"
   version="1.1"
   id="svg5"
   inkscape:version="1.1.2 (b8e25be8, 2022-02-05)"
   sodipodi:docname="logoiuswhitecintexto.svg"
   inkscape:export-filename="/Users/xunorus/xunserver/iurisnaturalis/design/logoB.png"
   inkscape:export-xdpi="96"
   inkscape:export-ydpi="96"
   xmlns:inkscape="http://www.inkscape.org/namespaces/inkscape"
   xmlns:sodipodi="http://sodipodi.sourceforge.net/DTD/sodipodi-0.dtd"
   xmlns="http://www.w3.org/2000/svg"
   xmlns:svg="http://www.w3.org/2000/svg">
  <sodipodi:namedview
     id="namedview7"
     pagecolor="#ffffff"
     bordercolor="#666666"
     borderopacity="1.0"
     inkscape:pageshadow="2"
     inkscape:pageopacity="0.0"
     inkscape:pagecheckerboard="0"
     inkscape:document-units="mm"
     showgrid="false"
     inkscape:zoom="0.3267749"
     inkscape:cx="-68.854738"
     inkscape:cy="651.82485"
     inkscape:window-width="1440"
     inkscape:window-height="872"
     inkscape:window-x="0"
     inkscape:window-y="28"
     inkscape:window-maximized="0"
     inkscape:current-layer="layer1" />
  <defs
     id="defs2" />
  <g
     inkscape:label="Layer 1"
     inkscape:groupmode="layer"
     id="layer1"
     transform="translate(27.819465,22.151699)">
    <rect
       style="fill:#6f42c1;fill-opacity:1;stroke:#6f42c1;stroke-width:2.2;stroke-opacity:1;stop-color:#000000"
       id="rect119"
       width="153.02966"
       height="153.83932"
       x="-26.719465"
       y="-21.051699"
       inkscape:export-filename="/Users/xunorus/xunserver/iurisnaturalis/design/blogo.png"
       inkscape:export-xdpi="96"
       inkscape:export-ydpi="96" />
    <g
       id="g1430"
       transform="matrix(0.78569959,0,0,0.78569959,11.357923,2.9087338)"
       inkscape:export-filename="/Users/xunorus/xunserver/iusdappv2/design/logowt.png"
       inkscape:export-xdpi="96"
       inkscape:export-ydpi="96">
      <path
         style="fill:#ffffff;fill-opacity:1;stroke-width:0.264583"
         d="M 44.530615,105.21935 C 33.189925,103.17152 24.350696,98.727095 16.389107,91.069586 8.4835315,83.465953 3.4189895,74.330996 1.0632895,63.426279 0.38144746,60.269982 0.34800346,59.769301 0.35597346,52.837294 c 0.008,-6.958793 0.04008,-7.417247 0.73564004,-10.514579 1.897505,-8.449527 5.767385,-16.600078 10.7735055,-22.690629 1.912129,-2.326336 6.759986,-7.06091 8.852996,-8.646123 6.331511,-4.7953853 13.880494,-8.2369342 21.822474,-9.9487694 3.137595,-0.67628595 3.691046,-0.71408065 10.456692,-0.71408065 6.76565,0 7.3191,0.037795 10.45669,0.71408065 7.78238,1.6774334 14.93875,4.8880601 21.23278,9.5258474 2.74282,2.021058 7.67421,6.829594 9.84345,9.598211 5.08504,6.490071 8.622079,14.093516 10.397739,22.351641 0.67119,3.12153 0.71261,3.718046 0.71689,10.324401 0.005,8.093046 -0.31172,10.294692 -2.39799,16.657034 -5.179699,15.796133 -17.695749,28.368317 -33.503189,33.653472 -5.8711,1.96297 -8.48141,2.37424 -15.82033,2.49258 -5.619263,0.0906 -6.869769,0.0345 -9.392706,-0.42103 z m 14.494286,-0.547 c 3.02667,-1.01625 6.51525,-3.62844 8.35018,-6.252465 l 0.59564,-0.85178 -0.73984,-0.14111 c -4.96943,-0.94778 -7.88801,-2.35272 -10.68898,-5.145448 -1.1064,-1.103141 -2.21395,-2.303367 -2.46123,-2.66717 l -0.44958,-0.661458 -0.82551,1.058333 c -3.343535,4.286523 -7.175461,6.473833 -12.97395,7.405713 -0.879382,0.14133 -0.96347,0.21845 -0.72467,0.66465 0.586518,1.09591 3.263916,3.699565 4.901507,4.766495 3.083737,2.00914 4.398809,2.34706 9.195603,2.36289 3.55661,0.0117 4.4194,-0.0681 5.82083,-0.53865 z M 44.697985,103.9707 c -2.037749,-1.20549 -4.430884,-3.33485 -5.716987,-5.086875 -0.852757,-1.16168 -1.091673,-1.32097 -2.201394,-1.46771 -1.895464,-0.25064 -4.75788,-1.13822 -6.645952,-2.06077 -1.91288,-0.93468 -5.693596,-4.33199 -6.511939,-5.851563 -0.483135,-0.897128 -0.582627,-0.947738 -1.863108,-0.947738 -2.829031,0 -6.67093,-1.365816 -9.491787,-3.374385 l -1.307547,-0.931026 0.907138,1.160518 c 1.525658,1.951802 6.093115,6.55152 8.190248,8.248094 6.631704,5.36504 14.262896,8.898485 23.283333,10.780815 3.165703,0.6606 3.230335,0.63826 1.357995,-0.46936 z m 19.745906,0.0423 c 7.24815,-1.62563 13.92991,-4.694075 19.97828,-9.174565 2.19409,-1.625339 7.73771,-6.848724 8.70649,-8.203555 l 0.52239,-0.730546 -0.90465,0.533754 c -1.49314,0.880976 -4.70808,1.87162 -6.61649,2.03879 l -1.79236,0.157003 -1.30748,1.663735 c -3.1437,4.000289 -7.15606,6.296259 -12.2607,7.015889 l -2.16167,0.30475 -1.00293,1.42132 c -1.08304,1.534845 -3.44185,3.627475 -5.3482,4.744665 -1.91584,1.12275 -1.83598,1.13111 2.18732,0.22876 z M 36.885723,95.035275 c -1.549138,-3.869677 -1.554623,-9.083744 -0.01363,-12.961523 0.115657,-0.291041 -0.753136,0.38539 -1.930651,1.503183 -2.611734,2.479268 -5.561992,4.02214 -8.945927,4.678373 -1.228119,0.238165 -2.233336,0.514414 -2.233813,0.613884 -4.77e-4,0.09947 0.937044,1.171032 2.083383,2.38125 2.337319,2.467563 4.560204,3.927525 7.218432,4.740943 0.490531,0.150103 1.050025,0.297861 1.602533,0.428483 1.358156,0.321089 2.674094,0.538624 2.81967,0.432867 0.05436,-0.03949 -0.21563,-0.85735 -0.599988,-1.81746 z m 5.935988,1.15415 c 3.609139,-0.93659 7.615732,-3.721699 9.74417,-6.773485 l 0.59973,-0.859896 h -1.03403 c -3.969086,0 -9.718715,-2.972292 -12.505592,-6.464808 -0.646983,-0.8108 -1.291027,-1.435947 -1.431211,-1.389219 -0.140181,0.04673 -0.606576,1.088859 -1.036431,2.315848 -0.696529,1.988193 -0.782084,2.57629 -0.786453,5.405887 -0.0051,3.283014 0.287875,4.805786 1.414447,7.352593 l 0.54569,1.23362 1.247209,-0.15138 c 0.685964,-0.0833 2.145077,-0.38439 3.242471,-0.66916 z m 30.11871,0.14099 c 2.85154,-0.63195 5.68843,-2.29499 8.16884,-4.788731 2.32352,-2.336006 2.64383,-2.98564 1.47211,-2.98564 -1.35017,0 -4.19147,-0.843576 -6.30076,-1.870686 -2.31693,-1.128223 -4.37324,-2.784941 -6.03108,-4.859099 -0.58908,-0.737005 -0.97747,-1.101882 -0.86311,-0.81084 2.0493,5.215046 2.16694,9.12472 0.4187,13.915016 l -0.74236,2.03412 1.09539,-0.13015 c 0.60246,-0.0716 1.85448,-0.29837 2.78227,-0.50399 z m -3.93039,-0.77565 c 1.07289,-2.502945 1.37265,-4.321958 1.26236,-7.660179 -0.0853,-2.5815 -0.23512,-3.538612 -0.80151,-5.120188 -0.38314,-1.069853 -0.75467,-2.003248 -0.82563,-2.074206 -0.071,-0.07096 -1.23953,0.991134 -2.59683,2.36021 -1.81855,1.834338 -2.96896,2.747436 -4.37268,3.470677 -1.93349,0.996196 -5.3606,2.024965 -6.74572,2.024965 -0.70466,0 -0.73781,0.04388 -0.44974,0.595313 0.17105,0.327421 1.27657,1.55045 2.45671,2.717839 3.02475,2.992079 6.89303,4.798259 10.42334,4.866889 1.1003,0.0214 1.14916,-0.0136 1.6497,-1.18132 z M 22.42407,87.471856 c -0.638533,-1.19311 -1.299365,-3.527039 -1.580947,-5.58359 -0.446335,-3.259849 0.101771,-6.567257 1.707533,-10.303684 0.158047,-0.367758 -0.07141,-0.464365 -1.484255,-0.62492 -4.732496,-0.537794 -9.389666,-3.066317 -12.1938835,-6.620441 -0.615442,-0.780023 -1.194488,-1.424871 -1.286768,-1.432994 -0.311193,-0.02739 -1.484003,3.541784 -1.816862,5.529191 -1.1655,6.958878 2.794977,14.611964 9.1703575,17.720477 2.056075,1.002504 5.040055,1.835753 6.648075,1.856414 1.071004,0.01376 1.11734,-0.01617 0.83675,-0.540453 z m 4.350495,0.03326 c 3.274163,-0.83739 5.519793,-2.159317 8.164904,-4.80641 1.273308,-1.27426 2.315104,-2.423398 2.315104,-2.553639 0,-0.130242 -0.982265,-0.429454 -2.182812,-0.664914 -1.412581,-0.277048 -3.069746,-0.866651 -4.696354,-1.670915 -2.12688,-1.051619 -2.871843,-1.60732 -4.842722,-3.612396 -1.281049,-1.303277 -2.39009,-2.308683 -2.464534,-2.23424 -0.07444,0.07445 -0.447385,1.01069 -0.828757,2.080543 -0.535735,1.502884 -0.719153,2.597005 -0.806645,4.811776 -0.128326,3.24843 0.194667,5.313394 1.190123,7.608726 0.794062,1.830951 0.930765,1.865244 4.151693,1.041469 z m 25.502849,-1.661051 c -1.326608,-3.552203 -1.345499,-8.827916 -0.04382,-12.236979 0.111128,-0.291042 -0.724207,0.332883 -1.856298,1.386501 -1.307034,1.216433 -2.749732,2.254687 -3.952515,2.844469 -1.945267,0.953858 -5.496766,1.986738 -6.831282,1.986738 -0.413285,0 -0.751428,0.100536 -0.751428,0.223417 0,0.420981 2.729641,3.347955 4.161579,4.462436 0.787212,0.612688 2.048134,1.414915 2.802046,1.782723 1.629373,0.794919 4.948039,1.698514 6.313207,1.718939 l 0.973708,0.01458 -0.815199,-2.182812 z m 5.188817,1.661054 c 3.10234,-0.793443 5.53318,-2.183233 7.85977,-4.493678 1.10549,-1.097812 2.14562,-2.252969 2.3114,-2.567017 0.28612,-0.541999 0.23165,-0.580591 -1.07274,-0.759989 -3.75421,-0.516337 -7.3732,-2.348515 -10.62981,-5.381548 -0.73278,-0.682472 -0.97501,-0.807254 -0.83708,-0.431218 1.41318,3.852767 1.11176,9.195631 -0.77246,13.692188 -0.26241,0.626229 0.51993,0.6116 3.14092,-0.05874 z m 26.5565,0.191029 c 0.14646,-0.181901 0.58604,-1.223698 0.97683,-2.315104 1.36583,-3.814463 1.17627,-8.984861 -0.45945,-12.531683 l -0.59349,-1.286888 -1.25315,1.595072 c -2.47122,3.14546 -6.38953,5.460672 -10.72362,6.336274 l -2.41579,0.48805 1.14313,1.45646 c 1.52967,1.948969 3.35648,3.478877 5.50816,4.612971 2.91896,1.53851 7.18097,2.435272 7.81738,1.644848 z m 5.56384,-0.593606 c 4.44056,-1.40277 6.49091,-3.506112 9.96709,-10.22468 l 1.730079,-3.343809 v -2.368555 c 0,-2.369088 -0.56329,-5.225109 -1.435049,-7.276005 l -0.41925,-0.98634 -2.44629,2.454018 c -3.41211,3.422891 -6.58044,5.00525 -11.21961,5.603409 l -1.36498,0.175999 0.64906,1.467657 c 1.11742,2.526675 1.48412,4.661442 1.35393,7.882016 -0.11063,2.736546 -0.5285,4.533858 -1.6552,7.119237 -0.20625,0.473271 -0.12731,0.493768 1.26946,0.329604 0.81917,-0.09628 2.42601,-0.470923 3.57076,-0.832551 z m -34.97202,-2.052227 c 0.61214,-1.870758 0.71531,-2.636708 0.7217,-5.357813 0.007,-2.759736 -0.0869,-3.460493 -0.71425,-5.357812 -0.39693,-1.200547 -0.82703,-2.182813 -0.95576,-2.182813 -0.26722,0 -1.20979,2.400187 -1.590778,4.050824 -0.430991,1.86726 -0.317992,5.724787 0.226756,7.741029 0.638442,2.362988 1.015392,3.289397 1.338462,3.289397 0.14279,0 0.58103,-0.982265 0.97387,-2.182812 z M 37.394543,78.832607 c -1.377701,-3.519874 -1.568434,-4.45375 -1.580618,-7.739063 -0.01167,-3.14384 0.126063,-4.009456 1.082418,-6.80321 0.08902,-0.260056 -0.393364,0.146373 -1.071969,0.903176 -2.402092,2.678893 -6.466412,4.852512 -10.556552,5.645698 -1.371827,0.266033 -1.499944,0.344903 -1.200561,0.739095 3.185277,4.193982 6.340293,6.303912 10.938354,7.315081 2.283836,0.502243 2.606088,0.494043 2.388928,-0.06078 z m 4.302956,0.04865 c 1.121651,-0.227902 3.046936,-0.898398 4.27841,-1.489988 1.835801,-0.881907 2.669604,-1.50618 4.629762,-3.466338 1.381146,-1.381146 2.24973,-2.437712 2.05686,-2.502001 -0.18362,-0.06121 -1.314511,0.08403 -2.513092,0.322745 -3.955108,0.78772 -7.951547,3.25674 -10.519431,6.498957 -0.972995,1.228508 -0.92233,1.244108 2.067491,0.636625 z m 25.690152,-0.180942 c -0.17195,-0.327422 -1.11907,-1.380739 -2.10472,-2.340705 -2.62751,-2.559048 -5.55032,-3.984025 -10.00965,-4.880063 l -0.89899,-0.180641 0.6222,0.889508 c 2.07548,2.967117 6.59588,5.901589 10.30392,6.688918 2.46776,0.523981 2.45589,0.524986 2.08724,-0.177017 z m 5.96366,-0.103823 c 3.49032,-0.885986 6.81754,-3.148991 9.34608,-6.356728 l 0.86053,-1.091679 -1.78529,-0.310893 c -4.85649,-0.845722 -8.6905,-3.061549 -11.63703,-6.725491 l -0.82729,-1.028719 0.62846,1.73137 c 1.44072,3.969155 1.43773,8.024439 -0.009,12.216016 -0.36224,1.049491 -0.65862,2.002031 -0.65862,2.116754 0,0.253437 1.95161,-0.0098 4.08215,-0.55063 z M 38.820793,76.580775 c 0.825659,-2.482123 1.163309,-5.739635 0.822568,-7.935775 -0.293843,-1.893864 -1.140785,-4.61137 -1.571386,-5.041971 -0.15072,-0.15072 -0.527487,0.608597 -0.976972,1.968944 -0.636757,1.927117 -0.7312,2.626035 -0.728239,5.389279 0.003,2.775948 0.09643,3.448717 0.743582,5.352788 0.407102,1.197785 0.834941,2.119226 0.950757,2.047648 0.115816,-0.07158 0.457676,-0.87299 0.75969,-1.780913 z m 28.638998,0.135165 c -0.62537,-1.629648 -0.68617,-2.133248 -0.69476,-5.754688 -0.008,-3.485848 0.063,-4.160795 0.5859,-5.547079 0.32742,-0.868082 0.59531,-1.628561 0.59531,-1.689952 0,-0.06139 -0.74414,0.648859 -1.65365,1.578329 -2.71949,2.779202 -5.85618,4.582952 -9.18904,5.284156 l -1.44998,0.305064 1.88054,0.477568 c 3.4848,0.884976 7.13473,3.147507 9.3875,5.819148 0.6091,0.722365 1.13358,1.313391 1.1655,1.313391 0.0319,0 -0.25037,-0.803671 -0.62732,-1.785937 z M 43.965888,73.624263 c 1.846144,-1.147125 5.340747,-2.507063 6.564503,-2.554603 0.338143,-0.01312 -0.16747,-0.232738 -1.123587,-0.488005 -3.565946,-0.952048 -7.026749,-3.018589 -9.312222,-5.560587 l -1.198491,-1.333008 0.658971,1.894867 c 0.567005,1.630426 0.658934,2.35948 0.65873,5.224095 -1.98e-4,2.805821 -0.102089,3.64676 -0.648088,5.348927 l -0.647851,2.019697 1.580197,-1.689235 c 0.869109,-0.929079 2.429637,-2.217047 3.467838,-2.862148 z m 25.566293,2.835989 c 0.84339,-2.730572 1.08926,-5.031891 0.79023,-7.396607 -0.27442,-2.170152 -1.21143,-5.378434 -1.57081,-5.378434 -0.11541,0 -0.49266,0.863203 -0.83833,1.918229 -0.91204,2.78366 -0.90587,7.655875 0.0134,10.587098 0.35304,1.125715 0.73521,2.046756 0.84927,2.046756 0.11405,0 0.45436,-0.799669 0.75624,-1.777042 z M 5.0507105,72.218023 c -0.180333,-2.655636 0.24896,-5.329663 1.277471,-7.957246 l 0.824355,-2.106019 -0.860368,-2.211335 c -1.580512,-4.062264 -1.574148,-9.325676 0.01617,-13.369301 l 0.850342,-2.16213 -0.850644,-2.043337 C 5.6860715,40.87463 5.3918395,39.642108 5.2135525,37.78391 4.9906435,35.460643 5.0116435,34.750822 5.3865885,31.935211 l 0.123318,-0.926042 -0.380414,0.674973 c -0.584644,1.037344 -2.507696,6.742195 -3.082752,9.14517 -0.883648,3.692485 -1.32569804,7.732805 -1.32826504,12.140274 -0.0038,6.494415 0.92700304,11.87128 3.06935604,17.730745 0.53132,1.453195 1.029771,2.850531 1.107667,3.105192 0.259612,0.848731 0.295633,0.480325 0.155216,-1.5875 z M 102.70558,69.307607 c 3.39408,-10.363671 3.48648,-21.591561 0.26253,-31.899728 -0.37248,-1.190956 -0.76678,-2.260486 -0.87622,-2.376731 -0.10944,-0.116245 -0.26733,0.836255 -0.35088,2.116667 -0.11199,1.716428 -0.39393,2.995795 -1.07322,4.869897 l -0.921329,2.541873 0.649689,1.559168 c 0.92333,2.215904 1.40685,4.662467 1.41216,7.145449 0.006,2.716472 -0.30958,4.371991 -1.3079,6.865173 l -0.793449,1.981546 0.755649,1.911626 c 0.91095,2.304502 1.3503,4.26508 1.3503,6.025687 0,0.720441 0.0498,1.309893 0.11056,1.309893 0.0608,0 0.41276,-0.922734 0.78211,-2.05052 z M 22.284332,69.57219 c -1.158589,-2.703145 -1.249756,-3.161049 -1.356445,-6.813021 -0.113163,-3.873529 0.04431,-4.894585 1.188258,-7.704595 l 0.551452,-1.354595 -1.239324,0.124124 c -4.878906,0.488643 -9.698347,3.109978 -12.3564755,6.720789 l -1.179194,1.601822 1.1987,1.557801 c 3.0195225,3.924096 7.8951725,6.454973 13.1517165,6.826853 0.438668,0.03104 0.441139,-0.02633 0.04131,-0.959178 z m 30.084141,0.24429 c -0.933805,-1.311408 -4.137287,-4.166958 -5.615339,-5.005451 -2.382841,-1.351778 -7.646477,-2.699938 -7.646477,-1.958467 0,0.16162 0.922734,1.222872 2.050521,2.358339 2.855124,2.874566 6.033238,4.493684 9.98802,5.088491 0.727605,0.109432 1.420323,0.213823 1.539373,0.231976 0.11905,0.01815 -0.0232,-0.303543 -0.316098,-0.714888 z m 30.761968,0.417168 c -0.61029,-1.046586 -2.46677,-2.986436 -3.88908,-4.06373 -1.9799,-1.499637 -4.35192,-2.619335 -6.70499,-3.165046 -2.97436,-0.689801 -3.06726,-0.527791 -0.9861,1.719532 2.82375,3.049196 5.4311,4.528323 9.53354,5.408292 2.30513,0.494449 2.27523,0.492975 2.04663,0.100952 z m 5.32101,-0.380777 c 3.46489,-0.856721 7.78948,-3.810683 9.7765,-6.677949 l 0.73344,-1.058362 -0.97574,-1.329222 c -2.00845,-2.736062 -5.34393,-5.099981 -8.74045,-6.194541 -1.27714,-0.41157 -4.63021,-0.974757 -4.63021,-0.777698 0,0.05306 0.2862,0.777496 0.63599,1.609854 0.97301,2.315327 1.29935,4.473105 1.15896,7.663106 -0.11695,2.657359 -0.48951,4.236908 -1.64883,6.990758 -0.16098,0.382386 -0.0345,0.422418 0.9587,0.303527 0.62928,-0.07532 1.85851,-0.313587 2.73164,-0.529473 z m -61.637362,0.03985 c 2.199272,-0.567724 4.465539,-1.680712 6.394005,-3.140162 1.708989,-1.293352 4.010507,-3.917185 3.56597,-4.065363 -0.615567,-0.205189 -4.071946,0.842542 -6.134074,1.859421 -1.697683,0.83716 -2.751592,1.603692 -4.299479,3.127105 -2.772124,2.728296 -2.705665,3.039695 0.473578,2.218999 z m 31.081422,-0.140827 c 2.39548,-0.663823 4.43402,-1.719699 6.34228,-3.28504 1.387,-1.137759 3.52254,-3.584911 3.31207,-3.795376 -0.20683,-0.206841 -4.26671,0.829056 -5.65482,1.442855 -1.98424,0.877392 -4.52886,2.751171 -5.96386,4.391593 -0.66776,0.76335 -1.21411,1.479249 -1.21411,1.590887 0,0.346935 1.12065,0.225322 3.17844,-0.344919 z m -33.089528,-1.33836 c 2.547676,-2.894309 5.726671,-4.913239 9.104797,-5.782313 1.038722,-0.267226 1.709991,-0.540866 1.49171,-0.608089 -0.218281,-0.06722 -1.11125,-0.32861 -1.984375,-0.580861 -2.997398,-0.865968 -5.108824,-2.183461 -7.763355,-4.844198 -1.359429,-1.362609 -2.513704,-2.435455 -2.565055,-2.384102 -0.05135,0.05135 -0.457138,1.179152 -0.901749,2.506226 -0.697117,2.080757 -0.807492,2.78987 -0.801915,5.151958 0.0036,1.506506 0.124789,3.274881 0.269404,3.929724 0.340156,1.540299 1.325942,4.233334 1.549612,4.233334 0.09541,0 0.815822,-0.729755 1.600926,-1.621679 z m 60.186048,-0.64633 c 0.70207,-1.902888 0.77576,-2.416923 0.79375,-5.5372 0.0171,-2.963029 -0.0676,-3.696189 -0.61096,-5.291666 -1.06691,-3.132585 -0.83553,-3.09186 -3.28713,-0.57853 -2.4482,2.509837 -4.90245,4.085148 -7.72374,4.957651 -1.01865,0.315024 -2.03068,0.633746 -2.24896,0.708274 -0.21828,0.07453 0.29531,0.298767 1.14131,0.498308 3.27827,0.773221 7.41942,3.410622 9.50823,6.055569 0.61843,0.783085 1.24348,1.392611 1.389,1.3545 0.14552,-0.03811 0.61285,-1.013214 1.0385,-2.166906 z m -30.39698,-0.179389 c 0.64649,-1.90223 0.74315,-2.590935 0.75195,-5.357813 0.0103,-3.231671 -0.57722,-6.114563 -1.50454,-7.382737 -0.32732,-0.447643 -0.40789,-0.355156 -0.92772,1.065011 -0.3131,0.855374 -0.687598,2.091008 -0.832214,2.745851 -0.398256,1.80339 -0.326861,5.679967 0.137623,7.472471 0.512741,1.978721 1.166421,3.640029 1.432261,3.640029 0.11044,0 0.53463,-0.982265 0.94264,-2.182812 z m -2.689676,-0.223311 c -0.691216,-1.847718 -0.789217,-7.294962 -0.17373,-9.656323 l 0.488976,-1.875986 -2.125213,1.810483 c -2.370857,2.019752 -5.145693,3.518069 -7.385359,3.987845 -0.8177,0.171513 -1.486726,0.379253 -1.486726,0.461645 0,0.08239 0.68461,0.308245 1.521355,0.501898 2.817452,0.652063 5.835221,2.423319 8.119985,4.765961 0.718831,0.737039 1.345182,1.301859 1.391889,1.255152 0.04671,-0.04671 -0.111321,-0.609513 -0.351177,-1.250675 z m 7.214836,-2.382189 c 1.51432,-1.041877 3.77225,-2.033511 5.6289,-2.472098 0.81254,-0.191939 1.29874,-0.406619 1.08046,-0.477067 -0.21828,-0.07045 -1.23031,-0.380183 -2.24896,-0.688295 -2.38032,-0.719982 -4.77525,-2.144655 -6.96276,-4.141936 -0.97782,-0.892781 -1.64848,-1.355926 -1.53254,-1.058333 1.19494,3.067058 1.19548,8.823917 0.001,11.90625 -0.12225,0.315502 0.41489,-0.0349 1.33029,-0.867823 0.84444,-0.768342 2.06101,-1.758656 2.7035,-2.200698 z M 36.418622,60.708648 C 34.093887,57.417523 29.44351,54.634588 25.229948,54.012989 l -1.309,-0.193109 0.850345,1.073647 c 1.380116,1.742538 3.541359,3.578252 5.360065,4.552723 1.731211,0.927589 5.172326,2.082482 6.281335,2.108118 l 0.613331,0.01418 -0.607402,-0.859895 z m 7.522684,-0.05558 c 1.003586,-0.349012 2.478154,-1.029949 3.276814,-1.513192 1.559021,-0.943314 4.119645,-3.278227 5.046454,-4.601628 l 0.569077,-0.812586 -1.733281,0.232225 c -2.136883,0.286303 -4.629772,1.172589 -6.614102,2.351485 -1.509635,0.896876 -5.379611,4.532317 -5.379611,5.053586 0,0.424876 2.720125,0.02548 4.834649,-0.70989 z m 23.239935,0.162102 c -0.90886,-1.276379 -3.86607,-3.895283 -5.35804,-4.745088 -2.47157,-1.407766 -7.10613,-2.662504 -7.10613,-1.92388 0,0.170862 0.92274,1.230476 2.05052,2.354693 1.57497,1.56998 2.5721,2.300968 4.29948,3.151905 2.12326,1.045953 4.6692,1.844529 6.03729,1.8937 l 0.61333,0.02204 z m 5.89541,0.231614 c 3.06474,-0.783828 5.50931,-2.192478 7.89475,-4.549238 1.13085,-1.117251 2.05609,-2.159741 2.05609,-2.316644 0,-0.427474 -0.97777,-0.347038 -3.18032,0.261628 -3.79468,1.048644 -6.88609,3.076567 -9.26091,6.075021 l -0.8324,1.050991 h 0.64136 c 0.35276,0 1.5594,-0.234791 2.68143,-0.521758 z M 8.8033645,59.958218 c 2.3009735,-3.017236 6.3527615,-5.494207 10.5918335,-6.475084 0.747453,-0.172953 0.707581,-0.20392 -0.683585,-0.530913 -3.410092,-0.801542 -6.606257,-2.744417 -9.2986175,-5.652418 -0.952663,-1.028962 -1.791236,-1.870842 -1.863497,-1.870842 -0.177119,0 -1.148889,2.493224 -1.546876,3.96875 -0.404835,1.500912 -0.397823,6.364084 0.01144,7.9375 0.416452,1.601036 1.361172,3.96875 1.583535,3.96875 0.09872,0 0.641311,-0.605584 1.205764,-1.345743 z M 100.39916,58.790419 c 0.65367,-1.873507 0.7393,-2.496606 0.7454,-5.423958 0.006,-2.936402 -0.0752,-3.54466 -0.72485,-5.423959 -0.40246,-1.164166 -0.828479,-2.26918 -0.946719,-2.45559 -0.15215,-0.239866 -0.5762,0.120852 -1.45092,1.234226 -2.19916,2.799183 -5.93004,5.190292 -9.52162,6.102385 -1.90068,0.482682 -1.89397,0.559387 0.0833,0.951801 2.74925,0.545624 6.75293,3.086341 9.16361,5.815177 0.83559,0.945866 1.60791,1.629044 1.71627,1.518171 0.10837,-0.110871 0.52936,-1.154086 0.935539,-2.318253 z M 67.476571,59.25344 c -0.66395,-1.668854 -0.71043,-2.054794 -0.70898,-5.886979 0.001,-3.782476 0.0551,-4.240083 0.69101,-5.890998 l 0.68946,-1.78996 -1.56846,1.711696 c -2.51429,2.743912 -6.06792,4.857895 -9.34899,5.561531 l -1.5875,0.340447 1.05834,0.196564 c 3.73944,0.694529 9.01328,4.04504 10.90035,6.925072 0.6579,1.004084 0.62807,0.726062 -0.12523,-1.167373 z m 8.53946,-3.95365 c 1.93108,-0.994394 2.61354,-1.238806 5.02708,-1.80036 0.72144,-0.167857 0.62171,-0.228759 -1.09483,-0.668515 -3.34744,-0.85757 -6.9172,-3.028939 -9.21732,-5.606592 -0.68635,-0.769168 -1.16075,-1.160362 -1.05422,-0.869321 0.94775,2.589221 1.22804,4.16586 1.24648,7.011459 0.0175,2.705248 -0.0662,3.292136 -0.75473,5.291666 l -0.77445,2.248959 2.25266,-2.258669 c 1.68485,-1.689341 2.7862,-2.533406 4.36933,-3.348627 z m -37.371525,4.218233 c 0.843304,-2.430084 1.030674,-3.602188 1.023054,-6.399768 -0.0062,-2.287979 -0.137583,-3.234539 -0.692682,-4.991743 -0.376748,-1.192612 -0.790321,-2.168385 -0.919056,-2.168385 -0.366287,0 -1.233258,2.57886 -1.595163,4.744906 -0.200599,1.200618 -0.25922,2.732503 -0.150487,3.932428 0.180205,1.988613 1.327791,6.139333 1.697395,6.139333 0.110442,0 0.397066,-0.565547 0.636939,-1.256771 z m 4.875425,-3.221855 c 1.808144,-1.187029 4.472662,-2.328407 6.566934,-2.813026 0.736089,-0.170331 0.678429,-0.210585 -0.79375,-0.554112 -2.732664,-0.637659 -5.753656,-2.326645 -8.086005,-4.520752 -1.155248,-1.086776 -2.098916,-1.933821 -2.09704,-1.882323 0.0019,0.0515 0.248216,0.867537 0.547418,1.813422 0.845071,2.671575 0.787503,7.714129 -0.11779,10.31729 l -0.670907,1.929199 1.327939,-1.489914 c 0.730366,-0.819454 2.225807,-2.079358 3.323201,-2.799784 z m 25.98763,2.560397 c 0.81925,-2.480598 1.11704,-5.132964 0.82946,-7.387712 -0.29382,-2.303621 -1.26268,-5.585073 -1.58939,-5.383154 -0.12705,0.07852 -0.50816,0.945139 -0.84692,1.925823 -0.88488,2.561643 -0.89129,7.78615 -0.013,10.58046 0.33161,1.055026 0.70886,1.918229 0.83832,1.918229 0.12947,0 0.48116,-0.744141 0.78153,-1.653646 z M 36.40705,58.507138 c -0.485667,-1.322208 -0.576448,-2.130251 -0.577533,-5.140677 -0.0011,-3.108727 0.08273,-3.813427 0.646673,-5.434751 l 0.647965,-1.862878 -1.415193,1.528577 c -2.41976,2.613631 -5.964121,4.660688 -9.294434,5.368033 l -1.447337,0.307409 1.824223,0.458232 c 3.487835,0.876115 7.674594,3.433453 9.361979,5.718445 0.340236,0.460732 0.66615,0.790157 0.724255,0.732054 0.0581,-0.0581 -0.153665,-0.811606 -0.470598,-1.674444 z M 21.81429,50.786773 c -0.812312,-2.00298 -0.831592,-2.148665 -0.831592,-6.283854 0,-4.135189 0.01928,-4.280874 0.831592,-6.283854 l 0.831592,-2.050521 h -0.779361 c -1.532267,0 -4.624054,0.858719 -6.756313,1.87651 -2.311865,1.103521 -4.806227,3.178871 -6.3169005,5.255762 l -0.857679,1.179148 0.759603,1.104045 c 2.6528415,3.855776 8.5417095,7.135249 12.9867675,7.232251 l 0.963883,0.02103 z m 6.381212,1.096008 c 2.415061,-0.803365 4.654672,-2.263315 6.810113,-4.439354 2.358628,-2.381168 2.314416,-2.612237 -0.385254,-2.013577 -3.22884,0.716002 -7.15164,3.05386 -9.156755,5.457118 -0.591439,0.708877 -1.152431,1.418958 -1.24665,1.577954 -0.216964,0.366136 2.183908,0.01484 3.978546,-0.582141 z m 24.126365,0.226909 c -3.778904,-4.327512 -6.738253,-6.102112 -11.589036,-6.949477 -0.924616,-0.161518 -1.741271,-0.233519 -1.814785,-0.160002 -0.07352,0.07352 0.921112,1.195383 2.210284,2.49304 1.902473,1.91499 2.767539,2.566921 4.59291,3.461308 2.148123,1.052526 4.800047,1.816513 6.462265,1.861701 l 0.773726,0.02103 z m 6.420714,-0.242118 c 2.51278,-0.781568 5.5217,-2.742311 7.34141,-4.783979 0.7332,-0.822623 1.33308,-1.607158 1.33308,-1.743411 0,-0.34844 -2.19107,-0.01357 -4.13986,0.632722 -2.93433,0.973127 -6.56833,3.644969 -8.33821,6.130544 l -0.5322,0.747406 1.14732,-0.17421 c 0.63103,-0.09581 2.06584,-0.459896 3.18846,-0.809072 z m 23.77361,-0.06605 c -1.21886,-1.538933 -3.62444,-3.659174 -5.15233,-4.541184 -2.27304,-1.312161 -7.88575,-2.854838 -7.40777,-2.036053 1.13468,1.943692 4.46675,4.816369 6.88332,5.934318 1.45535,0.673277 4.87219,1.640361 5.87958,1.664126 0.61098,0.01442 0.60883,0.0035 -0.2028,-1.021207 z m 5.13392,0.635873 c 2.30777,-0.488849 5.07231,-1.797791 7.20468,-3.411246 1.77692,-1.344507 4.15261,-4.254273 3.87606,-4.747451 -1.95261,-3.482221 -6.69323,-6.780855 -11.08074,-7.710249 -2.53911,-0.53785 -3.14499,-0.524637 -2.89404,0.06312 1.51102,3.53891 1.55574,3.765135 1.55574,7.871354 0,4.10622 -0.0447,4.332444 -1.55574,7.871354 -0.25095,0.587756 0.35493,0.60097 2.89404,0.06312 z M 24.785648,50.797317 c 2.230699,-2.737122 6.412372,-5.284515 9.792826,-5.965592 l 1.689526,-0.3404 -1.689526,-0.348279 c -3.572314,-0.736398 -7.666508,-3.260555 -9.981849,-6.15402 -0.675275,-0.843886 -1.327803,-1.434312 -1.450061,-1.312053 -0.122258,0.122259 -0.527913,1.040143 -0.901456,2.039744 -0.90409,2.419345 -1.149343,7.311367 -0.494656,9.866855 0.556098,2.170666 1.434765,4.151461 1.70238,3.837707 0.115142,-0.134993 0.714908,-0.865774 1.332816,-1.623962 z m 60.246433,-0.738145 c 1.33525,-3.940323 1.12995,-8.733382 -0.54233,-12.661567 l -0.43419,-1.019897 -1.98222,2.133669 c -1.177,1.266931 -2.75617,2.614589 -3.88747,3.317557 -1.86892,1.161307 -5.36764,2.522699 -6.58212,2.561175 -0.33814,0.01072 0.21864,0.231989 1.23728,0.491726 3.77488,0.96253 6.4464,2.591604 9.28526,5.662062 1.00498,1.086969 1.90853,1.898827 2.00788,1.804125 0.0994,-0.0947 0.50342,-1.124683 0.89791,-2.28885 z m -30.41132,-0.19844 c 0.62293,-1.887326 0.72046,-2.612613 0.72046,-5.357813 0,-2.7452 -0.0975,-3.470487 -0.72046,-5.357812 -0.39625,-1.200547 -0.82579,-2.182813 -0.95452,-2.182813 -0.26722,0 -1.20979,2.400186 -1.590778,4.050824 -0.329806,1.428879 -0.329806,5.550723 0,6.979602 0.380988,1.650638 1.323558,4.050824 1.590778,4.050824 0.12873,0 0.55827,-0.982266 0.95452,-2.182812 z m -2.713049,-0.223311 c -0.635815,-1.70878 -0.792583,-6.780295 -0.277307,-8.97096 0.222488,-0.945886 0.494355,-1.957917 0.604149,-2.248959 0.114044,-0.302297 -0.527912,0.141029 -1.497335,1.034037 -2.869412,2.643235 -5.948347,4.286068 -8.974431,4.788498 l -1.180325,0.195974 1.974075,0.49969 c 3.249393,0.822505 6.321658,2.62206 8.702868,5.097642 0.499374,0.519168 0.947131,0.904767 0.99501,0.856885 0.04788,-0.04788 -0.108135,-0.611645 -0.346704,-1.252807 z m 5.587489,-0.986838 c 1.85785,-1.654905 5.1299,-3.311673 7.48045,-3.787648 l 1.65962,-0.336066 -1.88208,-0.442264 c -2.65125,-0.623012 -5.44751,-2.127451 -7.66299,-4.122838 -1.04427,-0.940525 -1.9332,-1.672744 -1.97541,-1.627156 -0.0422,0.04559 0.14184,0.916329 0.40898,1.934975 0.78075,2.977097 0.59003,7.320023 -0.44154,10.054166 -0.18427,0.488403 -0.16016,0.498806 0.31291,0.135041 0.28191,-0.21677 1.22693,-1.030465 2.10006,-1.80821 z M 42.079796,43.563217 c 3.257444,-0.633815 6.73953,-2.730971 9.304848,-5.604034 1.726107,-1.933178 1.612697,-2.04339 -1.452417,-1.411443 -3.799774,0.783418 -7.752482,3.288008 -10.33494,6.548628 l -0.829744,1.047636 1.029451,-0.168458 c 0.566201,-0.09265 1.593461,-0.278201 2.282802,-0.412329 z m 25.316845,-0.02453 c -0.95205,-1.778923 -4.5333,-4.722315 -7.15753,-5.882703 -1.49775,-0.662279 -5.4545,-1.643185 -5.68768,-1.410013 -0.2524,0.252405 3.36496,3.855998 4.88059,4.862013 2.13457,1.416846 5.44409,2.63689 8.06051,2.97148 0.11426,0.01461 0.0711,-0.228738 -0.0959,-0.540777 z m 5.70897,-0.1417 c 3.54964,-0.867127 6.99411,-3.141631 9.44621,-6.237663 l 0.84471,-1.06653 -1.309,0.192783 c -2.3637,0.348117 -5.48101,1.547582 -7.45723,2.869356 -1.67403,1.119658 -3.98741,3.394969 -4.64318,4.566753 -0.23585,0.421447 0.2869,0.36702 3.11849,-0.324699 z m -36.905743,-0.60928 c -1.272411,-1.60655 -3.594979,-3.574894 -5.274522,-4.47008 -1.548196,-0.82518 -6.132346,-2.27266 -6.650494,-2.099942 -0.472448,0.157482 1.763458,2.737773 3.532451,4.076536 2.592025,1.961629 6.151951,3.464761 8.345024,3.523578 l 0.882129,0.02365 -0.834588,-1.05375 z m 64.219842,-1.724374 c 0.64947,-1.878679 0.73174,-2.49378 0.73174,-5.470721 v -3.354051 l -1.650479,-3.260529 c -0.90776,-1.793291 -2.10123,-3.852997 -2.65215,-4.577123 -2.27158,-2.985721 -6.34989,-5.111797 -11.14079,-5.807823 -1.03689,-0.15064 -1.13619,-0.119416 -0.96437,0.303242 2.15372,5.297851 2.29445,10.461383 0.40765,14.957112 l -0.74953,1.785937 h 0.99032 c 1.46503,0 4.7699,0.912493 6.53866,1.805361 2.26398,1.142852 4.63975,3.018589 6.08559,4.804746 0.8452,1.044146 1.33505,1.460222 1.46968,1.248333 0.11107,-0.174797 0.531219,-1.270315 0.933679,-2.434481 z m -90.374819,0.05364 c 2.006943,-1.997813 2.893603,-2.667312 4.720099,-3.564054 2.278078,-1.118451 5.256381,-1.913546 7.167842,-1.913546 h 1.04783 L 22.54792,34.802545 c -0.794003,-1.535432 -1.415878,-3.681036 -1.712127,-5.907219 -0.360122,-2.706156 -0.01167,-5.404011 1.087212,-8.417563 l 0.752899,-2.064739 -1.243478,0.16771 c -4.348877,0.586541 -7.893801,2.204821 -10.57381,4.827011 -2.1570585,2.110522 -3.4730485,4.202438 -4.4219695,7.029226 -0.5854,1.743876 -0.694958,2.53891 -0.698,5.065207 -0.002,1.648158 0.135212,3.512193 0.304882,4.142298 0.360426,1.338522 1.310728,3.932401 1.440686,3.932401 0.04924,0 1.20155,-1.106955 2.5606765,-2.4599 z m 57.41225,0.40938 c -0.63419,-1.646264 -0.68812,-2.106671 -0.68955,-5.88698 -0.002,-3.836778 0.0449,-4.220387 0.71922,-5.953125 0.39642,-1.018645 0.53988,-1.613958 0.31879,-1.322916 -2.52292,3.321153 -6.56448,5.979861 -10.70728,7.0437 l -1.19062,0.305745 1.55086,0.360741 c 3.25427,0.756967 6.9269,3.021713 9.31466,5.743948 0.71792,0.81848 1.3203,1.489649 1.33862,1.491485 0.0183,0.0019 -0.2763,-0.800333 -0.6547,-1.782598 z M 36.492899,41.129482 c -0.581269,-1.668209 -0.668753,-2.366542 -0.671211,-5.357813 -0.0028,-3.409376 0.268221,-4.77013 1.576038,-7.912986 0.196586,-0.472427 0.115123,-0.493504 -1.275609,-0.330049 -4.222178,0.496234 -8.479901,2.983349 -11.373082,6.643497 l -1.037008,1.311912 2.074919,0.449202 c 4.15243,0.898964 6.630515,2.227683 9.350961,5.013875 1.091406,1.117783 1.993151,2.04769 2.003877,2.066462 0.01072,0.01876 -0.281273,-0.829074 -0.648885,-1.8841 z m 2.499841,-0.317064 c 0.63695,-2.042927 0.687295,-2.526779 0.585013,-5.622396 -0.08724,-2.640361 -0.247214,-3.780843 -0.725607,-5.17304 -0.337529,-0.982266 -0.710822,-1.785938 -0.829537,-1.785938 -0.364649,0 -1.508734,4.018844 -1.698234,5.965415 -0.09851,1.011886 -0.05147,2.75032 0.104526,3.863189 0.29975,2.138363 1.230908,4.988063 1.629884,4.988063 0.130366,0 0.550643,-1.005883 0.933955,-2.235293 z m 30.939511,-0.94602 c 0.51311,-1.980171 0.50966,-6.31271 -0.007,-8.338619 -0.50648,-1.987304 -0.92243,-3.032152 -1.20709,-3.032152 -0.54427,0 -1.3849,3.641307 -1.50115,6.502395 -0.12212,3.005606 0.17957,4.912553 1.13556,7.177889 l 0.42373,1.004091 0.38018,-0.894162 c 0.20909,-0.491789 0.55803,-1.580538 0.77541,-2.419442 z m 4.40523,-1.211731 c 2.10256,-1.397781 5.41477,-2.651024 7.69033,-2.909792 l 1.51386,-0.172151 -0.8524,-1.191895 c -2.13044,-2.978939 -5.83943,-5.456756 -9.61262,-6.421777 -1.87917,-0.48061 -3.80749,-0.685482 -3.80749,-0.404521 0,0.06448 0.34907,1.16581 0.77571,2.447396 1.3268,3.985559 1.32209,7.535693 -0.0152,11.422464 -0.27279,0.792867 -0.49598,1.50276 -0.49598,1.577536 0,0.07478 0.65915,-0.592423 1.46478,-1.482669 0.80563,-0.890249 2.30816,-2.179312 3.33897,-2.864591 z M 45.153764,37.662231 c 1.029682,-0.541084 2.739459,-1.205942 3.799502,-1.477465 1.73128,-0.443455 1.846601,-0.511583 1.133599,-0.6697 -3.464917,-0.768395 -6.891404,-2.647805 -9.39878,-5.155179 l -1.754982,-1.754984 0.638752,1.836732 c 0.872239,2.508126 0.914911,7.603178 0.08563,10.224826 -0.299202,0.945885 -0.54554,1.761926 -0.547418,1.813422 -0.0019,0.0515 0.935953,-0.790054 2.084065,-1.870117 1.216091,-1.144011 2.86898,-2.374416 3.959629,-2.947535 z m 7.184779,-3.076104 c -0.999019,-1.866686 -5.128606,-5.065313 -7.857971,-6.086499 -1.645825,-0.615783 -5.00674,-1.253122 -5.262012,-0.99785 -0.279562,0.279564 2.016122,2.809034 3.719877,4.098695 2.620658,1.983714 6.265558,3.450363 8.67909,3.492326 0.918254,0.01595 0.978184,-0.02614 0.721016,-0.506672 z m 6.423888,-0.311116 c 0.90375,-0.29428 2.29803,-0.902846 3.09839,-1.35237 1.68016,-0.943663 6.13121,-5.238803 5.61428,-5.417632 -0.70795,-0.244917 -4.39825,0.810207 -6.48277,1.853541 -1.62864,0.81516 -2.6851,1.600264 -4.22358,3.138747 -1.12842,1.128421 -2.05168,2.191475 -2.05168,2.362337 0,0.403009 1.82008,0.139976 4.04536,-0.584623 z m -28.387024,-5.47751 c 2.197333,-1.065334 4.811188,-1.889374 5.993098,-1.889374 0.971534,0 0.915464,-0.358314 -0.298005,-1.9044 -2.656515,-3.384673 -6.948205,-5.702132 -11.826489,-6.386157 l -0.972021,-0.136295 -0.649552,1.633739 c -0.936764,2.356127 -1.242865,4.090685 -1.242865,7.042851 0,2.591432 0.539193,5.109191 1.489984,6.957473 l 0.372912,0.724918 2.44199,-2.476195 c 2.03211,-2.060575 2.81947,-2.659211 4.690948,-3.56656 z m 54.653044,3.657037 c 1.33004,-3.83485 1.11495,-9.004762 -0.52353,-12.583667 l -0.65907,-1.439599 -1.13678,0.160816 c -4.73839,0.670318 -7.47734,2.027464 -10.76896,5.336005 -2.57134,2.584547 -2.70955,2.96607 -1.07814,2.975984 1.2093,0.0074 4.58468,1.082135 6.47266,2.061022 1.34591,0.697838 2.51121,1.629574 4.23765,3.388288 1.30969,1.334175 2.46902,2.347003 2.5763,2.250729 0.10728,-0.09627 0.50322,-1.063586 0.87987,-2.149578 z m -30.24944,-0.644941 c 0.46273,-1.487842 0.57608,-2.492338 0.56799,-5.033761 -0.009,-2.766879 -0.10546,-3.455583 -0.75195,-5.357813 -0.40801,-1.200547 -0.8322,-2.182812 -0.94264,-2.182812 -0.28221,0 -1.00259,1.881756 -1.45533,3.801561 -0.440375,1.86738 -0.498432,5.572653 -0.114554,7.310939 0.144616,0.654844 0.519114,1.890477 0.832214,2.745851 0.51983,1.420167 0.6004,1.512655 0.92772,1.065011 0.19715,-0.269618 0.6186,-1.326658 0.93655,-2.348976 z m -3.007882,-0.331681 c -0.92465,-3.334571 -0.572342,-8.3114 0.817962,-11.554847 0.30458,-0.710556 0.51047,-1.335231 0.45754,-1.388166 -0.0529,-0.05294 -1.142147,0.08614 -2.420466,0.309064 -2.665904,0.464895 -5.650661,1.743974 -7.726029,3.310892 -1.378622,1.04087 -4.058063,4.01371 -4.058063,4.502422 0,0.137965 0.446485,0.252606 0.992188,0.254757 3.146089,0.01241 7.211105,1.77968 10.259092,4.460179 1.1606,1.020665 2.123956,1.862542 2.140796,1.870834 0.01683,0.0083 -0.191521,-0.786018 -0.46302,-1.765135 z m 8.697582,-2.530703 c 1.86772,-0.981464 5.22065,-2.039086 6.46441,-2.039086 0.39452,0 0.7797,-0.100949 0.85595,-0.224332 0.0762,-0.123382 -0.50202,-1.001046 -1.28507,-1.950363 -1.60479,-1.945574 -4.58083,-4.077214 -6.94408,-4.973831 -1.40119,-0.531609 -5.11223,-1.34246 -5.33144,-1.164902 -0.0504,0.04086 0.20752,0.826768 0.57325,1.746463 1.53548,3.861242 1.62642,8.107322 0.26797,12.512404 -0.0954,0.309409 0.60418,-0.18678 1.72028,-1.22012 1.0346,-0.957882 2.69003,-2.166687 3.67873,-2.686233 z M 39.088998,25.165537 c 1.057424,-1.552499 3.872651,-3.952918 5.862088,-4.998337 2.005012,-1.053605 4.365392,-1.816517 6.549538,-2.116914 0.7504,-0.103206 1.364367,-0.285658 1.364367,-0.405449 0,-0.557447 -4.070475,-4.462139 -5.589353,-5.361709 -1.973321,-1.168717 -5.035492,-2.196951 -7.308599,-2.4541243 -1.57807,-0.178538 -1.615183,-0.167828 -2.000324,0.5772513 -0.215831,0.41754 -0.663995,1.652133 -0.995923,2.743539 -0.705676,2.32032 -0.846519,7.001719 -0.270518,8.991519 0.543883,1.878842 1.369504,3.973231 1.565497,3.971257 0.09869,-0.001 0.469138,-0.42716 0.823227,-0.947033 z m 30.584893,-2.036553 c 1.14795,-3.633904 0.8627,-8.47595 -0.71545,-12.144449 l -0.56977,-1.3244603 -1.47798,0.179106 c -4.41887,0.5354903 -8.75179,2.9739873 -11.49998,6.4719843 l -1.23699,1.57449 0.99928,0.156427 c 4.99042,0.7812 9.17415,3.056428 11.89435,6.468478 1.51044,1.894609 1.58389,1.855676 2.60654,-1.381576 z m 5.14201,-2.432791 c 2.0037,-1.217182 4.44213,-2.115034 6.82144,-2.511716 l 1.91715,-0.319629 -1.25569,-1.598863 c -1.56415,-1.991625 -3.70605,-3.658325 -6.2084,-4.831016 -1.74363,-0.817124 -5.18317,-1.7247583 -6.5361,-1.7247583 -0.52929,0 -0.52934,0.0037 -0.0151,1.2033593 1.02449,2.390041 1.40529,4.398642 1.4021,7.395599 -0.003,2.51066 -0.10863,3.221778 -0.77147,5.177276 l -0.76838,2.26686 1.94031,-2.062682 c 1.06718,-1.134475 2.63054,-2.481969 3.47414,-2.99443 z m -38.398795,2.617326 c -0.487518,-1.328425 -0.574196,-2.124241 -0.573881,-5.268933 2.65e-4,-3.511911 0.04386,-3.820089 0.838152,-5.937621 0.46078,-1.228401 0.83778,-2.2774933 0.83778,-2.3313163 0,-0.218432 -2.640552,0.3045003 -4.554673,0.9020023 -3.185776,0.994455 -6.382758,3.330553 -8.521482,6.226813 l -0.721123,0.976546 1.01166,0.161161 c 1.942016,0.30937 5.357478,1.516934 7.002469,2.475779 0.911701,0.53142 2.437053,1.741257 3.389667,2.688525 0.952611,0.947269 1.762099,1.710945 1.798855,1.697058 0.03675,-0.01389 -0.191583,-0.729393 -0.507424,-1.590014 z M 14.431971,20.064297 c 2.075289,-1.046526 4.661435,-1.812588 6.846213,-2.027967 l 1.821181,-0.179536 0.926042,-1.343663 c 1.245928,-1.807812 4.322275,-4.387462 6.496428,-5.447538 1.928651,-0.940373 5.245926,-1.8845493 6.62119,-1.8845493 0.696241,0 0.96987,-0.174312 1.421993,-0.905859 0.857752,-1.387874 4.784288,-4.9681608 6.248114,-5.6971469 0.71774,-0.3574346 2.019358,-0.9232005 2.892483,-1.2572575 l 1.5875,-0.60737655 -1.5875,0.1488828 C 33.4618,2.198135 19.314235,10.28081 10.757196,21.971365 l -1.3249335,1.810113 1.7380325,-1.474419 c 0.955918,-0.810931 2.423672,-1.820174 3.261676,-2.242762 z m 79.45301,0.163101 c -1.73213,-2.199737 -6.03318,-6.460703 -8.34395,-8.266182 -4.9827,-3.8931423 -10.35403,-6.7676893 -16.27187,-8.7081374 -3.56302,-1.1683041 -8.52943,-2.27974085 -10.13375,-2.26783815 -0.77055,0.00572 -0.71222,0.0614959 0.65042,0.62197615 3.15013,1.2957097 6.04174,3.5449191 8.01733,6.2362181 0.91359,1.244554 0.94824,1.262681 2.73006,1.428284 2.07579,0.192925 4.5264,0.9421713 6.74546,2.0623513 1.62844,0.822032 5.37865,4.197037 6.27476,5.646977 0.49374,0.798897 0.66497,0.869573 2.84398,1.173903 2.60787,0.364225 5.11899,1.270736 7.08111,2.556275 0.7276,0.47671 1.36281,0.875406 1.41157,0.885991 0.0488,0.01059 -0.40355,-0.605833 -1.00512,-1.369818 z m -37.07357,-6.232333 c 2.22383,-2.163062 5.54755,-3.853748 8.84783,-4.5006613 l 2.34321,-0.459311 -1.04072,-1.316605 c -3.6331,-4.5962199 -8.89772,-6.99819735 -14.602685,-6.6624528 -3.634859,0.2139162 -6.505853,1.3156361 -9.715148,3.7281068 -1.404512,1.055791 -3.801825,3.718623 -3.801825,4.222904 0,0.0957 0.338143,0.173998 0.751428,0.173998 1.334516,0 4.886015,1.0328813 6.831282,1.9867383 2.047962,1.004214 5.452221,3.955292 6.478798,5.616329 l 0.59343,0.960183 0.79963,-1.040479 c 0.43979,-0.572264 1.57144,-1.791201 2.51477,-2.70875 z"
         id="path232"
         sodipodi:nodetypes="cssscsssssssscssscsscssscsssscsssssssscssssssscsscsscsssssssssssssscscsssscscccssssscsccsssscsssssssssssssssssssssssssssssssssssssccssssssssssssscsscssssscsscsscssssssccsssssssssssssssssssssssscssssscsscssssssssscsssscsscscsssssssscssscssssssssssscsscssscsscssssssssscscscssssssscsscssssssssssssssssssscsssssssssssssssssssssssssssscssssscsssssssscsssssssscssssssscsssscssccsscsssccsssscsssssssssscsssssscssssssssssssscsssssssssscscsscsssssssscccssscsssssssssscsscsssssssssscscsscssssssscssscsscssssssssssssscsssssscsscsssscsscscsssssscssssssscscsssssccsscsssssssssscsssssscssssssssssscssssssssssscsssscsssscccsscssscscssssssssscssscssscssssscssscsscsssssscssssssssssssccssscscccscsssssssccsssscsscssscsssccssssssssssscssscsssscsscssssscssssssssscsssssssssccscscssssssssssssssscsscssssscsssscscssscsssscssssssscsssssscsscsscssssssssssscsscssssssscss"
         inkscape:export-filename="/Users/xunorus/xunserver/iusdappv2/design/logowhitewtext.png"
         inkscape:export-xdpi="96"
         inkscape:export-ydpi="96" />
      <text
         xml:space="preserve"
         style="font-weight:200;font-size:17.9002px;line-height:1.25;font-family:Montserrat;-inkscape-font-specification:'Montserrat Ultra-Light';fill:#ffffff;fill-opacity:1;stroke:#ffffff;stroke-width:0.232471;stroke-opacity:1"
         x="-16.523397"
         y="126.97858"
         id="text995"
         inkscape:export-filename="/Users/xunorus/xunserver/iusdappv2/design/logowhitewtext.png"
         inkscape:export-xdpi="96"
         inkscape:export-ydpi="96"><tspan
           sodipodi:role="line"
           id="tspan993"
           style="font-style:normal;font-variant:normal;font-weight:normal;font-stretch:normal;font-size:17.9002px;font-family:Montserrat;-inkscape-font-specification:'Montserrat, @wght=300';font-variant-ligatures:normal;font-variant-caps:normal;font-variant-numeric:normal;font-variant-east-asian:normal;font-variation-settings:'wght' 300;fill:#ffffff;fill-opacity:1;stroke:#ffffff;stroke-width:0.232471;stroke-opacity:1"
           x="-16.523397"
           y="126.97858">IUS NATURALIS</tspan></text>
    </g>
  </g>
</svg>
