<?xml version="1.0" encoding="UTF-8" standalone="no"?>
<!-- Created with Inkscape (http://www.inkscape.org/) -->

<svg
   width="841mm"
   height="594mm"
   viewBox="0 0 841 594"
   version="1.1"
   id="svg5"
   inkscape:version="1.1.2 (b8e25be8, 2022-02-05)"
   sodipodi:docname="trokBANNER.svg"
   inkscape:export-filename="/Users/xunorus/trokv2.png"
   inkscape:export-xdpi="96"
   inkscape:export-ydpi="96"
   xmlns:inkscape="http://www.inkscape.org/namespaces/inkscape"
   xmlns:sodipodi="http://sodipodi.sourceforge.net/DTD/sodipodi-0.dtd"
   xmlns="http://www.w3.org/2000/svg"
   xmlns:svg="http://www.w3.org/2000/svg">
  <sodipodi:namedview
     id="namedview7"
     pagecolor="#ffffff"
     bordercolor="#666666"
     borderopacity="1.0"
     inkscape:pageshadow="2"
     inkscape:pageopacity="0.0"
     inkscape:pagecheckerboard="0"
     inkscape:document-units="mm"
     showgrid="true"
     inkscape:zoom="0.088863389"
     inkscape:cx="-84.399212"
     inkscape:cy="1142.2027"
     inkscape:window-width="1280"
     inkscape:window-height="691"
     inkscape:window-x="0"
     inkscape:window-y="1145"
     inkscape:window-maximized="0"
     inkscape:current-layer="g1015">
    <inkscape:grid
       type="xygrid"
       id="grid824" />
  </sodipodi:namedview>
  <defs
     id="defs2" />
  <g
     inkscape:label="Layer 1"
     inkscape:groupmode="layer"
     id="layer1">
    <g
       id="g12757"
       inkscape:export-filename="/Users/xunorus/trok.png"
       inkscape:export-xdpi="96"
       inkscape:export-ydpi="96"
       transform="matrix(67.644515,0,0,67.644515,-1503.3994,-4041.2342)">
      <circle
         style="fill:#6600ff;stroke-width:2.465;stop-color:#000000"
         id="circle12634"
         cx="30.427086"
         cy="63.500008"
         r="0.26458332" />
      <g
         id="g12632"
         transform="translate(-3.3333342e-8,6.6145833)">
        <g
           id="g12572"
           transform="translate(0,-0.26458667)"
           style="fill:#6600ff;stroke:#6600ff">
          <path
             style="fill:#6600ff;stroke:#6600ff;stroke-width:0.264583px;stroke-linecap:butt;stroke-linejoin:miter;stroke-opacity:1"
             d="m 22.489583,55.827087 h 2.645833"
             id="path12568" />
          <path
             style="fill:#6600ff;stroke:#6600ff;stroke-width:0.264583px;stroke-linecap:butt;stroke-linejoin:miter;stroke-opacity:1"
             d="M 23.8125,55.827087 V 58.47292"
             id="path12570" />
        </g>
        <g
           id="g12580"
           transform="translate(-7.9374997,1.3229177)"
           style="stroke:#6600ff;stroke-opacity:1">
          <path
             style="fill:none;stroke:#6600ff;stroke-width:0.264583px;stroke-linecap:butt;stroke-linejoin:miter;stroke-opacity:1"
             d="m 34.395833,54.239583 v 2.645833"
             id="path12574" />
          <path
             style="fill:none;stroke:#6600ff;stroke-width:0.264583px;stroke-linecap:butt;stroke-linejoin:miter;stroke-opacity:1"
             d="m 34.395833,55.562499 1.322917,1.322917"
             id="path12576" />
          <path
             style="fill:none;stroke:#6600ff;stroke-width:0.264583px;stroke-linecap:butt;stroke-linejoin:miter;stroke-opacity:1"
             d="M 34.395833,55.562499 35.71875,54.239583 34.395833,52.916667"
             id="path12578" />
        </g>
        <g
           id="g12590"
           transform="translate(-1.3229163,6.6145837)"
           style="stroke:#6600ff;stroke-opacity:1">
          <path
             style="fill:none;stroke:#6600ff;stroke-width:0.264583px;stroke-linecap:butt;stroke-linejoin:miter;stroke-opacity:1"
             d="M 30.427083,50.270833 31.75,48.947916"
             id="path12582" />
          <path
             style="fill:none;stroke:#6600ff;stroke-width:0.264583px;stroke-linecap:butt;stroke-linejoin:miter;stroke-opacity:1"
             d="M 33.072916,50.270833 31.75,48.947916"
             id="path12584" />
          <path
             style="fill:none;stroke:#6600ff;stroke-width:0.264583px;stroke-linecap:butt;stroke-linejoin:miter;stroke-opacity:1"
             d="m 31.75,51.593749 1.322916,-1.322916"
             id="path12586" />
          <path
             style="fill:none;stroke:#6600ff;stroke-width:0.264583px;stroke-linecap:butt;stroke-linejoin:miter;stroke-opacity:1"
             d="M 30.427083,50.270833 31.75,51.593749"
             id="path12588" />
        </g>
        <g
           id="g12596"
           transform="translate(-1.3229163,6.6145837)"
           style="fill:#000000;fill-opacity:0;stroke:#6600ff;stroke-opacity:1">
          <path
             style="fill:#000000;fill-opacity:0;stroke:#6600ff;stroke-width:0.264583px;stroke-linecap:butt;stroke-linejoin:miter;stroke-opacity:1"
             d="m 34.395833,48.947916 v 2.645833"
             id="path12592" />
          <path
             style="fill:#000000;fill-opacity:0;stroke:#6600ff;stroke-width:0.264583px;stroke-linecap:butt;stroke-linejoin:miter;stroke-opacity:1"
             d="M 35.71875,51.593749 34.395833,50.270833 35.71875,48.947917"
             id="path12594" />
        </g>
        <circle
           style="fill:#6600ff;stroke-width:2.465;stop-color:#000000"
           id="circle12598"
           cx="22.489584"
           cy="55.5625"
           r="0.26458332" />
        <circle
           style="fill:#6600ff;stroke-width:2.465;stop-color:#000000"
           id="circle12600"
           cx="25.135414"
           cy="55.5625"
           r="0.26458332" />
        <circle
           style="fill:#6600ff;stroke-width:2.465;stop-color:#000000"
           id="circle12602"
           cx="23.787493"
           cy="58.217495"
           r="0.26458332" />
        <circle
           style="fill:#6600ff;stroke-width:2.465;stop-color:#000000"
           id="circle12604"
           cx="26.422066"
           cy="58.217495"
           r="0.26458332" />
        <circle
           style="fill:#6600ff;stroke-width:2.465;stop-color:#000000"
           id="circle12606"
           cx="26.422066"
           cy="55.571659"
           r="0.26458332" />
        <circle
           style="fill:#6600ff;stroke-width:2.465;stop-color:#000000"
           id="circle12608"
           cx="26.422066"
           cy="54.288662"
           r="0.26458332" />
        <circle
           style="fill:#6600ff;stroke-width:2.465;stop-color:#000000"
           id="circle12610"
           cx="27.78125"
           cy="55.5625"
           r="0.26458332" />
        <circle
           style="fill:#6600ff;stroke-width:2.465;stop-color:#000000"
           id="circle12612"
           cx="30.427086"
           cy="55.5625"
           r="0.26458332" />
        <circle
           style="fill:#6600ff;stroke-width:2.465;stop-color:#000000"
           id="circle12614"
           cx="30.427086"
           cy="58.208336"
           r="0.26458332" />
        <circle
           style="fill:#6600ff;stroke-width:2.465;stop-color:#000000"
           id="circle12616"
           cx="29.105097"
           cy="56.865921"
           r="0.26458332" />
        <circle
           style="fill:#6600ff;stroke-width:2.465;stop-color:#000000"
           id="circle12618"
           cx="31.750933"
           cy="56.865921"
           r="0.26458332" />
        <circle
           style="fill:#6600ff;stroke-width:2.465;stop-color:#000000"
           id="circle12620"
           cx="33.111916"
           cy="56.865921"
           r="0.26458332" />
        <circle
           style="fill:#6600ff;stroke-width:2.465;stop-color:#000000"
           id="circle12622"
           cx="33.111916"
           cy="55.582924"
           r="0.26458332" />
        <circle
           style="fill:#6600ff;stroke-width:2.465;stop-color:#000000"
           id="circle12624"
           cx="33.111916"
           cy="58.187912"
           r="0.26458332" />
        <circle
           style="fill:#6600ff;stroke-width:2.465;stop-color:#000000"
           id="circle12626"
           cx="34.251945"
           cy="58.187912"
           r="0.26458332" />
        <circle
           style="fill:#6600ff;stroke-width:2.465;stop-color:#000000"
           id="circle12628"
           cx="34.393059"
           cy="55.582924"
           r="0.26458332" />
        <circle
           style="fill:#6600ff;stroke-width:2.465;stop-color:#000000"
           id="circle12630"
           cx="27.78125"
           cy="58.208336"
           r="0.26458332" />
      </g>
    </g>
    <g
       id="g1015"
       transform="matrix(1.5767667,0,0,1.5767667,317.69991,428.64939)">
      <path
         d="m 91.594,48.863 5.0859,-2.5 c 2.9453,-1.457 4.1562,-5.0234 2.7148,-7.9766 l -13.062,-26.73 C 85.51629,9.9689 83.946,8.7736 82.1022,8.4337 80.2584,8.0938 78.3639,8.65636 77.0006,9.9415 l -6.3594,6 c -1.8008,1.7734 -4.1055,2.9492 -6.5977,3.3672 l -23.898,4.168 c -2.0586,-0.82031 -4.2461,-1.2734 -6.4609,-1.332 -2.4336,-0.03906 -4.832,-0.60547 -7.0234,-1.668 l -7.3281,-4.25 c -1.6172,-0.9375 -3.5508,-1.1641 -5.3438,-0.61719 -1.8125,0.55078 -3.3203,1.8242 -4.1641,3.5234 l -9.4492,19.164 c -0.88672,2.2266 -0.17578,4.7656 1.7344,6.2109 l 1.7344,1.2773 c 2.457,1.9883 4.0273,4.8672 4.3633,8.0117 l 0.23828,1.9805 h 0.00391 c 0.16016,1.4805 0.54297,2.9297 1.1367,4.3008 -1.6875,2.7109 -1.1016,6.2539 1.375,8.2734 l 1.5117,1.2188 c 1.0781,0.87109 2.4141,1.3555 3.7969,1.375 -0.35156,2.2305 0.50391,4.4766 2.2539,5.9023 l 1.5117,1.2148 c 1.1016,0.89844 2.4805,1.3867 3.9062,1.3867 0.23438,0 0.47266,-0.01172 0.70703,-0.03906 0.09375,-0.01172 0.17969,-0.04297 0.27344,-0.05859 0.10547,1.7656 0.94531,3.4062 2.3164,4.5195 l 1.5117,1.2227 h 0.0039 c 1.1055,0.89453 2.4844,1.3867 3.9062,1.3828 0.23828,0 0.47266,-0.01172 0.71094,-0.03906 0.55078,-0.07031 1.0898,-0.21484 1.6055,-0.42969 0.31641,1.3477 1.0703,2.5508 2.1406,3.4219 l 1.5117,1.2227 h 0.0039 c 1.1016,0.89453 2.4805,1.3828 3.9023,1.3828 0.23828,0 0.47656,-0.01172 0.71484,-0.03906 0.75391,-0.08984 1.4922,-0.32031 2.1641,-0.67578 l 0.33203,0.26172 h 0.0039 c 1.3789,1.1211 3.1016,1.7383 4.8789,1.7422 1.7188,0.01563 3.3828,-0.60938 4.668,-1.75 1.4961,-1.332 2.3867,-3.2148 2.4609,-5.2188 1.7852,0.69141 3.7656,0.66406 5.5312,-0.07031 l 0.04297,-0.01563 v -0.0039 c 0.66797,-0.28125 1.2812,-0.67188 1.8242,-1.1523 1.5,-1.332 2.3906,-3.2227 2.4648,-5.2266 2.5078,0.99219 5.3633,0.51172 7.4102,-1.2461 1.4922,-1.3359 2.375,-3.2188 2.4453,-5.2188 2.5117,0.98828 5.3633,0.50781 7.4102,-1.25 1.6094,-1.4375 2.5078,-3.5039 2.4531,-5.6602 -0.05469,-2.1562 -1.0547,-4.1758 -2.7305,-5.5273 l -3.1367,-2.5273 2.9062,-3.6992 c 1.9336,-2.4805 4.3984,-4.4961 7.2148,-5.8945 z M 14.567,66.976 13.0553,65.7572 v -0.0039 c -1.2812,-1.0391 -1.4922,-2.918 -0.46875,-4.2148 l 0.60156,-0.76562 h 0.0039 c 0.64062,-0.81641 1.582,-1.3438 2.6172,-1.4609 0.14453,-0.01563 0.29297,-0.02734 0.4375,-0.02734 0.88281,0.0039 1.7383,0.30469 2.4258,0.86328 1.6914,1.3789 1.9727,3.8555 0.62891,5.5781 l -0.61328,0.77344 c -0.48047,0.61719 -1.1914,1.0156 -1.9688,1.1016 -0.77344,0.09375 -1.5508,-0.13281 -2.1523,-0.625 z m 9.7109,9.125 v -0.0039 c -0.77344,0.08594 -1.5508,-0.14062 -2.1523,-0.63281 l -1.5117,-1.2148 c -1.2812,-1.043 -1.4883,-2.918 -0.46484,-4.2148 l 4.0781,-5.168 c 0.63672,-0.81641 1.5781,-1.3438 2.6094,-1.4609 1.0313,-0.1171 2.0664,0.18359 2.8711,0.83594 1.707,1.3789 1.9844,3.8711 0.625,5.5898 l -4.082,5.168 c -0.48438,0.61719 -1.1953,1.0117 -1.9727,1.0977 z m 8.7227,7.0234 c -0.77344,0.08594 -1.5469,-0.14062 -2.1523,-0.62891 l -1.5117,-1.2188 c -1.2812,-1.043 -1.4883,-2.918 -0.46875,-4.2148 l 2.9219,-3.6992 c 0.64063,-0.82422 1.5859,-1.3516 2.6211,-1.4648 0.14453,-0.01563 0.28906,-0.02344 0.4375,-0.02344 0.88281,0 1.7383,0.30469 2.4258,0.86328 1.6992,1.3789 1.9766,3.8672 0.61719,5.5859 l -2.9219,3.6992 c -0.48047,0.61719 -1.1914,1.0156 -1.9688,1.1016 z m 9.8789,5.5586 c -0.77344,0.08594 -1.5469,-0.14062 -2.1523,-0.62891 l -1.5156,-1.2188 c -1.2773,-1.043 -1.4844,-2.9219 -0.46094,-4.2188 l 0.60938,-0.77344 v 0.0039 c 0.63672,-0.81641 1.5781,-1.3398 2.6055,-1.4531 1.0273,-0.11719 2.0586,0.18359 2.8633,0.83203 1.6992,1.3828 1.9766,3.8711 0.625,5.5938 l -0.60156,0.76172 h -0.0039 c -0.48047,0.61719 -1.1914,1.0156 -1.9727,1.1016 z m 41.141,-22.105 c 0.03906,1.1875 -0.45703,2.3281 -1.3477,3.1133 -1.543,1.2383 -3.75,1.1992 -5.2461,-0.09375 l -2.668,-2.1445 h 0.0039 c -0.34375,-0.28516 -0.78906,-0.42578 -1.2344,-0.38281 -0.44531,0.04688 -0.85547,0.26563 -1.1328,0.61328 -0.28125,0.34766 -0.41016,0.79297 -0.35938,1.2383 0.05078,0.44531 0.27734,0.85156 0.63281,1.125 0.91406,0.73828 1.457,1.8438 1.4844,3.0234 0.02734,1.1758 -0.46484,2.3047 -1.3438,3.0859 -1.543,1.2461 -3.7656,1.1992 -5.2539,-0.11328 l -2.668,-2.125 c -0.72266,-0.57422 -1.7695,-0.45312 -2.3438,0.26562 -0.57031,0.72266 -0.45312,1.7695 0.26953,2.3438 0.91797,0.73438 1.4609,1.8398 1.4883,3.0156 0.02734,1.1758 -0.46484,2.3008 -1.3477,3.0781 -0.24609,0.22266 -0.52344,0.40234 -0.82422,0.53906 -0.03516,0.01172 -0.06641,0.02734 -0.10156,0.04297 -1.4531,0.58594 -3.1133,0.32422 -4.3203,-0.67969 l -2.668,-2.1406 c -0.33984,-0.29687 -0.78906,-0.44141 -1.2383,-0.39844 -0.45312,0.03906 -0.86719,0.26172 -1.1484,0.61328 -0.28516,0.35547 -0.41406,0.80469 -0.35547,1.2539 0.05859,0.44922 0.29297,0.85547 0.65625,1.125 0.91797,0.74219 1.4609,1.8516 1.4883,3.0312 0.02344,1.1797 -0.47656,2.3086 -1.3633,3.0898 -1.5039,1.2148 -3.6602,1.1953 -5.1445,-0.05078 l 0.12891,-0.16797 0.0039,0.0039 c 2.4766,-3.1562 1.9688,-7.7188 -1.1445,-10.25 -1.4062,-1.1328 -3.1836,-1.6875 -4.9805,-1.5586 0.45703,-2.6094 -0.52734,-5.2617 -2.582,-6.9375 -1.4023,-1.1289 -3.1836,-1.6836 -4.9805,-1.5586 0.46094,-2.6094 -0.52734,-5.2617 -2.5781,-6.9375 -2.4727,-2.0195 -5.9883,-2.1406 -8.5977,-0.29688 -0.38672,-1.4922 -1.2422,-2.8203 -2.4414,-3.793 -2.4844,-2.0312 -6.0273,-2.1406 -8.6367,-0.26562 -0.17188,-0.61719 -0.29297,-1.2461 -0.36328,-1.8867 l -0.24219,-1.9883 c -0.44141,-4.0352 -2.4688,-7.7266 -5.6367,-10.262 L 4.1024,41.83149 C 3.43443,41.31977 3.16099,40.44479 3.41881,39.64399 l 9.3906,-19.031 c 0.42578,-0.87891 1.1992,-1.5352 2.1328,-1.8125 0.91016,-0.27734 1.8945,-0.16406 2.7188,0.3125 l 7.418,4.2812 c 2.6016,1.2891 5.4531,1.9922 8.3594,2.0703 0.57812,0.04297 1.1289,0.08984 1.668,0.15234 l -0.0039,-0.0039 c -2.1172,1.6289 -3.5391,3.9961 -3.9844,6.6328 l -2.5898,15.016 c -0.37109,2.0938 0.12109,4.2461 1.3633,5.9727 1.2109,1.6875 3.0547,2.8164 5.1094,3.1211 3.9688,0.60156 7.7422,-1.9297 8.6875,-5.832 l 2.3477,-9.3438 c 0.29688,-1.25 1.293,-2.2109 2.5508,-2.4648 1.7344,-0.20312 3.4766,0.28906 4.8477,1.3633 l 24.68,19.941 4.418,3.5586 h -0.0039 c 0.91406,0.73047 1.4609,1.8281 1.4922,3 z m -2.2539,-13.875 -2.875,3.6602 -23.367,-18.875 c -1.7305,-1.3945 -3.8828,-2.1602 -6.1016,-2.1641 -0.43359,0.0078 -0.86719,0.03906 -1.2969,0.09375 -2.6016,0.44922 -4.6875,2.3906 -5.3242,4.9531 l -2.3516,9.3555 c -0.39453,1.6758 -1.7305,2.9688 -3.4219,3.3047 -1.6875,0.33203 -3.418,-0.34766 -4.4219,-1.7461 -0.71875,-1 -1.0039,-2.25 -0.78516,-3.4609 l 2.5898,-15.02 v 0.0039 c 0.44531,-2.7422 2.4141,-4.9883 5.0742,-5.7891 l 0.30469,-0.07031 c 0.17578,-0.04297 0.35547,-0.08984 0.56641,-0.12109 l 24.254,-4.2383 c 3.1484,-0.53125 6.0625,-2.0156 8.3398,-4.2578 l 6.332,-5.9766 0.0039,0.0039 c 0.58984,-0.5625 1.4141,-0.80469 2.2188,-0.65625 0.80078,0.15234 1.4844,0.67578 1.8359,1.4102 l 13.055,26.734 c 0.63672,1.3008 0.10938,2.875 -1.1914,3.5234 l -5.0898,2.5 c -3.2578,1.6211 -6.1133,3.957 -8.3477,6.832 z"
         id="path1000" />
    </g>
  </g>
</svg>
